<svg width="32" height="32" viewBox="0 0 32 32" fill="none" xmlns="http://www.w3.org/2000/svg">
<path d="M30.441 7.36861L24.4736 1.53127C23.4644 0.543747 22.1215 0 20.6913 0C19.268 0 17.9306 0.539694 16.9229 1.52046L1.56874 16.4657C0.559627 17.4485 0.00139552 18.7562 1.0326e-05 20.145C-0.00276006 21.5378 0.552009 22.8455 1.55973 23.8269L7.52783 29.6656C8.53555 30.6531 9.87988 31.1982 11.3087 31.1982C12.7327 31.1982 14.0694 30.6585 15.0785 29.6771L30.4306 14.7318C31.4397 13.7497 31.9972 12.4434 32 11.0526C32.0021 9.66045 31.4473 8.35141 30.441 7.36861ZM11.6543 26.3295C11.5366 26.4443 11.4015 26.4693 11.3094 26.4693C11.2159 26.4693 11.0808 26.4443 10.9617 26.3281L4.99085 20.4881C4.87311 20.3733 4.84887 20.2429 4.84887 20.1517C4.84887 20.0612 4.8745 19.9281 4.99362 19.8126L9.17066 15.7464L15.8327 22.2619L11.6543 26.3295ZM22.7615 29.8243C22.7615 31.026 21.7634 32 20.5306 32C20.0368 32 19.5866 31.8392 19.2161 31.5751C18.9986 31.8325 18.671 32 18.3005 32C17.9909 32 17.7104 31.8811 17.4998 31.6933C17.3384 31.8771 17.1071 32 16.8398 32C16.3522 32 15.9595 31.6163 15.9595 31.1422C15.9595 30.6673 16.3515 30.2837 16.8398 30.2837C16.97 30.2837 17.094 30.3161 17.2048 30.3674C17.3904 29.9554 17.8094 29.667 18.3005 29.667C18.3074 29.667 18.3115 29.6683 18.3164 29.6683C18.3988 28.541 19.3539 27.6494 20.5306 27.6494C21.7627 27.6494 22.7615 28.6227 22.7615 29.8243ZM24.5629 31.1111C24.5629 31.6028 24.1543 31.9993 23.6521 31.9993C23.1486 31.9993 22.7407 31.6015 22.7407 31.1111C22.7407 30.6194 23.1493 30.2229 23.6521 30.2229C24.1543 30.2222 24.5629 30.62 24.5629 31.1111Z" fill="#101522"/>
</svg>
