<svg width="32" height="32" viewBox="0 0 32 32" fill="none" xmlns="http://www.w3.org/2000/svg">
<g clip-path="url(#clip0)">
<rect width="32" height="32" fill="#F2F2F2"/>
<path d="M31.4141 6.58594L25.4141 0.585938C24.6328 -0.195312 23.3672 -0.195312 22.586 0.585938L20.293 2.87894L29.1211 11.7071L31.4141 9.41406C32.1953 8.63281 32.1953 7.36719 31.4141 6.58594Z" fill="#101522"/>
<path d="M0.0595674 29.5146C-0.11037 30.1962 0.0888799 30.917 0.585942 31.414C0.965817 31.7939 1.47657 32 2 32C2.16113 32 2.32419 31.9805 2.48538 31.9404L8.918 30.332L1.668 23.082L0.0595674 29.5146Z" fill="#101522"/>
<path d="M22.586 8.06253L18.8789 4.35547C18.8789 4.35547 2.42188 20.8177 2.3125 20.9375L6 24.6485L22.586 8.06253Z" fill="#101522"/>
<path d="M7.41406 26L11.125 29.6875C11.2461 29.5703 27.7071 13.1211 27.7071 13.1211L24 9.41406L7.41406 26Z" fill="#101522"/>
</g>
<defs>
<clipPath id="clip0">
<rect width="32" height="32" fill="white"/>
</clipPath>
</defs>
</svg>
