<svg width="32" height="32" viewBox="0 0 32 32" fill="none" xmlns="http://www.w3.org/2000/svg">
<path fill-rule="evenodd" clip-rule="evenodd" d="M16.1031 8.28629e-07C19.4637 -3.57428e-05 22.1253 -5.39235e-05 24.2085 0.280028C26.3523 0.568248 28.0876 1.17555 29.4561 2.54398C30.8244 3.91243 31.4317 5.64765 31.72 7.79151C32 9.87462 32 12.5363 32 15.8967V16.1031C32 19.4637 32 22.1253 31.72 24.2085C31.4317 26.3523 30.8244 28.0876 29.4561 29.4561C28.0876 30.8244 26.3523 31.4317 24.2085 31.72C22.1253 32 19.4637 32 16.1033 32H15.8969C12.5365 32 9.87462 32 7.79151 31.72C5.64765 31.4317 3.91243 30.8244 2.54398 29.4561C1.17555 28.0876 0.568248 26.3523 0.280028 24.2085C-5.39235e-05 22.1253 -3.57428e-05 19.4637 8.28629e-07 16.1031V15.8969C-3.57428e-05 12.5363 -5.39235e-05 9.87463 0.280028 7.79151C0.568248 5.64765 1.17555 3.91243 2.54398 2.54398C3.91243 1.17555 5.64765 0.568248 7.79151 0.280028C9.87463 -5.39235e-05 12.5363 -3.57428e-05 15.8969 8.28629e-07H16.1031ZM29.1196 22.7129C28.9194 22.029 28.52 21.4047 27.9508 20.9304L26.2802 19.5383C25.058 18.5198 23.3176 18.4082 21.9756 19.2624L17.2568 22.2651C15.5527 23.3494 13.2924 22.8471 12.208 21.1432L10.8786 19.0541C9.19011 16.4008 5.62116 15.7072 3.06198 17.5353L2.7445 17.762C2.75174 20.3465 2.79058 22.2971 2.99842 23.8431C3.24577 25.6827 3.70961 26.7427 4.48348 27.5165C5.25734 28.2904 6.31728 28.7543 8.15698 29.0015C10.0361 29.2542 12.5133 29.2571 16 29.2571C19.4867 29.2571 21.9639 29.2542 23.8431 29.0015C25.6827 28.7543 26.7427 28.2904 27.5165 27.5165C28.2904 26.7427 28.7543 25.6827 29.0015 23.8431C29.0492 23.4885 29.088 23.1128 29.1196 22.7129ZM21.4857 12.3429C23.5056 12.3429 25.1429 10.7055 25.1429 8.68572C25.1429 6.66593 23.5056 5.02857 21.4857 5.02857C19.4659 5.02857 17.8286 6.66593 17.8286 8.68572C17.8286 10.7055 19.4659 12.3429 21.4857 12.3429Z" fill="#101522"/>
</svg>
