<svg width="32" height="32" viewBox="0 0 32 32" fill="none" xmlns="http://www.w3.org/2000/svg">
<path d="M30.2017 0H18.1251H14.0791H1.87991C0.864245 0 0 0.773065 0 1.72662V5.52518C0 6.47873 0.823418 7.2518 1.83908 7.2518C2.85474 7.2518 3.67816 6.47873 3.67816 5.52518V3.45324H12.1379V28.5468H9.97186C8.9562 28.5468 8.13278 29.3198 8.13278 30.2734C8.13278 31.2269 8.9562 32 9.97186 32H22.1098C23.1255 32 23.9489 31.2269 23.9489 30.2734C23.9489 29.3198 23.1255 28.5468 22.1098 28.5468H19.8621V3.45324H28.3218V5.52518C28.3218 6.47873 29.1453 7.2518 30.1609 7.2518C31.1766 7.2518 32 6.47873 32 5.52518V1.72662C32 0.773065 31.2174 0 30.2017 0Z" fill="#5BC0EB"/>
</svg>
