<?xml version="1.0" encoding="utf-8"?>
<!-- Generator: Adobe Illustrator 24.0.1, SVG Export Plug-In . SVG Version: 6.00 Build 0)  -->
<svg version="1.1" id="Layer_1" xmlns="http://www.w3.org/2000/svg" xmlns:xlink="http://www.w3.org/1999/xlink" x="0px" y="0px"
	 viewBox="0 0 32 32" style="enable-background:new 0 0 32 32;" xml:space="preserve">
<style type="text/css">
	.st0{fill:#121212;}
</style>
<path class="st0" d="M16,0C7.2,0,0,7.2,0,16s7.2,16,16,16s16-7.2,16-16S24.8,0,16,0z M16,2.7c7.4,0,13.3,6,13.3,13.3
	c0,6.7-4.9,12.2-11.3,13.2v-9.3h3.8l0.6-3.9H18v-2.1c0-1.6,0.5-3,2-3h2.4V7.5c-0.4-0.1-1.3-0.2-3-0.2c-3.5,0-5.6,1.9-5.6,6.1V16
	h-3.6v3.9h3.6v9.3C7.5,28.1,2.7,22.6,2.7,16C2.7,8.6,8.6,2.7,16,2.7z"/>
</svg>
