<svg width="677" height="449" viewBox="0 0 677 449" fill="none" xmlns="http://www.w3.org/2000/svg">
<g clip-path="url(#clip0)">
<g opacity="0.5">
<path opacity="0.5" d="M483.515 0.0582772C480.86 0.0230251 477.509 0.64581 475.461 3.74212C471.448 9.82898 477.906 15.816 474.576 22.3023C473.629 24.0675 472.137 25.5854 470.256 26.6971C467.037 28.6536 463.756 29.2353 460.502 30.4045C456.593 31.7179 453.359 34.1521 451.368 37.2786C449.388 40.6559 448.716 44.4722 449.445 48.1891C450.086 51.4323 451.598 54.0057 452.845 56.7789C454.359 60.213 455.454 63.7683 456.113 67.3898C456.485 69.0783 456.593 70.8008 456.433 72.5131C456.069 74.6942 455.441 76.8381 454.559 78.9113L447.397 97.8241C446.366 100.288 445.597 102.824 445.098 105.403C444.783 108.095 444.877 110.81 445.376 113.482C446.157 119.016 447.028 124.774 450.135 128.235C453.242 131.695 459.339 131.919 463.798 127.013C468.041 122.312 469.134 115.203 473.022 110.092C479.146 102.031 488.942 102.73 495.505 95.1802C501.776 87.9417 501.678 77.4954 505.615 68.5883C508.401 62.2077 513.279 56.8376 516.567 50.6391C521.312 41.7027 522.399 31.6676 520.747 23.7477C519.272 16.7853 515.629 10.2787 510.192 4.89369C508.158 2.81382 505.942 0.880828 503.12 0.193412C500.118 -0.558632 497.122 1.36848 494.028 1.54474C490.454 1.6975 487.117 0.10528 483.515 0.0582772Z" fill="#5BC0EB"/>
<path opacity="0.5" d="M500.347 0.117432C500.347 0.117432 483.069 84.5168 454.364 130.597" stroke="#535461" stroke-width="2" stroke-miterlimit="10"/>
<path opacity="0.5" d="M475.265 4.13037C475.265 4.13037 496.348 22.3439 488.28 47.5139" stroke="#535461" stroke-width="2" stroke-miterlimit="10"/>
<path opacity="0.5" d="M450.414 39.1416C450.414 39.1416 487.514 51.6091 482.609 65.7804" stroke="#535461" stroke-width="2" stroke-miterlimit="10"/>
<path opacity="0.5" d="M520.859 23.5601C520.859 23.5601 504.319 29.2415 487.179 51.2388" stroke="#535461" stroke-width="2" stroke-miterlimit="10"/>
<path opacity="0.5" d="M495.261 95.2688C495.261 95.2688 484.065 98.5472 478.345 78.2302" stroke="#535461" stroke-width="2" stroke-miterlimit="10"/>
<path opacity="0.5" d="M448.686 97.2018C448.686 97.2018 470.228 99.6224 473.433 91.3264" stroke="#535461" stroke-width="2" stroke-miterlimit="10"/>
</g>
<g opacity="0.5">
<path opacity="0.5" d="M70.5217 104.522C69.0307 106.379 67.8045 109.076 69.7553 112.219C73.5873 118.388 83.0626 117.119 87.6679 123.024C88.8985 124.66 89.5843 126.545 89.6536 128.482C89.8278 131.825 88.6015 134.457 87.9675 137.401C87.1303 140.872 87.7691 144.481 89.772 147.595C92.0327 150.841 95.4443 153.408 99.5261 154.933C103.093 156.261 106.493 156.602 109.907 157.248C114.142 158.067 118.267 159.248 122.218 160.773C124.096 161.437 125.862 162.306 127.471 163.358C129.434 164.811 131.215 166.429 132.787 168.188L147.607 183.616C149.489 185.696 151.588 187.631 153.877 189.398C156.374 191.097 159.118 192.52 162.043 193.634C167.958 196.119 174.144 198.663 179.279 198.375C184.414 198.087 187.981 193.91 185.55 188.07C183.251 182.512 176.771 177.829 173.831 172.283C169.198 163.54 175.266 157.007 171.385 148.253C167.665 139.839 157.235 134.199 150.575 126.514C145.795 121.026 143.134 114.669 138.793 108.941C132.523 100.715 123.187 94.4227 114.408 91.2383C106.694 88.4576 98.2423 87.4559 89.9183 88.3358C86.7413 88.6296 83.613 89.129 81.3557 90.733C78.959 92.4368 79.2655 95.6213 77.7049 97.8833C75.9631 100.527 72.5492 102.008 70.5217 104.522Z" fill="#5BC0EB"/>
<path opacity="0.5" d="M79.8229 92.6895C79.8229 92.6895 154.009 151.179 183.926 196.718" stroke="#535461" stroke-width="2" stroke-miterlimit="10"/>
<path opacity="0.5" d="M70.041 112.572C70.041 112.572 99.6863 107.713 120.205 127.201" stroke="#535461" stroke-width="2" stroke-miterlimit="10"/>
<path opacity="0.5" d="M91.1097 149.292C91.1097 149.292 123.855 129.98 135.184 141.214" stroke="#535461" stroke-width="2" stroke-miterlimit="10"/>
<path opacity="0.5" d="M114.324 91.1267C114.324 91.1267 110.876 105.909 123.284 130.057" stroke="#535461" stroke-width="2" stroke-miterlimit="10"/>
<path opacity="0.5" d="M171.365 148.476C171.365 148.476 168.466 158.17 145.168 151.043" stroke="#535461" stroke-width="2" stroke-miterlimit="10"/>
<path opacity="0.5" d="M147.718 182.383C147.718 182.383 161.938 168.523 155.472 161.719" stroke="#535461" stroke-width="2" stroke-miterlimit="10"/>
</g>
<path d="M56.5804 36.6797C53.0968 40.152 49.8362 44.958 52.4001 49.6995C57.3746 58.9884 75.6217 54.4585 82.136 63.1188C84.0868 65.7098 84.3515 68.8766 83.8987 71.7026C83.0208 77.2313 79.7741 81.9257 77.5307 86.9785C75.2872 92.0313 74.1237 98.1417 77.2868 103.477C80.3315 108.641 86.7482 111.902 92.963 113.2C99.1777 114.499 105.406 114.205 111.614 114.375C118.989 114.619 126.311 115.529 133.456 117.09C136.6 117.661 139.615 118.653 142.388 120.027C145.558 121.737 148.122 124.246 150.63 126.714L172.925 148.623C175.886 151.56 178.91 154.498 182.582 156.654C186.818 159.14 191.639 160.403 196.384 161.619C206.591 164.251 217.285 166.907 227.039 165.103C236.793 163.299 244.98 155.438 242.541 146.337C240.221 137.671 229.756 131.525 226.231 123.036C220.657 109.657 234.417 97.2486 230.286 83.6355C226.329 70.5804 208.785 63.8473 199.031 52.7958C192.064 44.8758 189.319 34.97 183.23 26.5447C174.458 14.4062 159.158 6.35113 143.865 3.29595C128.572 0.240764 113.196 1.71548 98.885 4.75891C92.8236 6.05736 86.7622 7.69658 81.9548 10.9398C76.8479 14.3886 76.2557 19.6177 72.5352 23.7833C68.2225 28.6363 61.2763 31.9735 56.5804 36.6797Z" fill="#5BC0EB"/>
<path d="M78.2831 14.5884C78.2831 14.5884 196.495 93.0243 236.271 161.214" stroke="#535461" stroke-width="2" stroke-miterlimit="10"/>
<path d="M52.7763 50.2107C52.7763 50.2107 110.165 34.5353 141.643 61.7499" stroke="#535461" stroke-width="2" stroke-miterlimit="10"/>
<path d="M79.1122 105.991C79.1122 105.991 147.467 65.4514 164.746 81.262" stroke="#535461" stroke-width="2" stroke-miterlimit="10"/>
<path d="M143.621 3.11987C143.621 3.11987 131.84 28.613 146.408 65.6688" stroke="#535461" stroke-width="2" stroke-miterlimit="10"/>
<path d="M230.049 84.0762C230.049 84.0762 221.124 100.956 179.955 95.0513" stroke="#535461" stroke-width="2" stroke-miterlimit="10"/>
<path d="M173.469 146.608C173.469 146.608 205.148 119.886 195.464 110.18" stroke="#535461" stroke-width="2" stroke-miterlimit="10"/>
<path opacity="0.1" d="M338.5 449C525.448 449 677 438.194 677 424.864C677 411.534 525.448 400.728 338.5 400.728C151.552 400.728 0 411.534 0 424.864C0 438.194 151.552 449 338.5 449Z" fill="#5BC0EB"/>
<path d="M601.288 234.567C599.846 231.007 597.762 226.495 596.118 225.431C596.018 225.363 595.908 225.306 595.791 225.261H595.589V220.86L591.701 221.383C591.083 219.794 590.617 218.165 590.307 216.513C590.682 216.829 591.159 217.044 591.678 217.132C592.198 217.22 592.737 217.176 593.227 217.006C593.164 216.918 593.108 216.824 593.053 216.73L593.227 216.665C592.614 215.755 592.291 214.727 592.286 213.681C592.317 212.725 592.498 211.777 592.823 210.86C593.519 208.833 594.697 206.942 595.352 204.903C595.77 203.591 595.967 202.236 595.937 200.878C595.958 198.576 595.338 196.302 594.126 194.239C593.819 193.643 593.34 193.122 592.732 192.723C592.185 192.467 591.622 192.236 591.046 192.03C590.08 191.481 589.247 190.781 588.594 189.968C585.832 187.131 582.134 185.05 577.969 183.987C576.883 183.645 575.705 183.565 574.569 183.757C571.956 184.345 571.008 187.077 568.89 188.511C567.023 189.774 564.459 189.903 562.111 190.326C559.763 190.749 557.402 191.589 555.799 193.117C554.695 194.182 554.093 195.551 554.106 196.965C554.042 197.626 554.18 198.289 554.507 198.892C554.834 199.495 555.339 200.017 555.973 200.408C556.697 200.808 557.516 201.068 558.372 201.17C559.229 201.271 560.101 201.212 560.927 200.996C560.281 202.876 560.103 204.849 560.405 206.79C560.706 208.732 561.48 210.6 562.678 212.277C563.876 213.954 565.472 215.404 567.366 216.536C569.26 217.669 571.411 218.459 573.684 218.857L574.137 219.544C575.537 221.742 576.6 224.082 577.3 226.507C573.719 228.216 569.81 229.82 567.448 229.973C567.353 230.751 567.181 231.522 566.933 232.276C566.38 234.168 565.319 235.927 563.832 237.417C560.62 240.46 546.177 263.468 546.177 263.468C546.177 263.468 545.725 264.385 544.979 265.948C536.012 266.876 521.374 268.216 517.292 267.528L501.267 254.673C501.267 254.673 496.083 258.01 496.536 262.064L493.687 259.749C493.687 259.749 478.443 269.561 502.514 275.989L539.141 279.573C535.657 288.45 532.396 298.785 533.407 304.408H533.706C534.406 304.407 535.105 304.362 535.796 304.273L535.734 305.271L532.187 358.555C532.187 358.555 531.386 368.367 542.22 372.762C542.22 372.762 555.458 405.575 550.246 409.3C550.246 409.3 550.866 409.576 551.911 409.958L541.022 418.096C541.022 418.096 532.996 419.788 528.585 419.447C527.81 419.357 527.023 419.511 526.374 419.88C525.725 420.248 525.26 420.805 525.067 421.445C525.067 421.515 525.067 421.586 525.025 421.656V421.744C525.025 421.815 525.025 421.885 525.025 421.962C525.025 422.038 525.025 422.015 525.025 422.044C525.025 422.073 525.025 422.167 525.025 422.232C525.025 422.297 525.025 422.285 525.025 422.308C525.025 422.332 525.025 422.455 525.074 422.526V422.608C525.097 422.686 525.127 422.765 525.164 422.843L525.199 422.914C525.234 422.99 525.276 423.066 525.325 423.143V423.196C525.373 423.272 525.429 423.342 525.485 423.419L525.534 423.483C525.599 423.562 525.671 423.64 525.75 423.718L525.812 423.777C525.896 423.859 525.987 423.936 526.077 424.012L526.119 424.042L526.418 424.259L526.481 424.3C526.593 424.376 526.718 424.447 526.844 424.518L526.927 424.565C527.06 424.635 527.199 424.706 527.345 424.77H527.408L527.861 424.958H527.923L528.453 425.134L528.564 425.17L529.143 425.328H529.24L529.874 425.469H529.923L530.62 425.587H530.759L531.512 425.681H531.658L532.508 425.751C534.159 425.857 536.382 425.898 538.952 425.886C538.952 425.886 538.952 425.939 538.952 425.969C538.952 425.998 538.952 426.092 538.952 426.157V426.233C538.952 426.304 538.952 426.38 539.001 426.45V426.533C539.024 426.611 539.055 426.689 539.092 426.768L539.127 426.838C539.161 426.915 539.203 426.991 539.252 427.067V427.12C539.301 427.197 539.357 427.267 539.412 427.344L539.461 427.408C539.526 427.486 539.598 427.565 539.677 427.643L539.74 427.702C539.823 427.784 539.914 427.861 540.004 427.937L540.046 427.966L540.346 428.184L540.409 428.225C540.52 428.301 540.645 428.372 540.771 428.442L540.861 428.489C540.994 428.56 541.133 428.63 541.279 428.695H541.342L541.795 428.883H541.858L542.387 429.059L542.499 429.094L543.077 429.253H543.175L543.809 429.394H543.857L544.554 429.512H544.693L545.446 429.606H545.592L546.442 429.676C556.893 430.352 590.168 428.325 590.168 428.325V428.248V428.148C590.496 426.838 592.098 419.224 586.413 413.595C586.58 413.448 586.747 413.29 586.901 413.125C586.901 413.125 582.49 406.698 584.894 404.665C587.298 402.632 572.862 367.45 572.862 367.45C572.862 367.45 565.24 357.304 569.65 345.8C574.06 334.296 569.246 321.781 569.246 321.781C569.246 321.781 579.766 319.143 579.982 308.221C579.982 307.892 579.982 307.551 579.982 307.204C580.213 307.232 580.446 307.244 580.679 307.24C580.827 307.249 580.976 307.249 581.125 307.24C581.125 307.24 579.118 301.153 581.529 296.752C583.939 292.352 589.151 296.411 593.965 278.486C597.449 265.513 600.514 250.59 601.943 243.328C602.56 240.406 602.336 237.401 601.288 234.567ZM509.732 272.628L506.074 269.69C507.287 270.113 508.631 270.531 510.136 270.93L523.931 272.281C517.772 272.751 512.052 273.016 509.732 272.628Z" fill="url(#paint0_linear)"/>
<path d="M544.652 270.912C544.652 270.912 516.274 274.238 510.359 273.262L494.565 260.595C494.565 260.595 479.585 270.237 503.239 276.547L547.411 280.9L544.652 270.912Z" fill="#FDC2CC"/>
<path opacity="0.05" d="M544.652 270.912C544.652 270.912 516.274 274.238 510.359 273.262L494.565 260.595C494.565 260.595 479.585 270.237 503.239 276.547L547.411 280.9L544.652 270.912Z" fill="black"/>
<path d="M554.9 405.84L541.105 416.145C541.105 416.145 533.225 417.808 528.885 417.473C524.544 417.138 522.58 423.125 532.828 423.789C543.077 424.453 575.788 422.461 575.788 422.461C575.788 422.461 578.944 411.827 569.483 405.84H554.9Z" fill="#47465A"/>
<path opacity="0.05" d="M554.9 405.84L541.105 416.145C541.105 416.145 533.225 417.808 528.885 417.473C524.544 417.138 522.58 423.125 532.828 423.789C543.077 424.453 575.788 422.461 575.788 422.461C575.788 422.461 578.944 411.827 569.483 405.84H554.9Z" fill="black"/>
<path opacity="0.3" d="M576.283 417.861C576.259 419.072 576.094 420.279 575.788 421.462C575.788 421.462 543.042 423.454 532.828 422.79C527.902 422.473 525.805 420.922 525.429 419.435C524.983 421.139 526.767 423.395 532.828 423.789C543.077 424.453 575.788 422.461 575.788 422.461C576.172 420.95 576.338 419.405 576.283 417.861Z" fill="#F5F9E9"/>
<path d="M571.057 217.388C571.057 217.388 579.731 227.693 576.575 234.673C573.419 241.653 593.129 227.358 593.129 227.358C593.129 227.358 586.824 218.052 589.973 208.081L571.057 217.388Z" fill="#FDC2CC"/>
<path d="M568.695 409.829L554.9 420.146C554.9 420.146 547.02 421.809 542.68 421.474C538.339 421.139 536.368 427.114 546.623 427.784C556.879 428.454 589.583 426.456 589.583 426.456C589.583 426.456 592.739 415.822 583.278 409.835L568.695 409.829Z" fill="#47465A"/>
<path d="M572.639 407.502C570.583 409.641 567.685 410.44 564.654 410.587C557.764 410.863 550.177 407.502 550.177 407.502C555.297 403.848 542.297 371.604 542.297 371.604C531.658 367.285 532.445 357.644 532.445 357.644L535.929 305.312L536.8 292.169L547.836 286.517L556.538 292.146L564.787 297.486C565.323 299.185 565.668 300.922 565.818 302.674C566.772 314.889 555.325 317.762 555.325 317.762C555.325 317.762 560.056 330.059 555.722 341.358C551.389 352.656 558.879 362.626 558.879 362.626C558.879 362.626 573.071 397.191 570.723 399.189C568.375 401.186 572.639 407.502 572.639 407.502Z" fill="#565171"/>
<path opacity="0.05" d="M572.639 407.502C570.583 409.641 567.685 410.44 564.654 410.587C557.764 410.863 550.177 407.502 550.177 407.502C555.297 403.848 542.297 371.604 542.297 371.604C531.658 367.285 532.445 357.644 532.445 357.644L535.929 305.312L536.8 292.169L547.836 286.517L556.538 292.146L564.787 297.486C565.323 299.185 565.668 300.922 565.818 302.674C566.772 314.889 555.325 317.762 555.325 317.762C555.325 317.762 560.056 330.059 555.722 341.358C551.389 352.656 558.879 362.626 558.879 362.626C558.879 362.626 573.071 397.191 570.723 399.189C568.375 401.186 572.639 407.502 572.639 407.502Z" fill="black"/>
<path d="M586.434 411.492C579.731 418.472 563.972 411.492 563.972 411.492C564.293 411.246 564.533 410.934 564.668 410.587C567.56 403.96 554.914 372.274 554.914 372.274C544.275 367.956 543.07 357.65 543.07 357.65L540.283 304.39L539.921 297.493L556.503 292.152L561.596 290.513L578.547 301.464C579.281 303.729 579.646 306.067 579.634 308.415C579.425 319.161 569.113 321.752 569.113 321.752C569.113 321.752 573.844 334.049 569.511 345.347C565.177 356.646 572.667 366.616 572.667 366.616C572.667 366.616 586.859 401.181 584.511 403.178C582.163 405.176 586.434 411.492 586.434 411.492Z" fill="#565171"/>
<path opacity="0.1" d="M579.634 308.427C576.227 308.015 569.329 304.555 565.783 302.675C564.431 301.958 563.567 301.5 563.567 301.5C563.567 301.5 560.021 293.192 550.56 299.508C547.483 301.613 544.009 303.267 540.283 304.402C538.858 304.827 537.388 305.138 535.894 305.33L536.765 292.187L547.801 286.535L556.503 292.164L561.596 290.525L578.547 301.464C579.282 303.733 579.648 306.075 579.634 308.427Z" fill="black"/>
<path d="M600.967 244.667C599.574 251.8 596.55 266.459 593.129 279.208C588.399 296.834 583.278 292.833 580.909 297.157C578.54 301.482 580.512 307.463 580.512 307.463C576.568 307.798 563.561 300.483 563.561 300.483C563.561 300.483 560.014 292.175 550.553 298.491C541.091 304.807 533.602 304.472 533.602 304.472C531.63 293.503 546.212 264.255 546.212 264.255C546.212 264.255 560.418 241.653 563.54 238.662C565.001 237.197 566.042 235.469 566.584 233.61C566.826 232.869 566.994 232.112 567.086 231.348C572.207 231.013 584.824 223.71 584.824 223.71L594.676 222.382V226.7C594.791 226.744 594.898 226.799 594.997 226.865C596.62 227.911 598.661 232.346 600.076 235.842C601.229 238.677 601.536 241.708 600.967 244.667Z" fill="#F68080"/>
<path opacity="0.1" d="M593.129 231.018C593.129 231.018 582.88 224.039 567.511 246.641C552.141 269.244 548.595 265.583 548.595 265.583C548.595 265.583 551.751 275.571 550.17 277.551C550.17 277.551 560.808 276.887 564.752 277.551C568.695 278.215 593.129 252.287 593.129 252.287C593.129 252.287 605.747 237.664 593.129 231.018Z" fill="black"/>
<path opacity="0.1" d="M592.739 229.685C592.739 229.685 582.49 222.734 567.121 245.307C551.751 267.881 548.212 264.255 548.212 264.255C548.212 264.255 560.418 275.554 564.362 276.2C568.305 276.846 592.739 250.936 592.739 250.936C592.739 250.936 605.343 236.336 592.739 229.685Z" fill="black"/>
<path opacity="0.1" d="M549.807 275.389C549.968 272.927 548.867 268.597 548.233 266.353C550.629 266.088 552.141 265.912 552.141 265.912L554.928 275.9L549.807 275.389Z" fill="black"/>
<path opacity="0.1" d="M590.37 208.745L571.454 218.034C572.251 219.015 572.986 220.031 573.656 221.077C574.747 221.265 575.859 221.359 576.972 221.359C582.024 221.359 584.378 216.888 587.423 213.88C587.228 211.483 589.527 211.424 590.37 208.745Z" fill="black"/>
<path d="M576.582 220.713C585.725 220.713 593.136 214.463 593.136 206.754C593.136 199.044 585.725 192.794 576.582 192.794C567.44 192.794 560.028 199.044 560.028 206.754C560.028 214.463 567.44 220.713 576.582 220.713Z" fill="#FDC2CC"/>
<path opacity="0.1" d="M555.639 195.461C557.31 194.017 559.481 193.056 561.84 192.717C564.139 192.3 566.661 192.171 568.5 190.955C570.59 189.551 571.51 186.883 574.074 186.29C575.189 186.101 576.345 186.178 577.411 186.513C581.508 187.555 585.145 189.6 587.862 192.388C588.502 193.187 589.318 193.875 590.266 194.415C590.832 194.618 591.386 194.845 591.924 195.097C592.514 195.49 592.979 196.001 593.275 196.583C595.124 199.73 595.55 203.337 594.474 206.73C593.833 208.734 592.676 210.59 591.993 212.605C591.311 214.621 591.136 216.859 592.391 218.639C591.178 219.162 589.646 218.504 588.907 217.552C588.168 216.601 587.918 215.426 587.514 214.327C586.725 212.166 585.248 210.229 583.243 208.728C582.003 207.799 579.759 207.177 578.916 208.375C578.582 208.839 578.603 209.427 578.317 209.909C577.753 210.849 576.122 211.037 575.042 210.496C574.001 209.89 573.27 208.975 572.994 207.934C571.371 203.305 568.605 200.391 562.731 202.371C560.544 203.111 557.966 203.61 555.862 202.341C553.089 200.667 553.653 197.353 555.639 195.461Z" fill="black"/>
<path d="M555.639 195.12C557.31 193.676 559.481 192.715 561.84 192.377C564.139 191.959 566.661 191.83 568.5 190.614C570.59 189.21 571.51 186.542 574.074 185.949C575.189 185.76 576.345 185.837 577.411 186.172C581.508 187.214 585.145 189.259 587.862 192.048C588.502 192.847 589.318 193.535 590.266 194.075C590.832 194.277 591.386 194.504 591.924 194.756C592.514 195.149 592.979 195.66 593.275 196.243C595.124 199.39 595.55 202.997 594.474 206.389C593.833 208.393 592.676 210.249 591.993 212.265C591.311 214.28 591.136 216.518 592.391 218.299C591.178 218.822 589.646 218.163 588.907 217.212C588.168 216.26 587.918 215.085 587.514 213.986C586.725 211.825 585.248 209.888 583.243 208.387C582.003 207.459 579.759 206.836 578.916 208.034C578.582 208.499 578.603 209.086 578.317 209.568C577.753 210.508 576.122 210.696 575.042 210.155C574.001 209.549 573.27 208.635 572.994 207.594C571.371 202.964 568.605 200.05 562.731 202.03C560.544 202.77 557.966 203.269 555.862 202C553.089 200.332 553.653 197.024 555.639 195.12Z" fill="#B96B6B"/>
<path opacity="0.05" d="M595.031 226.847H587.019C587.019 226.847 571.252 233.492 570.862 233.163C570.597 232.94 568.159 233.322 566.612 233.598C566.854 232.857 567.022 232.1 567.114 231.336C572.235 231.001 584.852 223.698 584.852 223.698L594.704 222.37V226.688C594.82 226.73 594.93 226.783 595.031 226.847Z" fill="black"/>
<path opacity="0.3" d="M590.078 421.85C590.054 423.061 589.889 424.268 589.583 425.452C589.583 425.452 556.837 427.443 546.623 426.78C541.697 426.462 539.6 424.911 539.224 423.425C538.778 425.129 540.562 427.385 546.623 427.778C556.872 428.442 589.583 426.45 589.583 426.45C589.967 424.939 590.133 423.395 590.078 421.85Z" fill="#F5F9E9"/>
<g opacity="0.05">
<path opacity="0.05" d="M546.818 298.156C541.502 301.681 536.8 303.156 533.713 303.744C533.713 303.99 533.769 304.237 533.811 304.472C533.811 304.472 541.3 304.807 550.762 298.491C552.227 297.432 553.959 296.669 555.827 296.259C553.786 295.43 550.818 295.483 546.818 298.156Z" fill="black"/>
<path opacity="0.05" d="M600.305 235.836C598.912 232.311 596.822 227.905 595.226 226.859C595.128 226.793 595.02 226.738 594.906 226.694C594.906 226.694 591.645 226.788 591.75 226.859C593.373 227.905 594.948 232.006 596.362 235.501C597.502 238.335 597.796 241.362 597.219 244.315C595.826 251.447 592.802 266.106 589.381 278.856C584.65 296.482 579.529 292.481 577.161 296.805C575.224 300.33 576.192 304.995 576.61 306.564C578.296 307.151 579.759 307.522 580.707 307.439C580.707 307.439 578.735 301.458 581.104 297.134C583.473 292.81 588.594 296.799 593.324 279.185C596.745 266.441 599.755 251.776 601.162 244.644C601.738 241.693 601.444 238.668 600.305 235.836Z" fill="black"/>
</g>
<path d="M198.014 420.616C198.014 420.616 188.957 421.145 183.313 412.978C182.219 411.329 180.925 409.78 179.453 408.354C177.646 405.856 176.707 402.979 176.743 400.053C177.057 393.989 169.553 360.758 169.553 360.758C169.553 360.758 170.494 348.097 162.983 340.195C158.043 334.989 150.937 320.066 146.652 310.477C146.94 310.693 147.287 310.847 147.662 310.924L147.488 310.095L147.662 310.13L145.475 299.843C142.25 296.715 139.532 293.239 137.393 289.508L137.894 289.42L144.534 288.245C144.534 288.245 155.326 275.319 155.988 268.95L156.866 268.985H158.106C171.838 268.733 188.002 270.307 188.002 270.307C188.002 270.266 187.926 270.102 187.842 269.843C187.422 268.563 187.099 267.262 186.873 265.948L187.494 265.912L193.639 265.566C193.639 265.566 214.902 245.525 207.085 241.829C199.268 238.134 191.137 258.445 191.137 258.445L188.511 258.85L187.814 258.962C187.884 258.874 187.953 258.792 188.037 258.709C188.121 258.627 153.32 257.393 148.004 250.272C148.004 250.272 132.676 239.985 132.056 233.128C131.721 229.491 129.018 227.558 126.545 226.548C124.653 225.788 122.559 225.457 120.469 225.59L113.293 226.007L113.802 226.771H113.6C113.15 225.901 112.773 225.006 112.471 224.092H112.617C112.569 223.904 112.52 223.716 112.478 223.504C114.677 223.067 116.75 222.261 118.573 221.136C120.396 220.01 121.933 218.588 123.093 216.953C124.253 215.317 125.011 213.502 125.324 211.615C125.637 209.728 125.498 207.807 124.914 205.966C125.61 206.042 126.315 206.026 127.005 205.919C129.638 205.461 131.512 203.205 131.582 200.937C131.582 200.79 131.582 200.643 131.582 200.496C131.582 200.496 131.582 200.438 131.582 200.408C131.556 199.272 131.23 198.155 130.627 197.139C130.025 196.122 129.161 195.232 128.098 194.533C126.663 193.528 124.956 192.811 123.653 191.695C122.107 190.361 121.264 188.575 120.058 186.995C118.049 184.396 115.067 182.437 111.586 181.431C108.994 180.691 105.824 180.608 103.839 182.195C102.815 183.011 102.222 184.181 101.052 184.868C99.4006 185.861 97.1572 185.567 95.1367 185.767C91.472 186.131 88.2532 188.334 86.6368 191.137C85.6456 192.907 85.1679 194.85 85.2433 196.807C85.2213 198.15 85.411 199.489 85.8077 200.79C86.1978 202.089 86.7761 203.34 87.2011 204.627C88.079 207.306 88.281 210.126 89.2913 212.776C89.9757 214.736 91.3392 216.479 93.2068 217.782L92.9072 218.874C92.7121 218.91 87.8421 219.791 84.47 225.995C81.8085 230.884 72.8069 235.936 68.8496 237.975C68.1113 238.356 67.4704 238.857 66.9644 239.449C66.4584 240.042 66.0974 240.713 65.9025 241.424C65.5224 242.862 65.354 244.334 65.4008 245.807C65.3312 248.986 66.0976 253.38 69.1492 258.956C76.0327 271.617 81.0352 277.17 81.0352 277.17C81.0352 277.17 81.4184 281.047 81.4393 285.137C81.4393 288.18 81.1745 291.212 80.4081 292.728C79.7602 294.008 79.5581 297.281 79.5721 301.012C79.5721 308.174 80.4081 317.522 80.4081 317.522C80.4081 317.522 82.7979 317.903 86.5044 318.362L88.8105 352.55C89.1002 356.69 87.525 360.77 84.4003 363.972C82.7766 365.652 80.9033 367.149 78.8266 368.426C72.2565 372.38 58.1829 414.054 58.1829 414.054C58.1829 414.054 58.8796 414.089 60.0082 414.165L55.6816 424.341C55.6816 424.341 72.9602 435.504 83.4806 432.455C84.6044 432.147 85.7831 432.006 86.9642 432.038C89.0544 432.038 93.4785 430.657 91.0052 428.83C86.5114 425.516 81.1257 420.499 77.5237 417.009C77.8634 417.148 78.1895 417.309 78.4991 417.491V417.408L78.6454 417.491C78.6454 417.491 78.6803 417.079 78.7569 416.415L78.6036 416.374C78.9241 413.631 79.9274 406.733 81.927 405.887C84.4282 404.829 102.877 373.978 102.877 373.978L121.326 333.89C121.326 333.89 136.027 355.253 148.533 358.943V367.856C148.533 367.856 155.417 394.23 157.918 397.133C160.419 400.035 157.918 411.639 157.918 411.639C158.412 412.117 158.979 412.537 159.604 412.89L157.604 422.449C157.604 422.449 171.992 421.921 196.384 428.254C196.446 428.266 205.831 424.847 198.014 420.616ZM140.465 282.663L137.42 283.304L136.821 283.433C136.759 283.116 136.717 282.928 136.717 282.928C136.02 283.192 135.271 283.345 134.508 283.38C133.429 280.496 132.806 277.506 132.655 274.485C132.655 274.485 130.885 268.392 130.788 263.468C130.823 261.547 131.164 259.873 132.028 258.927L133.045 258.997L133.742 259.585L133.791 259.626L134.153 259.902L134.529 260.19L134.592 260.237L135.003 260.537L135.073 260.589L135.491 260.889L135.532 260.918L135.999 261.242L136.104 261.312L136.598 261.647H136.64L137.128 261.97L137.239 262.041L137.776 262.387L137.887 262.458L138.403 262.775L138.493 262.828L139.079 263.18L139.218 263.263L139.831 263.621L139.887 263.65L140.486 263.985L140.632 264.068L141.28 264.414L141.42 264.485L142.026 264.796L142.137 264.855L142.834 265.196L143.001 265.278L143.698 265.619H143.754L144.45 265.93L144.625 266.007L145.363 266.318L145.516 266.377L146.213 266.647L146.345 266.7L147.119 266.982L147.307 267.046L148.115 267.317C143.029 271.894 140.465 282.663 140.465 282.663Z" fill="url(#paint1_linear)"/>
<path d="M63.3316 407.878L57.5279 421.527C57.5279 421.527 73.42 431.803 83.7454 429.676C85.3006 429.35 86.8853 429.134 88.483 429.03C90.622 428.895 94.3006 427.584 92.0293 425.91C84.6999 420.505 74.9319 410.464 74.9319 410.464L63.3316 407.878Z" fill="#4F4D59"/>
<path d="M159.813 406.586L157.068 419.717C157.068 419.717 171.114 419.2 194.928 425.381C194.928 425.381 204.089 422.032 196.453 417.914C196.453 417.914 187.598 418.431 182.101 410.446C176.604 402.461 173.246 403.495 173.246 403.495L159.813 406.586Z" fill="#4F4D59"/>
<path d="M87.1454 311.323L89.8347 351.275C90.1228 355.534 88.4477 359.721 85.1597 362.961C83.6733 364.449 81.9797 365.781 80.1155 366.927C73.7057 370.787 59.9664 411.468 59.9664 411.468C59.9664 411.468 75.5381 412.238 79.8089 414.817C79.8089 414.817 80.7216 404.518 83.1671 403.49C85.6126 402.461 103.623 372.35 103.623 372.35L121.647 333.191C121.647 333.191 135.999 354.049 148.213 357.65V366.404C148.213 366.404 154.929 392.15 157.374 394.982C159.82 397.814 157.374 409.142 157.374 409.142C157.374 409.142 164.397 416.609 180.575 408.625C180.575 408.625 175.385 403.73 175.698 397.808C176.012 391.886 168.675 359.448 168.675 359.448C168.675 359.448 169.588 347.11 162.265 339.366C154.943 331.622 142.723 302.052 142.723 302.052L134.32 286.805L87.1454 311.323Z" fill="#787C9C"/>
<g opacity="0.1">
<path opacity="0.1" d="M62.8718 411.48C62.8718 411.48 76.611 370.799 83.0208 366.939C84.9913 365.724 86.7727 364.305 88.3228 362.715C91.4593 359.518 93.036 355.434 92.7331 351.293L90.0437 311.341L135.059 287.921L134.446 286.811L87.2847 311.323L89.9741 351.275C90.2884 355.418 88.7215 359.505 85.5917 362.709C84.0416 364.299 82.2602 365.718 80.2897 366.933C73.8799 370.793 60.1406 411.474 60.1406 411.474C60.1406 411.474 75.7123 412.244 79.9831 414.823C79.9831 414.823 80.018 414.424 80.0946 413.771C74.075 412.038 62.8718 411.48 62.8718 411.48Z" fill="black"/>
<path opacity="0.1" d="M160.273 409.165C160.273 409.165 162.718 397.837 160.273 395.005C157.827 392.174 151.083 366.422 151.083 366.422V357.668C138.898 354.066 124.545 333.191 124.545 333.191L123.479 335.541C127.618 341.076 138.661 354.818 148.359 357.679V366.434C148.359 366.434 155.075 392.179 157.521 395.011C159.966 397.843 157.521 409.171 157.521 409.171C157.521 409.171 160.928 412.784 168.452 412.297C162.844 411.921 160.273 409.165 160.273 409.165Z" fill="black"/>
</g>
<path d="M192.189 266.523L186.191 266.858L183.028 267.035V260.572L187.208 259.937L189.779 259.544C189.779 259.544 197.714 239.72 205.35 243.322C212.986 246.923 192.189 266.523 192.189 266.523Z" fill="#714B4F"/>
<path d="M96.0006 213.487C96.0006 213.487 92.0294 226.359 90.8101 234.344C89.5909 242.329 119.201 235.889 119.201 235.889C119.201 235.889 107.908 224.303 114.324 218.122L96.0006 213.487Z" fill="#714B4F"/>
<path d="M128.091 267.04L128.705 271.935L119.243 271.417L109.74 264.449L100.278 242.064L94.1753 234.086L89.5909 229.197L91.4232 223.275C91.4232 223.275 92.2593 223.862 93.6736 224.802C98.3207 227.805 109.231 234.039 117.202 232.317C117.571 232.24 117.933 232.143 118.289 232.029L130.182 249.273L128.091 267.04Z" fill="#E6E6F0"/>
<path opacity="0.1" d="M93.8617 221.724C93.8617 221.724 88.9847 222.494 85.6196 228.674C83.0347 233.428 74.3188 238.328 70.4242 240.343C69.6817 240.726 69.0377 241.23 68.5303 241.827C68.0229 242.423 67.6624 243.099 67.4701 243.815C66.6828 246.753 66.3832 252.217 70.6611 260.09C77.3774 272.428 82.2614 277.857 82.2614 277.857C82.2614 277.857 83.4807 290.195 81.6483 293.82C79.8159 297.445 81.6483 317.251 81.6483 317.251C81.6483 317.251 113.697 322.398 124.392 317.251C135.086 312.104 133.554 292.275 133.554 292.275C133.554 292.275 143.628 310.277 147.293 310.812L145.154 300.771C145.154 300.771 133.247 289.954 132.613 276.053C132.613 276.053 128.948 263.439 132 260.09C132 260.09 183.599 263.697 186.651 260.607C186.651 260.607 152.762 259.32 147.572 252.381C147.572 252.381 132.613 242.34 132 235.648C131.911 234.393 131.443 233.178 130.643 232.117C129.842 231.056 128.733 230.185 127.423 229.585C125.346 228.589 122.963 228.141 120.581 228.298L113.683 228.698C113.683 228.698 125.59 246.465 124.977 248.78C124.364 251.095 125.59 269.89 125.59 269.89C125.59 269.89 111.879 244.896 105.797 242.064C99.7142 239.232 92.6704 227.605 92.6704 227.605L93.8896 221.73" fill="black"/>
<path opacity="0.1" d="M128.091 267.04L128.705 271.935L119.243 271.417L109.74 264.449L100.278 242.064L94.1753 234.086L89.5909 229.197L91.4232 223.275C91.4232 223.275 92.2593 223.862 93.6736 224.802L93.2556 226.847C93.2556 226.847 100.278 238.474 106.382 241.306C112.485 244.138 126.224 269.114 126.224 269.114C126.224 269.114 125.005 250.313 125.611 248.004C126.029 246.43 120.678 237.752 117.202 232.329C117.571 232.251 117.933 232.155 118.289 232.041L130.182 249.273L128.091 267.04Z" fill="black"/>
<path opacity="0.1" d="M186.177 266.864L183.014 267.04V260.577L187.194 259.943C185.724 261.582 185.773 264.449 186.177 266.864Z" fill="black"/>
<path d="M93.8617 220.972C93.8617 220.972 88.9847 221.742 85.6196 227.922C83.0347 232.676 74.3188 237.576 70.4242 239.591C69.6817 239.974 69.0377 240.479 68.5303 241.075C68.0229 241.671 67.6624 242.347 67.4701 243.063C66.6828 246.001 66.3832 251.465 70.6611 259.338C77.3774 271.676 82.2614 277.105 82.2614 277.105C82.2614 277.105 83.4807 289.443 81.6483 293.068C79.8159 296.693 81.6483 316.499 81.6483 316.499C81.6483 316.499 113.697 321.646 124.392 316.499C135.086 311.352 133.554 291.476 133.554 291.476C133.554 291.476 143.628 309.502 147.293 310.013L145.154 299.972C145.154 299.972 133.247 289.155 132.613 275.254C132.613 275.254 128.948 262.64 132 259.291C132 259.291 143.907 270.107 157.34 269.867C170.772 269.626 186.651 271.153 186.651 271.153C186.651 271.153 183.599 262.928 186.651 259.826C186.651 259.826 152.762 258.539 147.572 251.6C147.572 251.6 132.613 241.559 132 234.867C131.911 233.612 131.443 232.396 130.643 231.336C129.842 230.275 128.733 229.403 127.423 228.804C125.346 227.808 122.963 227.36 120.581 227.517L113.683 227.917C113.683 227.917 125.618 245.648 125.005 247.999C124.392 250.349 125.618 269.109 125.618 269.109C125.618 269.109 111.879 244.127 105.797 241.295C99.7142 238.463 92.6425 226.847 92.6425 226.847L93.8617 220.972Z" fill="#787C9C"/>
<path opacity="0.1" d="M87.1454 247.999C87.1454 247.999 94.4748 268.856 98.7457 271.429C103.017 274.003 128.969 287.134 136.605 284.044C136.605 284.044 138.438 291.77 135.693 293.568C135.693 293.568 107.225 292.628 106.995 292.54C106.995 292.54 88.3716 290.477 85.32 282.757C82.2683 275.037 78.6036 261.9 78.6036 261.9L87.1454 247.999Z" fill="black"/>
<path d="M126.231 271.547C126.82 271.547 127.297 270.971 127.297 270.26C127.297 269.55 126.82 268.974 126.231 268.974C125.642 268.974 125.165 269.55 125.165 270.26C125.165 270.971 125.642 271.547 126.231 271.547Z" fill="#BA7855"/>
<path d="M129.283 280.56C129.872 280.56 130.349 279.984 130.349 279.273C130.349 278.562 129.872 277.986 129.283 277.986C128.694 277.986 128.217 278.562 128.217 279.273C128.217 279.984 128.694 280.56 129.283 280.56Z" fill="#BA7855"/>
<g opacity="0.1">
<path opacity="0.1" d="M83.7872 316.217C83.7872 316.217 81.9548 296.394 83.7872 292.786C85.6196 289.179 84.4003 276.823 84.4003 276.823C84.4003 276.823 79.5233 271.418 72.8 259.056C68.5221 251.183 68.8287 245.719 69.609 242.781C69.8022 242.065 70.1638 241.388 70.6724 240.792C71.181 240.196 71.8263 239.691 72.5701 239.309C76.4647 237.294 85.1806 232.393 87.7585 227.64C89.6536 224.156 92.0294 222.388 93.7503 221.512L93.8687 220.925C93.8687 220.925 88.9917 221.694 85.6265 227.875C83.0417 232.628 74.3258 237.529 70.4381 239.544C69.6943 239.926 69.049 240.431 68.5404 241.027C68.0318 241.623 67.6702 242.3 67.4771 243.016C66.6898 245.954 66.3902 251.418 70.668 259.291C77.3844 271.629 82.2684 277.058 82.2684 277.058C82.2684 277.058 83.4876 289.396 81.6553 293.021C79.8229 296.646 81.6553 316.452 81.6553 316.452C81.6553 316.452 104.556 320.13 118.101 318.162C104.403 319.531 83.7872 316.217 83.7872 316.217Z" fill="black"/>
<path opacity="0.1" d="M125.005 247.998C124.587 249.585 125.005 258.915 125.346 264.626C126.823 267.17 127.75 268.85 127.75 268.85C127.75 268.85 126.531 250.049 127.137 247.74C127.715 245.537 116.993 229.379 115.927 227.764L113.704 227.893C113.704 227.893 125.618 245.648 125.005 247.998Z" fill="black"/>
<path opacity="0.1" d="M159.506 269.614C146.074 269.872 134.167 259.038 134.167 259.038C133.807 259.459 133.544 259.933 133.393 260.436C136.877 263.204 146.631 270.06 157.368 269.837C170.8 269.578 186.678 271.124 186.678 271.124C186.678 271.124 186.616 270.953 186.518 270.66C177.544 269.888 168.526 269.539 159.506 269.614Z" fill="black"/>
<path opacity="0.1" d="M135.693 291.241C135.693 291.241 135.818 292.851 135.748 295.265C138.925 300.553 144.708 309.672 147.293 310.036L146.84 307.921C142.381 303.226 135.693 291.241 135.693 291.241Z" fill="black"/>
</g>
<path d="M144.241 288.668L137.755 289.843L132.641 290.753L135.386 284.29L137.295 283.885L140.27 283.262C140.27 283.262 144.548 265.237 153.097 266.529C161.645 267.822 144.241 288.668 144.241 288.668Z" fill="#714B4F"/>
<path opacity="0.1" d="M137.755 289.819L132.641 290.73L135.386 284.267L137.295 283.861C137.722 285.825 137.876 287.825 137.755 289.819Z" fill="black"/>
<path d="M87.1454 247.47C87.1454 247.47 94.4748 268.327 98.7457 270.901C103.017 273.474 128.969 286.605 136.605 283.515C136.605 283.515 138.438 291.241 135.693 293.039C135.693 293.039 107.225 292.099 106.995 292.011C106.995 292.011 88.3716 289.948 85.32 282.228C82.2683 274.508 78.6036 261.371 78.6036 261.371L87.1454 247.47Z" fill="#787C9C"/>
<path opacity="0.1" d="M96.3072 214.004C96.3072 214.004 95.6871 216.019 94.858 218.951C96.5519 221.648 99.252 223.801 102.541 225.075C105.83 226.349 109.526 226.675 113.056 226.001C112.325 223.357 112.485 220.713 114.631 218.616L96.3072 214.004Z" fill="black"/>
<path d="M109.134 225.842C118.238 225.842 125.618 219.619 125.618 211.941C125.618 204.264 118.238 198.04 109.134 198.04C100.03 198.04 92.6494 204.264 92.6494 211.941C92.6494 219.619 100.03 225.842 109.134 225.842Z" fill="#714B4F"/>
<path opacity="0.1" d="M123.444 208.117C124.641 208.397 125.895 208.461 127.123 208.305C129.694 207.858 131.526 205.655 131.589 203.44C131.563 202.33 131.245 201.239 130.657 200.246C130.069 199.253 129.226 198.383 128.189 197.7C126.796 196.718 125.123 196.019 123.848 194.926C122.337 193.628 121.514 191.877 120.365 190.35C118.395 187.809 115.474 185.898 112.067 184.921C109.538 184.198 106.444 184.116 104.501 185.667C103.504 186.46 102.919 187.606 101.804 188.276C100.188 189.245 98.0002 188.957 96.0285 189.151C94.2414 189.383 92.5494 189.982 91.1022 190.896C89.6549 191.81 88.497 193.011 87.7306 194.392C86.2334 197.19 85.9474 200.342 86.9224 203.299C87.3056 204.562 87.863 205.79 88.2741 207.047C89.131 209.668 89.3331 212.417 90.3224 215.003C91.3117 217.588 93.3531 220.114 96.4396 220.878C96.1954 217.98 96.8737 215.079 98.4043 212.476C98.6577 211.909 99.1553 211.443 99.7978 211.172C100.349 211.053 100.926 211.053 101.477 211.172C105.342 211.655 109.286 210.982 112.624 209.268C113.795 208.681 115.62 206.618 116.874 206.413C118.477 206.172 121.772 207.799 123.444 208.117Z" fill="black"/>
<path d="M123.444 207.6C124.641 207.88 125.895 207.944 127.123 207.788C129.694 207.341 131.526 205.138 131.589 202.923C131.563 201.813 131.245 200.722 130.657 199.729C130.069 198.736 129.226 197.866 128.189 197.183C126.796 196.201 125.123 195.502 123.848 194.409C122.337 193.111 121.514 191.36 120.365 189.832C118.395 187.292 115.474 185.381 112.067 184.404C109.538 183.681 106.444 183.599 104.501 185.15C103.504 185.943 102.919 187.089 101.804 187.758C100.188 188.728 98.0002 188.44 96.0285 188.634C94.2414 188.866 92.5494 189.465 91.1022 190.379C89.6549 191.293 88.497 192.494 87.7306 193.875C86.2401 196.666 85.9542 199.808 86.9224 202.758C87.3056 204.021 87.863 205.249 88.2741 206.507C89.131 209.127 89.3331 211.877 90.3224 214.462C91.3117 217.047 93.3531 219.574 96.4396 220.337C96.1954 217.439 96.8737 214.539 98.4043 211.936C98.6577 211.368 99.1553 210.903 99.7978 210.631C100.349 210.512 100.926 210.512 101.477 210.631C105.342 211.115 109.286 210.441 112.624 208.728C113.795 208.14 115.62 206.078 116.874 205.872C118.477 205.655 121.772 207.288 123.444 207.6Z" fill="#503F43"/>
<path d="M517.717 63.3599H157.688V426.456H517.717V63.3599Z" fill="#F5F9E9"/>
<path d="M517.717 63.3599H157.688V75.6687H517.717V63.3599Z" fill="#7983A6"/>
<path d="M206.34 211.319H469.065" stroke="#7983A6" stroke-miterlimit="10"/>
<g opacity="0.5">
<path opacity="0.5" d="M206.34 187.212H210.52" stroke="#7983A6" stroke-miterlimit="10"/>
<path opacity="0.5" d="M218.727 187.212H460.781" stroke="#7983A6" stroke-miterlimit="10" stroke-dasharray="11.78 11.78"/>
<path opacity="0.5" d="M464.884 187.212H469.065" stroke="#7983A6" stroke-miterlimit="10"/>
</g>
<g opacity="0.5">
<path opacity="0.5" d="M206.34 163.111H210.52" stroke="#7983A6" stroke-miterlimit="10"/>
<path opacity="0.5" d="M218.727 163.111H460.781" stroke="#7983A6" stroke-miterlimit="10" stroke-dasharray="11.78 11.78"/>
<path opacity="0.5" d="M464.884 163.111H469.065" stroke="#7983A6" stroke-miterlimit="10"/>
</g>
<g opacity="0.5">
<path opacity="0.5" d="M206.34 139.005H210.52" stroke="#7983A6" stroke-miterlimit="10"/>
<path opacity="0.5" d="M218.727 139.005H460.781" stroke="#7983A6" stroke-miterlimit="10" stroke-dasharray="11.78 11.78"/>
<path opacity="0.5" d="M464.884 139.005H469.065" stroke="#7983A6" stroke-miterlimit="10"/>
</g>
<g opacity="0.5">
<path opacity="0.5" d="M206.34 114.904H210.52" stroke="#7983A6" stroke-miterlimit="10"/>
<path opacity="0.5" d="M218.727 114.904H460.781" stroke="#7983A6" stroke-miterlimit="10" stroke-dasharray="11.78 11.78"/>
<path opacity="0.5" d="M464.884 114.904H469.065" stroke="#7983A6" stroke-miterlimit="10"/>
</g>
<g opacity="0.3">
<path opacity="0.3" d="M238.27 163.111H219.417V211.319H238.27V163.111Z" fill="#5BC0EB"/>
</g>
<path d="M290.872 138.746H272.019V211.571H290.872V138.746Z" fill="#5BC0EB"/>
<g opacity="0.3">
<path opacity="0.3" d="M343.482 186.954H324.628V211.824H343.482V186.954Z" fill="#5BC0EB"/>
</g>
<path d="M396.084 114.135H377.23V211.577H396.084V114.135Z" fill="#5BC0EB"/>
<g opacity="0.3">
<path opacity="0.3" d="M448.686 137.724H429.833V211.319H448.686V137.724Z" fill="#5BC0EB"/>
</g>
<path d="M228.844 226.442C231.529 226.442 233.707 224.606 233.707 222.341C233.707 220.076 231.529 218.24 228.844 218.24C226.158 218.24 223.981 220.076 223.981 222.341C223.981 224.606 226.158 226.442 228.844 226.442Z" fill="#5BC0EB"/>
<path d="M281.752 226.442C284.438 226.442 286.615 224.606 286.615 222.341C286.615 220.076 284.438 218.24 281.752 218.24C279.067 218.24 276.889 220.076 276.889 222.341C276.889 224.606 279.067 226.442 281.752 226.442Z" fill="#5BC0EB"/>
<path d="M334.661 226.442C337.347 226.442 339.524 224.606 339.524 222.341C339.524 220.076 337.347 218.24 334.661 218.24C331.975 218.24 329.798 220.076 329.798 222.341C329.798 224.606 331.975 226.442 334.661 226.442Z" fill="#5BC0EB"/>
<path d="M387.57 226.442C390.256 226.442 392.433 224.606 392.433 222.341C392.433 220.076 390.256 218.24 387.57 218.24C384.884 218.24 382.707 220.076 382.707 222.341C382.707 224.606 384.884 226.442 387.57 226.442Z" fill="#5BC0EB"/>
<path d="M440.478 226.442C443.164 226.442 445.342 224.606 445.342 222.341C445.342 220.076 443.164 218.24 440.478 218.24C437.793 218.24 435.615 220.076 435.615 222.341C435.615 224.606 437.793 226.442 440.478 226.442Z" fill="#5BC0EB"/>
<path d="M206.34 366.199H469.065" stroke="#7983A6" stroke-miterlimit="10"/>
<g opacity="0.5">
<path opacity="0.5" d="M206.34 342.092H210.52" stroke="#7983A6" stroke-miterlimit="10"/>
<path opacity="0.5" d="M218.727 342.092H460.781" stroke="#7983A6" stroke-miterlimit="10" stroke-dasharray="11.78 11.78"/>
<path opacity="0.5" d="M464.884 342.092H469.065" stroke="#7983A6" stroke-miterlimit="10"/>
</g>
<g opacity="0.5">
<path opacity="0.5" d="M206.34 317.991H210.52" stroke="#7983A6" stroke-miterlimit="10"/>
<path opacity="0.5" d="M218.727 317.991H460.781" stroke="#7983A6" stroke-miterlimit="10" stroke-dasharray="11.78 11.78"/>
<path opacity="0.5" d="M464.884 317.991H469.065" stroke="#7983A6" stroke-miterlimit="10"/>
</g>
<g opacity="0.5">
<path opacity="0.5" d="M206.34 293.885H210.52" stroke="#7983A6" stroke-miterlimit="10"/>
<path opacity="0.5" d="M218.727 293.885H460.781" stroke="#7983A6" stroke-miterlimit="10" stroke-dasharray="11.78 11.78"/>
<path opacity="0.5" d="M464.884 293.885H469.065" stroke="#7983A6" stroke-miterlimit="10"/>
</g>
<g opacity="0.5">
<path opacity="0.5" d="M206.34 269.784H210.52" stroke="#7983A6" stroke-miterlimit="10"/>
<path opacity="0.5" d="M218.727 269.784H460.781" stroke="#7983A6" stroke-miterlimit="10" stroke-dasharray="11.78 11.78"/>
<path opacity="0.5" d="M464.884 269.784H469.065" stroke="#7983A6" stroke-miterlimit="10"/>
</g>
<path d="M238.27 317.991H219.417V366.198H238.27V317.991Z" fill="#5BC0EB"/>
<path d="M290.872 317.733H272.019V366.451H290.872V317.733Z" fill="#5BC0EB"/>
<path d="M343.482 341.839H324.628V366.71H343.482V341.839Z" fill="#5BC0EB"/>
<path d="M396.084 269.015H377.23V366.457H396.084V269.015Z" fill="#5BC0EB"/>
<path d="M520.448 211.524H501.594V285.119H520.448V211.524Z" fill="#5BC0EB"/>
<g opacity="0.7">
<path opacity="0.7" d="M228.844 381.322C231.529 381.322 233.707 379.486 233.707 377.221C233.707 374.956 231.529 373.12 228.844 373.12C226.158 373.12 223.981 374.956 223.981 377.221C223.981 379.486 226.158 381.322 228.844 381.322Z" fill="#5BC0EB"/>
</g>
<g opacity="0.7">
<path opacity="0.7" d="M281.752 381.322C284.438 381.322 286.615 379.486 286.615 377.221C286.615 374.956 284.438 373.12 281.752 373.12C279.067 373.12 276.889 374.956 276.889 377.221C276.889 379.486 279.067 381.322 281.752 381.322Z" fill="#5BC0EB"/>
</g>
<g opacity="0.7">
<path opacity="0.7" d="M334.661 381.322C337.347 381.322 339.524 379.486 339.524 377.221C339.524 374.956 337.347 373.12 334.661 373.12C331.975 373.12 329.798 374.956 329.798 377.221C329.798 379.486 331.975 381.322 334.661 381.322Z" fill="#5BC0EB"/>
</g>
<g opacity="0.7">
<path opacity="0.7" d="M387.57 381.322C390.256 381.322 392.433 379.486 392.433 377.221C392.433 374.956 390.256 373.12 387.57 373.12C384.884 373.12 382.707 374.956 382.707 377.221C382.707 379.486 384.884 381.322 387.57 381.322Z" fill="#5BC0EB"/>
</g>
<g opacity="0.7">
<path opacity="0.7" d="M440.478 381.322C443.164 381.322 445.342 379.486 445.342 377.221C445.342 374.956 443.164 373.12 440.478 373.12C437.793 373.12 435.615 374.956 435.615 377.221C435.615 379.486 437.793 381.322 440.478 381.322Z" fill="#5BC0EB"/>
</g>
<path d="M131.018 425.128C132.295 424.25 133.225 423.066 133.686 421.732C134.034 420.381 133.352 418.765 131.819 418.272C130.105 417.719 128.273 418.718 126.886 419.735C125.5 420.751 123.904 421.903 122.086 421.685C123.02 420.971 123.72 420.064 124.115 419.054C124.511 418.044 124.589 416.965 124.343 415.922C124.264 415.489 124.048 415.083 123.716 414.747C122.762 413.889 121.041 414.259 119.898 414.935C116.275 417.085 115.265 421.233 115.244 424.97C114.882 423.624 115.188 422.22 115.174 420.857C115.16 419.494 114.714 417.919 113.335 417.202C112.48 416.815 111.519 416.622 110.548 416.644C108.918 416.591 107.106 416.732 105.992 417.737C104.598 418.983 104.967 421.08 106.173 422.437C107.378 423.795 109.203 424.67 110.89 425.622C112.241 426.299 113.393 427.225 114.262 428.33C114.364 428.484 114.448 428.645 114.512 428.812H124.719C127.006 427.829 129.125 426.59 131.018 425.128Z" fill="#5BC0EB"/>
<path d="M627.08 418.078C628.357 417.2 629.288 416.016 629.749 414.682C630.097 413.331 629.414 411.715 627.881 411.221C626.168 410.669 624.335 411.668 622.949 412.684C621.562 413.701 619.967 414.852 618.148 414.635C619.083 413.921 619.782 413.014 620.178 412.004C620.573 410.994 620.652 409.915 620.406 408.871C620.327 408.439 620.11 408.033 619.779 407.696C618.824 406.838 617.103 407.209 615.961 407.884C612.338 410.035 611.327 414.183 611.307 417.919C610.944 416.574 611.251 415.17 611.237 413.807C611.223 412.444 610.777 410.869 609.398 410.152C608.542 409.765 607.581 409.572 606.611 409.594C604.98 409.541 603.169 409.682 602.054 410.687C600.661 411.932 601.03 414.03 602.235 415.387C603.441 416.744 605.266 417.62 606.952 418.571C608.303 419.249 609.456 420.175 610.324 421.28C610.426 421.433 610.51 421.595 610.575 421.762H620.782C623.069 420.779 625.188 419.54 627.08 418.078Z" fill="#5BC0EB"/>
<path d="M554.9 275.883L549.807 275.383L510.791 271.558C487.11 265.248 502.089 255.636 502.089 255.636L517.856 268.268C522.405 269.038 540.241 267.246 548.233 266.382C550.629 266.118 552.141 265.942 552.141 265.942L554.9 275.883Z" fill="#FDC2CC"/>
<path d="M593.129 230.373C593.129 230.373 582.88 223.393 567.511 245.995C552.141 268.598 548.595 264.937 548.595 264.937C548.595 264.937 551.751 274.925 550.17 276.905C550.17 276.905 560.808 276.241 564.752 276.905C568.695 277.569 593.129 251.641 593.129 251.641C593.129 251.641 605.747 237 593.129 230.373Z" fill="#F68080"/>
</g>
<defs>
<linearGradient id="paint0_linear" x1="545.69" y1="430.081" x2="545.69" y2="183.652" gradientUnits="userSpaceOnUse">
<stop stop-color="#808080" stop-opacity="0.25"/>
<stop offset="0.54" stop-color="#808080" stop-opacity="0.12"/>
<stop offset="1" stop-color="#808080" stop-opacity="0.1"/>
</linearGradient>
<linearGradient id="paint1_linear" x1="46604.2" y1="203038" x2="46604.2" y2="94913.2" gradientUnits="userSpaceOnUse">
<stop stop-color="#808080" stop-opacity="0.25"/>
<stop offset="0.54" stop-color="#808080" stop-opacity="0.12"/>
<stop offset="1" stop-color="#808080" stop-opacity="0.1"/>
</linearGradient>
<clipPath id="clip0">
<rect width="677" height="449" fill="white"/>
</clipPath>
</defs>
</svg>
