<svg width="752" height="419" viewBox="0 0 752 419" fill="none" xmlns="http://www.w3.org/2000/svg">
<path d="M751.001 418.907H0.998575C0.734239 418.906 0.480996 418.792 0.294352 418.589C0.107708 418.387 0.00289154 418.113 0.00289154 417.827C0.00289154 417.542 0.107708 417.268 0.294352 417.065C0.480996 416.863 0.734239 416.749 0.998575 416.748H751.001C751.266 416.749 751.519 416.863 751.706 417.065C751.892 417.268 751.997 417.542 751.997 417.827C751.997 418.113 751.892 418.387 751.706 418.589C751.519 418.792 751.266 418.906 751.001 418.907Z" fill="#3F3D56"/>
<path d="M235.119 52.0697C238.115 52.0697 240.543 49.4454 240.543 46.2081C240.543 42.9709 238.115 40.3466 235.119 40.3466C232.124 40.3466 229.696 42.9709 229.696 46.2081C229.696 49.4454 232.124 52.0697 235.119 52.0697Z" fill="#F5F9E9"/>
<path d="M213.504 52.0697C216.5 52.0697 218.928 49.4454 218.928 46.2081C218.928 42.9709 216.5 40.3466 213.504 40.3466C210.509 40.3466 208.081 42.9709 208.081 46.2081C208.081 49.4454 210.509 52.0697 213.504 52.0697Z" fill="#F5F9E9"/>
<path d="M191.889 52.0697C194.885 52.0697 197.313 49.4454 197.313 46.2081C197.313 42.9709 194.885 40.3466 191.889 40.3466C188.894 40.3466 186.466 42.9709 186.466 46.2081C186.466 49.4454 188.894 52.0697 191.889 52.0697Z" fill="#F5F9E9"/>
<path d="M170.275 52.0697C173.27 52.0697 175.698 49.4454 175.698 46.2081C175.698 42.9709 173.27 40.3466 170.275 40.3466C167.279 40.3466 164.851 42.9709 164.851 46.2081C164.851 49.4454 167.279 52.0697 170.275 52.0697Z" fill="#F5F9E9"/>
<path d="M235.119 76.5423C238.115 76.5423 240.543 73.918 240.543 70.6808C240.543 67.4435 238.115 64.8192 235.119 64.8192C232.124 64.8192 229.696 67.4435 229.696 70.6808C229.696 73.918 232.124 76.5423 235.119 76.5423Z" fill="#F5F9E9"/>
<path d="M213.504 76.5423C216.5 76.5423 218.928 73.918 218.928 70.6808C218.928 67.4435 216.5 64.8192 213.504 64.8192C210.509 64.8192 208.081 67.4435 208.081 70.6808C208.081 73.918 210.509 76.5423 213.504 76.5423Z" fill="#F5F9E9"/>
<path d="M191.889 76.5423C194.885 76.5423 197.313 73.918 197.313 70.6808C197.313 67.4435 194.885 64.8192 191.889 64.8192C188.894 64.8192 186.466 67.4435 186.466 70.6808C186.466 73.918 188.894 76.5423 191.889 76.5423Z" fill="#F5F9E9"/>
<path d="M170.275 76.5423C173.27 76.5423 175.698 73.918 175.698 70.6808C175.698 67.4435 173.27 64.8192 170.275 64.8192C167.279 64.8192 164.851 67.4435 164.851 70.6808C164.851 73.918 167.279 76.5423 170.275 76.5423Z" fill="#F5F9E9"/>
<path d="M235.119 101.015C238.115 101.015 240.543 98.3906 240.543 95.1534C240.543 91.9161 238.115 89.2918 235.119 89.2918C232.124 89.2918 229.696 91.9161 229.696 95.1534C229.696 98.3906 232.124 101.015 235.119 101.015Z" fill="#F5F9E9"/>
<path d="M213.504 101.015C216.5 101.015 218.928 98.3906 218.928 95.1534C218.928 91.9161 216.5 89.2918 213.504 89.2918C210.509 89.2918 208.081 91.9161 208.081 95.1534C208.081 98.3906 210.509 101.015 213.504 101.015Z" fill="#F5F9E9"/>
<path d="M191.889 101.015C194.885 101.015 197.313 98.3906 197.313 95.1534C197.313 91.9161 194.885 89.2918 191.889 89.2918C188.894 89.2918 186.466 91.9161 186.466 95.1534C186.466 98.3906 188.894 101.015 191.889 101.015Z" fill="#F5F9E9"/>
<path d="M170.275 101.015C173.27 101.015 175.698 98.3906 175.698 95.1534C175.698 91.9161 173.27 89.2918 170.275 89.2918C167.279 89.2918 164.851 91.9161 164.851 95.1534C164.851 98.3906 167.279 101.015 170.275 101.015Z" fill="#F5F9E9"/>
<path d="M235.119 125.488C238.115 125.488 240.543 122.863 240.543 119.626C240.543 116.389 238.115 113.764 235.119 113.764C232.124 113.764 229.696 116.389 229.696 119.626C229.696 122.863 232.124 125.488 235.119 125.488Z" fill="#F5F9E9"/>
<path d="M213.504 125.488C216.5 125.488 218.928 122.863 218.928 119.626C218.928 116.389 216.5 113.764 213.504 113.764C210.509 113.764 208.081 116.389 208.081 119.626C208.081 122.863 210.509 125.488 213.504 125.488Z" fill="#F5F9E9"/>
<path d="M191.889 125.488C194.885 125.488 197.313 122.863 197.313 119.626C197.313 116.389 194.885 113.764 191.889 113.764C188.894 113.764 186.466 116.389 186.466 119.626C186.466 122.863 188.894 125.488 191.889 125.488Z" fill="#F5F9E9"/>
<path d="M170.275 125.488C173.27 125.488 175.698 122.863 175.698 119.626C175.698 116.389 173.27 113.764 170.275 113.764C167.279 113.764 164.851 116.389 164.851 119.626C164.851 122.863 167.279 125.488 170.275 125.488Z" fill="#F5F9E9"/>
<path d="M235.119 149.96C238.115 149.96 240.543 147.336 240.543 144.099C240.543 140.861 238.115 138.237 235.119 138.237C232.124 138.237 229.696 140.861 229.696 144.099C229.696 147.336 232.124 149.96 235.119 149.96Z" fill="#F5F9E9"/>
<path d="M213.504 149.96C216.5 149.96 218.928 147.336 218.928 144.099C218.928 140.861 216.5 138.237 213.504 138.237C210.509 138.237 208.081 140.861 208.081 144.099C208.081 147.336 210.509 149.96 213.504 149.96Z" fill="#F5F9E9"/>
<path d="M191.889 149.96C194.885 149.96 197.313 147.336 197.313 144.099C197.313 140.861 194.885 138.237 191.889 138.237C188.894 138.237 186.466 140.861 186.466 144.099C186.466 147.336 188.894 149.96 191.889 149.96Z" fill="#F5F9E9"/>
<path d="M170.275 149.96C173.27 149.96 175.698 147.336 175.698 144.099C175.698 140.861 173.27 138.237 170.275 138.237C167.279 138.237 164.851 140.861 164.851 144.099C164.851 147.336 167.279 149.96 170.275 149.96Z" fill="#F5F9E9"/>
<path d="M235.119 174.433C238.115 174.433 240.543 171.808 240.543 168.571C240.543 165.334 238.115 162.71 235.119 162.71C232.124 162.71 229.696 165.334 229.696 168.571C229.696 171.808 232.124 174.433 235.119 174.433Z" fill="#F5F9E9"/>
<path d="M213.504 174.433C216.5 174.433 218.928 171.808 218.928 168.571C218.928 165.334 216.5 162.71 213.504 162.71C210.509 162.71 208.081 165.334 208.081 168.571C208.081 171.808 210.509 174.433 213.504 174.433Z" fill="#F5F9E9"/>
<path d="M191.889 174.433C194.885 174.433 197.313 171.808 197.313 168.571C197.313 165.334 194.885 162.71 191.889 162.71C188.894 162.71 186.466 165.334 186.466 168.571C186.466 171.808 188.894 174.433 191.889 174.433Z" fill="#F5F9E9"/>
<path d="M170.275 174.433C173.27 174.433 175.698 171.808 175.698 168.571C175.698 165.334 173.27 162.71 170.275 162.71C167.279 162.71 164.851 165.334 164.851 168.571C164.851 171.808 167.279 174.433 170.275 174.433Z" fill="#F5F9E9"/>
<path d="M187.463 328.477V330.29C187.465 333.294 188.57 336.174 190.536 338.298C192.501 340.422 195.166 341.617 197.946 341.62H273.425C276.205 341.618 278.871 340.424 280.836 338.3C282.802 336.175 283.907 333.294 283.908 330.29V328.477C283.913 325.825 283.052 323.257 281.475 321.226C280.951 320.551 280.357 319.943 279.706 319.413C279.706 319.413 238.209 318.398 238.209 317.147H197.946C195.167 317.151 192.503 318.346 190.537 320.47C188.572 322.594 187.467 325.473 187.463 328.477Z" fill="#CCCCCC"/>
<path d="M241.743 341.169H230.841V417.306H241.743V341.169Z" fill="#CCCCCC"/>
<path d="M272.774 416.893C272.774 418.166 256.252 417.385 235.873 417.385C215.493 417.385 198.972 418.166 198.972 416.893C198.972 415.619 215.493 405.523 235.873 405.523C256.252 405.523 272.774 415.619 272.774 416.893Z" fill="#CCCCCC"/>
<path d="M257.784 326.939C258.571 325.798 259.117 324.484 259.384 323.09C259.65 321.696 259.63 320.255 259.326 318.87C259.021 317.485 258.44 316.189 257.622 315.074C256.804 313.958 255.769 313.05 254.591 312.413L231.484 227.316L213.888 236.63L242.135 317.348C241.276 319.558 241.197 322.031 241.913 324.3C242.628 326.568 244.089 328.474 246.018 329.656C247.947 330.838 250.21 331.215 252.379 330.714C254.547 330.213 256.471 328.87 257.784 326.939L257.784 326.939Z" fill="#A0616A"/>
<path d="M236.719 241.527L217.025 247.289C216.465 247.453 215.878 247.484 215.306 247.381C214.733 247.278 214.188 247.043 213.707 246.691C213.226 246.34 212.821 245.881 212.519 245.345C212.217 244.809 212.026 244.209 211.958 243.586L209.577 221.753C208.818 218.65 209.228 215.348 210.717 212.571C212.207 209.794 214.654 207.768 217.523 206.939C220.393 206.109 223.449 206.543 226.023 208.145C228.596 209.747 230.477 212.387 231.253 215.485L239.366 235.567C239.598 236.142 239.713 236.764 239.702 237.392C239.692 238.019 239.556 238.636 239.305 239.202C239.054 239.768 238.693 240.268 238.247 240.669C237.8 241.071 237.279 241.363 236.719 241.527H236.719Z" fill="#5BC0EB"/>
<path d="M262.931 407.969L273.213 407.968L278.105 379.148H262.93L262.931 407.969Z" fill="#A0616A"/>
<path d="M260.309 404.34L280.557 404.34H280.558C282.252 404.34 283.93 404.7 285.496 405.401C287.061 406.102 288.484 407.129 289.682 408.424C290.88 409.719 291.831 411.257 292.479 412.949C293.128 414.641 293.462 416.454 293.462 418.286V418.739L260.309 418.74L260.309 404.34Z" fill="#2F2E41"/>
<path d="M274.866 392.514C274.746 392.514 274.626 392.508 274.505 392.495L260.276 391.376C259.7 391.318 259.145 391.118 258.652 390.792C258.159 390.465 257.743 390.021 257.434 389.493C257.125 388.965 256.933 388.367 256.872 387.746C256.811 387.125 256.882 386.497 257.081 385.911L276.124 339.671C276.26 339.259 276.316 338.821 276.287 338.384C276.259 337.948 276.147 337.522 275.959 337.134C275.772 336.742 275.51 336.397 275.19 336.122C274.871 335.847 274.501 335.649 274.105 335.539C265.15 333.01 242.176 326.274 222.288 318.392C213.767 315.015 208.401 310.136 206.337 303.888C203.618 295.652 207.641 288.141 207.814 287.825L207.949 287.578L226.663 289.417L246.951 291.282L291.411 317.049C295.136 319.226 297.966 322.84 299.337 327.171C300.707 331.502 300.518 336.232 298.807 340.419L278.309 390.096C278.013 390.816 277.53 391.427 276.919 391.856C276.307 392.285 275.594 392.514 274.866 392.514Z" fill="#2F2E41"/>
<path d="M229.917 197.935C241.293 197.935 250.515 187.968 250.515 175.673C250.515 163.379 241.293 153.411 229.917 153.411C218.541 153.411 209.319 163.379 209.319 175.673C209.319 187.968 218.541 197.935 229.917 197.935Z" fill="#A0616A"/>
<path d="M257.061 407.062L267.343 407.061L272.235 378.242H257.059L257.061 407.062Z" fill="#A0616A"/>
<path d="M254.438 403.434L274.686 403.433H274.687C276.382 403.433 278.06 403.794 279.625 404.495C281.191 405.195 282.613 406.223 283.812 407.518C285.01 408.813 285.96 410.35 286.609 412.042C287.257 413.734 287.591 415.548 287.591 417.379V417.832L254.439 417.834L254.438 403.434Z" fill="#2F2E41"/>
<path d="M268.995 395.233C268.875 395.233 268.755 395.227 268.634 395.214L254.405 394.095C253.83 394.037 253.274 393.837 252.782 393.511C252.289 393.184 251.872 392.74 251.563 392.212C251.255 391.684 251.062 391.086 251.001 390.465C250.94 389.844 251.012 389.216 251.211 388.63L270.253 342.39C270.39 341.978 270.445 341.54 270.417 341.103C270.388 340.667 270.277 340.241 270.089 339.854C269.901 339.461 269.639 339.116 269.32 338.842C269 338.567 268.63 338.368 268.234 338.259C259.28 335.729 236.305 328.993 216.417 321.111C207.896 317.735 202.53 312.855 200.467 306.607C197.747 298.371 201.771 290.86 201.943 290.545L202.078 290.298L220.793 292.136L241.081 294.001L285.54 319.768C289.266 321.945 292.096 325.559 293.466 329.89C294.837 334.221 294.648 338.951 292.936 343.138L272.439 392.816C272.142 393.535 271.659 394.146 271.048 394.575C270.437 395.004 269.724 395.233 268.995 395.233Z" fill="#2F2E41"/>
<path d="M236.27 210.559L214.465 202.401C214.465 202.401 200.776 213.768 207.352 241.964C210.785 256.515 209.785 271.874 204.501 285.761C203.864 287.48 203.131 289.154 202.304 290.775C202.304 290.775 226.625 322.498 249.269 298.932L240.463 253.159C240.463 253.159 254.301 222.795 236.27 210.559Z" fill="#2F2E41"/>
<path d="M232.475 198.693C229.543 193.95 227.229 187.374 230.457 182.862C233.643 178.407 239.927 179.064 244.807 177.093C251.603 174.347 255.545 165.718 254.316 157.99C253.086 150.262 247.346 143.855 240.508 141.234C233.67 138.613 225.959 139.465 219.262 142.484C211.019 146.2 203.948 153.388 200.982 162.493C198.017 171.599 199.602 182.532 205.754 189.531C212.349 197.034 222.699 199.034 232.274 198.913" fill="#2F2E41"/>
<path d="M213.314 158.238C209.62 161.488 203.984 160.044 200.018 157.192C196.053 154.34 192.835 150.278 188.545 148.041C180.981 144.099 171.835 146.72 164.474 151.087C157.112 155.454 150.586 161.488 142.81 164.915C135.034 168.342 125.111 168.512 119.223 162.04C117.774 166.578 117.656 171.487 118.884 176.1C120.112 180.713 122.628 184.804 126.086 187.814C129.545 190.825 133.779 192.609 138.211 192.923C142.643 193.237 147.056 192.066 150.849 189.569C159.369 183.96 164.076 172.199 173.632 169.103C178.92 167.39 184.598 168.77 189.943 170.264C195.288 171.759 200.86 173.373 206.254 172.101C211.648 170.829 216.693 165.59 216.007 159.67L213.314 158.238Z" fill="#2F2E41"/>
<path d="M280.367 368.002C278.186 352.691 278.186 337.109 280.367 321.798C280.506 320.887 280.939 320.058 281.59 319.46C282.24 318.861 283.066 318.532 283.921 318.53H317.36C317.902 318.528 318.437 318.66 318.925 318.915C319.412 319.171 319.84 319.543 320.174 320.004C320.516 320.471 320.754 321.016 320.872 321.598C320.989 322.18 320.982 322.783 320.851 323.362C317.723 337.521 317.723 352.278 320.851 366.438C320.982 367.017 320.989 367.62 320.872 368.202C320.754 368.783 320.516 369.329 320.174 369.796C319.84 370.257 319.412 370.629 318.925 370.884C318.437 371.14 317.902 371.272 317.36 371.27H283.921C283.066 371.268 282.24 370.939 281.59 370.34C280.939 369.742 280.506 368.913 280.367 368.002Z" fill="#5BC0EB"/>
<path d="M307.07 340.896H289.522C288.855 340.896 288.215 340.609 287.744 340.099C287.272 339.589 287.007 338.898 287.006 338.177V337.115C287.007 336.394 287.272 335.703 287.744 335.193C288.215 334.683 288.855 334.397 289.522 334.396H307.07C307.737 334.397 308.376 334.683 308.848 335.193C309.32 335.703 309.585 336.394 309.586 337.115V338.177C309.585 338.898 309.32 339.589 308.848 340.099C308.376 340.609 307.737 340.896 307.07 340.896Z" fill="#F5F9E9"/>
<path d="M307.07 352.086H289.522C288.855 352.085 288.215 351.798 287.744 351.288C287.272 350.779 287.007 350.087 287.006 349.366V348.304C287.007 347.583 287.272 346.892 287.744 346.382C288.215 345.872 288.855 345.585 289.522 345.585H307.07C307.737 345.585 308.376 345.872 308.848 346.382C309.32 346.892 309.585 347.583 309.586 348.304V349.366C309.585 350.087 309.32 350.779 308.848 351.288C308.376 351.798 307.737 352.085 307.07 352.086Z" fill="#F5F9E9"/>
<path d="M289.161 322.861C289.659 321.543 289.884 320.124 289.82 318.702C289.755 317.28 289.403 315.891 288.788 314.632C288.173 313.373 287.31 312.275 286.26 311.416C285.211 310.556 283.999 309.956 282.711 309.657L240.665 233.499L225.78 247.268L271.791 317.8C271.47 320.172 271.965 322.588 273.182 324.591C274.4 326.594 276.255 328.045 278.396 328.669C280.537 329.293 282.815 329.046 284.799 327.976C286.784 326.905 288.335 325.085 289.161 322.861L289.161 322.861Z" fill="#A0616A"/>
<path d="M249.019 245.846L231.282 256.742C230.777 257.052 230.217 257.241 229.638 257.296C229.06 257.351 228.477 257.27 227.931 257.06C227.384 256.849 226.885 256.514 226.469 256.077C226.053 255.639 225.729 255.11 225.519 254.525L218.167 234.027C216.714 231.228 216.348 227.92 217.148 224.829C217.949 221.738 219.85 219.116 222.437 217.538C225.023 215.96 228.083 215.554 230.945 216.41C233.807 217.267 236.239 219.315 237.706 222.105L250.204 239.36C250.562 239.854 250.817 240.426 250.952 241.036C251.087 241.646 251.098 242.28 250.986 242.896C250.873 243.512 250.639 244.094 250.3 244.603C249.961 245.112 249.524 245.536 249.019 245.846Z" fill="#2F2E41"/>
<path d="M437.75 272.597H97.2563C95.8106 272.597 94.424 273.218 93.4017 274.323C92.3794 275.428 91.8051 276.926 91.8051 278.489C91.8051 280.052 92.3794 281.55 93.4017 282.655C94.424 283.76 95.8106 284.381 97.2563 284.381H106.901V412.635C106.901 414.198 107.475 415.696 108.497 416.801C109.52 417.906 110.906 418.527 112.352 418.527C113.798 418.527 115.184 417.906 116.207 416.801C117.229 415.696 117.803 414.198 117.803 412.635V295.701L178.917 415.416C179.641 416.766 180.832 417.75 182.227 418.152C183.622 418.555 185.108 418.342 186.358 417.562C187.608 416.782 188.521 415.497 188.896 413.99C189.272 412.484 189.078 410.877 188.359 409.524L124.474 284.381H416.364V284.457L352.518 409.524C351.795 410.878 351.599 412.486 351.974 413.995C352.348 415.504 353.261 416.791 354.513 417.572C355.765 418.353 357.253 418.565 358.65 418.161C360.046 417.756 361.237 416.769 361.96 415.416L416.364 308.844V412.635C416.364 414.198 416.938 415.696 417.961 416.801C418.983 417.906 420.37 418.527 421.815 418.527C423.261 418.527 424.648 417.906 425.67 416.801C426.692 415.696 427.267 414.198 427.267 412.635V287.487L428.853 284.381H437.75C439.195 284.381 440.582 283.76 441.604 282.655C442.627 281.55 443.201 280.052 443.201 278.489C443.201 276.926 442.627 275.428 441.604 274.323C440.582 273.218 439.195 272.597 437.75 272.597Z" fill="#3F3D56"/>
<path d="M296.856 268.972H230.602C228.981 268.972 227.667 270.392 227.667 272.144C227.667 273.896 228.981 275.317 230.602 275.317H296.856C298.477 275.317 299.791 273.896 299.791 272.144C299.791 270.392 298.477 268.972 296.856 268.972Z" fill="#CCCCCC"/>
<path d="M341.305 275.317H266.664C265.219 275.315 263.834 274.694 262.812 273.589C261.79 272.485 261.215 270.987 261.213 269.425V225.012C261.215 223.45 261.79 221.952 262.812 220.848C263.834 219.743 265.219 219.122 266.664 219.12H341.305C342.75 219.122 344.135 219.743 345.157 220.848C346.179 221.952 346.754 223.45 346.756 225.012V269.425C346.754 270.987 346.179 272.485 345.157 273.589C344.135 274.694 342.75 275.315 341.305 275.317Z" fill="#CCCCCC"/>
<path d="M303.984 252.657C306.764 252.657 309.016 250.222 309.016 247.218C309.016 244.215 306.764 241.78 303.984 241.78C301.205 241.78 298.953 244.215 298.953 247.218C298.953 250.222 301.205 252.657 303.984 252.657Z" fill="#F5F9E9"/>
<path d="M398.267 165.889V6.81737C398.268 5.00992 398.934 3.27709 400.116 1.99903C401.299 0.720967 402.902 0.00205592 404.574 0H520.919C522.592 0.00205592 524.195 0.720967 525.378 1.99903C526.56 3.27709 527.225 5.00992 527.227 6.81737V165.889C527.225 167.697 526.56 169.43 525.378 170.708C524.195 171.986 522.592 172.705 520.919 172.707H404.574C402.902 172.705 401.299 171.986 400.116 170.708C398.934 169.43 398.268 167.697 398.267 165.889ZM404.574 1.51498C403.274 1.51655 402.027 2.0757 401.107 3.06975C400.187 4.06381 399.67 5.41157 399.668 6.81737V165.889C399.67 167.295 400.187 168.643 401.107 169.637C402.027 170.631 403.274 171.19 404.574 171.192H520.919C522.22 171.19 523.467 170.631 524.387 169.637C525.307 168.643 525.824 167.295 525.826 165.889V6.81737C525.824 5.41157 525.307 4.06381 524.387 3.06975C523.467 2.0757 522.22 1.51655 520.919 1.51498H404.574Z" fill="#F5F9E9"/>
<path d="M469.271 73.0532V40.3907C469.272 39.487 469.605 38.6205 470.196 37.9815C470.787 37.3425 471.589 36.983 472.425 36.982H498.035C498.871 36.983 499.673 37.3425 500.264 37.9815C500.856 38.6205 501.188 39.487 501.189 40.3907V73.0532C501.188 73.957 500.856 74.8234 500.264 75.4624C499.673 76.1015 498.871 76.4609 498.035 76.4619H472.425C471.589 76.4609 470.787 76.1015 470.196 75.4624C469.605 74.8234 469.272 73.957 469.271 73.0532Z" fill="#5BC0EB"/>
<path d="M419.509 88.203V55.5405C419.51 54.6367 419.843 53.7703 420.434 53.1312C421.025 52.4922 421.827 52.1327 422.663 52.1317H448.273C449.109 52.1327 449.911 52.4922 450.502 53.1312C451.093 53.7703 451.426 54.6367 451.427 55.5405V88.203C451.426 89.1067 451.093 89.9731 450.502 90.6122C449.911 91.2512 449.109 91.6106 448.273 91.6116H422.663C421.827 91.6106 421.025 91.2512 420.434 90.6122C419.843 89.9731 419.51 89.1067 419.509 88.203Z" fill="#CCCCCC"/>
<path d="M459.459 134.41V101.747C459.46 100.843 459.793 99.9769 460.384 99.3378C460.975 98.6988 461.777 98.3394 462.613 98.3383H488.223C489.059 98.3394 489.861 98.6988 490.452 99.3378C491.043 99.9769 491.376 100.843 491.377 101.747V134.41C491.376 135.313 491.043 136.18 490.452 136.819C489.861 137.458 489.059 137.817 488.223 137.818H462.613C461.777 137.817 460.975 137.458 460.384 136.819C459.793 136.18 459.46 135.313 459.459 134.41Z" fill="#FF6584"/>
<path d="M654.771 16.5754C657.767 16.5754 660.195 13.9511 660.195 10.7138C660.195 7.47658 657.767 4.85228 654.771 4.85228C651.776 4.85228 649.348 7.47658 649.348 10.7138C649.348 13.9511 651.776 16.5754 654.771 16.5754Z" fill="#F5F9E9"/>
<path d="M654.771 39.9361C657.767 39.9361 660.195 37.3118 660.195 34.0746C660.195 30.8373 657.767 28.213 654.771 28.213C651.776 28.213 649.348 30.8373 649.348 34.0746C649.348 37.3118 651.776 39.9361 654.771 39.9361Z" fill="#F5F9E9"/>
<path d="M654.771 63.2969C657.767 63.2969 660.195 60.6726 660.195 57.4353C660.195 54.1981 657.767 51.5738 654.771 51.5738C651.776 51.5738 649.348 54.1981 649.348 57.4353C649.348 60.6726 651.776 63.2969 654.771 63.2969Z" fill="#F5F9E9"/>
<path d="M654.771 86.6576C657.767 86.6576 660.195 84.0333 660.195 80.7961C660.195 77.5588 657.767 74.9345 654.771 74.9345C651.776 74.9345 649.348 77.5588 649.348 80.7961C649.348 84.0333 651.776 86.6576 654.771 86.6576Z" fill="#F5F9E9"/>
<path d="M632.128 16.5754C635.123 16.5754 637.551 13.9511 637.551 10.7138C637.551 7.47658 635.123 4.85228 632.128 4.85228C629.132 4.85228 626.704 7.47658 626.704 10.7138C626.704 13.9511 629.132 16.5754 632.128 16.5754Z" fill="#F5F9E9"/>
<path d="M632.128 39.9361C635.123 39.9361 637.551 37.3118 637.551 34.0746C637.551 30.8373 635.123 28.213 632.128 28.213C629.132 28.213 626.704 30.8373 626.704 34.0746C626.704 37.3118 629.132 39.9361 632.128 39.9361Z" fill="#F5F9E9"/>
<path d="M632.128 63.2969C635.123 63.2969 637.551 60.6726 637.551 57.4353C637.551 54.1981 635.123 51.5738 632.128 51.5738C629.132 51.5738 626.704 54.1981 626.704 57.4353C626.704 60.6726 629.132 63.2969 632.128 63.2969Z" fill="#F5F9E9"/>
<path d="M632.128 86.6576C635.123 86.6576 637.551 84.0333 637.551 80.7961C637.551 77.5588 635.123 74.9345 632.128 74.9345C629.132 74.9345 626.704 77.5588 626.704 80.7961C626.704 84.0333 629.132 86.6576 632.128 86.6576Z" fill="#F5F9E9"/>
<path d="M609.484 16.5754C612.479 16.5754 614.908 13.9511 614.908 10.7138C614.908 7.47658 612.479 4.85228 609.484 4.85228C606.489 4.85228 604.061 7.47658 604.061 10.7138C604.061 13.9511 606.489 16.5754 609.484 16.5754Z" fill="#F5F9E9"/>
<path d="M609.484 39.9361C612.479 39.9361 614.908 37.3118 614.908 34.0746C614.908 30.8373 612.479 28.213 609.484 28.213C606.489 28.213 604.061 30.8373 604.061 34.0746C604.061 37.3118 606.489 39.9361 609.484 39.9361Z" fill="#F5F9E9"/>
<path d="M609.484 63.2969C612.479 63.2969 614.908 60.6726 614.908 57.4353C614.908 54.1981 612.479 51.5738 609.484 51.5738C606.489 51.5738 604.061 54.1981 604.061 57.4353C604.061 60.6726 606.489 63.2969 609.484 63.2969Z" fill="#F5F9E9"/>
<path d="M609.484 86.6576C612.479 86.6576 614.908 84.0333 614.908 80.7961C614.908 77.5588 612.479 74.9345 609.484 74.9345C606.489 74.9345 604.061 77.5588 604.061 80.7961C604.061 84.0333 606.489 86.6576 609.484 86.6576Z" fill="#F5F9E9"/>
<path d="M586.84 16.5754C589.836 16.5754 592.264 13.9511 592.264 10.7138C592.264 7.47658 589.836 4.85228 586.84 4.85228C583.845 4.85228 581.417 7.47658 581.417 10.7138C581.417 13.9511 583.845 16.5754 586.84 16.5754Z" fill="#F5F9E9"/>
<path d="M586.84 39.9361C589.836 39.9361 592.264 37.3118 592.264 34.0746C592.264 30.8373 589.836 28.213 586.84 28.213C583.845 28.213 581.417 30.8373 581.417 34.0746C581.417 37.3118 583.845 39.9361 586.84 39.9361Z" fill="#F5F9E9"/>
<path d="M586.84 63.2969C589.836 63.2969 592.264 60.6726 592.264 57.4353C592.264 54.1981 589.836 51.5738 586.84 51.5738C583.845 51.5738 581.417 54.1981 581.417 57.4353C581.417 60.6726 583.845 63.2969 586.84 63.2969Z" fill="#F5F9E9"/>
<path d="M586.84 86.6576C589.836 86.6576 592.264 84.0333 592.264 80.7961C592.264 77.5588 589.836 74.9345 586.84 74.9345C583.845 74.9345 581.417 77.5588 581.417 80.7961C581.417 84.0333 583.845 86.6576 586.84 86.6576Z" fill="#F5F9E9"/>
<path d="M564.197 16.5754C567.192 16.5754 569.62 13.9511 569.62 10.7138C569.62 7.47658 567.192 4.85228 564.197 4.85228C561.202 4.85228 558.773 7.47658 558.773 10.7138C558.773 13.9511 561.202 16.5754 564.197 16.5754Z" fill="#F5F9E9"/>
<path d="M564.197 39.9361C567.192 39.9361 569.62 37.3118 569.62 34.0746C569.62 30.8373 567.192 28.213 564.197 28.213C561.202 28.213 558.773 30.8373 558.773 34.0746C558.773 37.3118 561.202 39.9361 564.197 39.9361Z" fill="#F5F9E9"/>
<path d="M564.197 63.2969C567.192 63.2969 569.62 60.6726 569.62 57.4353C569.62 54.1981 567.192 51.5738 564.197 51.5738C561.202 51.5738 558.773 54.1981 558.773 57.4353C558.773 60.6726 561.202 63.2969 564.197 63.2969Z" fill="#F5F9E9"/>
<path d="M564.197 86.6576C567.192 86.6576 569.62 84.0333 569.62 80.7961C569.62 77.5588 567.192 74.9345 564.197 74.9345C561.202 74.9345 558.773 77.5588 558.773 80.7961C558.773 84.0333 561.202 86.6576 564.197 86.6576Z" fill="#F5F9E9"/>
<path d="M541.553 16.5754C544.548 16.5754 546.977 13.9511 546.977 10.7138C546.977 7.47658 544.548 4.85228 541.553 4.85228C538.558 4.85228 536.13 7.47658 536.13 10.7138C536.13 13.9511 538.558 16.5754 541.553 16.5754Z" fill="#F5F9E9"/>
<path d="M541.553 39.9361C544.548 39.9361 546.977 37.3118 546.977 34.0746C546.977 30.8373 544.548 28.213 541.553 28.213C538.558 28.213 536.13 30.8373 536.13 34.0746C536.13 37.3118 538.558 39.9361 541.553 39.9361Z" fill="#F5F9E9"/>
<path d="M541.553 63.2969C544.548 63.2969 546.977 60.6726 546.977 57.4353C546.977 54.1981 544.548 51.5738 541.553 51.5738C538.558 51.5738 536.13 54.1981 536.13 57.4353C536.13 60.6726 538.558 63.2969 541.553 63.2969Z" fill="#F5F9E9"/>
<path d="M541.553 86.6576C544.548 86.6576 546.977 84.0333 546.977 80.7961C546.977 77.5588 544.548 74.9345 541.553 74.9345C538.558 74.9345 536.13 77.5588 536.13 80.7961C536.13 84.0333 538.558 86.6576 541.553 86.6576Z" fill="#F5F9E9"/>
<path d="M563.403 218.67C562.958 217.349 562.776 215.943 562.87 214.541C562.963 213.14 563.329 211.776 563.944 210.538C564.559 209.3 565.409 208.217 566.439 207.359C567.468 206.501 568.654 205.888 569.917 205.56C570.318 205.458 570.725 205.386 571.135 205.345L591.516 166.734L586.369 157.179L599.18 146.497L608.982 161.21C610.15 162.978 610.76 165.107 610.721 167.28C610.682 169.453 609.995 171.555 608.763 173.272L580.782 211.988C580.884 212.296 580.97 212.609 581.042 212.926C581.346 214.292 581.379 215.712 581.139 217.093C580.899 218.474 580.392 219.785 579.651 220.939C578.91 222.094 577.951 223.066 576.838 223.792C575.725 224.518 574.483 224.982 573.193 225.153C572.818 225.204 572.441 225.23 572.063 225.229C570.173 225.223 568.329 224.591 566.781 223.418C565.233 222.245 564.054 220.588 563.403 218.67Z" fill="#FFB8B8"/>
<path d="M523.639 408.682L513.357 408.681L508.466 365.819L523.64 365.82L523.639 408.682Z" fill="#FFB8B8"/>
<path d="M506.013 405.506H525.842V418.999H493.528C493.528 417.227 493.851 415.473 494.478 413.836C495.106 412.198 496.025 410.711 497.185 409.458C498.344 408.205 499.72 407.211 501.235 406.533C502.75 405.855 504.373 405.506 506.013 405.506Z" fill="#2F2E41"/>
<path d="M608.343 408.682L598.061 408.681L593.17 365.819L608.344 365.82L608.343 408.682Z" fill="#FFB8B8"/>
<path d="M590.717 405.506H610.546V418.999H578.232C578.232 417.227 578.555 415.473 579.182 413.836C579.81 412.198 580.729 410.711 581.889 409.458C583.048 408.205 584.424 407.211 585.939 406.533C587.454 405.855 589.077 405.506 590.717 405.506Z" fill="#2F2E41"/>
<path d="M602.032 148.584L578.948 158.065L573.313 141.145C572.564 138.899 572.575 136.438 573.342 134.199C574.11 131.96 575.585 130.087 577.508 128.909C579.452 127.719 581.726 127.318 583.92 127.781C586.113 128.244 588.082 129.539 589.469 131.433L602.032 148.584Z" fill="#5BC0EB"/>
<path d="M524.526 373.967L505.166 369.195C504.137 368.94 503.235 368.272 502.642 367.327C502.049 366.383 501.808 365.23 501.969 364.102C509.738 310.888 517.211 279.725 536.472 240.15C536.741 239.413 539.748 224.435 541.711 214.513C541.688 213.42 542.035 212.355 542.685 211.517C543.335 210.679 544.245 210.126 545.245 209.959L581.344 203.955C581.889 203.751 582.463 203.657 583.039 203.679L583.4 203.753L583.396 204.137C583.391 204.533 583.026 204.594 582.889 204.617L582.409 204.697C582.956 204.972 583.459 205.341 583.897 205.79C599.714 226.351 607.939 293.746 618.385 368.202C618.443 368.806 618.375 369.417 618.186 369.989C617.997 370.561 617.691 371.08 617.292 371.508C616.914 371.954 616.456 372.313 615.946 372.562C615.436 372.811 614.885 372.946 614.325 372.959L591.261 373.566C590.248 373.591 589.261 373.217 588.484 372.513C587.707 371.81 587.193 370.825 587.038 369.743L571.503 272.715C571.396 271.957 571.068 271.255 570.567 270.713C570.065 270.17 569.417 269.815 568.716 269.698C568.015 269.581 567.298 269.709 566.668 270.063C566.039 270.417 565.531 270.979 565.218 271.667C552.685 299.253 540.997 323.109 529.486 370.705C529.257 371.67 528.739 372.526 528.011 373.137C527.283 373.749 526.388 374.081 525.466 374.082C525.15 374.082 524.835 374.044 524.526 373.967Z" fill="#2F2E41"/>
<path d="M543.318 215.621C542.832 215.25 542.425 214.771 542.124 214.216C541.823 213.662 541.634 213.044 541.571 212.404C538.614 182.575 540.674 159.232 547.866 141.04C549.132 137.902 551.041 135.115 553.447 132.889C555.854 130.663 558.696 129.056 561.759 128.187L580.419 127.169L580.516 127.22C584.726 129.449 588.16 133.085 590.308 137.589C592.456 142.094 593.204 147.226 592.441 152.226C586.439 169.323 581.414 187.125 585.246 201.485C585.407 202.085 585.454 202.714 585.384 203.335C585.314 203.955 585.129 204.554 584.84 205.095C584.56 205.619 584.184 206.074 583.734 206.434C583.285 206.794 582.772 207.051 582.227 207.188L546.687 216.326C546.111 216.474 545.513 216.487 544.932 216.366C544.351 216.244 543.801 215.99 543.318 215.621Z" fill="#5BC0EB"/>
<path d="M535.286 172.814L499.497 142.3C499.212 142.408 498.922 142.501 498.628 142.577C497.365 142.896 496.053 142.925 494.779 142.661C493.505 142.396 492.297 141.846 491.233 141.044C490.161 140.241 489.261 139.201 488.592 137.992C487.923 136.783 487.5 135.434 487.353 134.034C487.113 131.797 487.579 129.537 488.677 127.623C489.774 125.708 491.438 124.25 493.399 123.485C494.622 123.011 495.925 122.822 497.221 122.929C498.517 123.037 499.777 123.439 500.92 124.11C502.062 124.78 503.06 125.704 503.849 126.821C504.638 127.937 505.199 129.222 505.497 130.589C505.589 131.023 505.654 131.462 505.689 131.905L541.316 154.119L550.182 148.602L560.004 162.499L546.238 173.103C544.627 174.334 542.691 174.971 540.718 174.919C538.745 174.867 536.84 174.129 535.286 172.814H535.286Z" fill="#FFB8B8"/>
<path d="M564.371 166.827L543.951 151.819L553.548 137.129C554.822 135.179 556.693 133.778 558.831 133.174C560.968 132.57 563.234 132.803 565.229 133.83C567.246 134.869 568.853 136.654 569.76 138.862C570.666 141.07 570.813 143.555 570.172 145.869L564.371 166.827Z" fill="#5BC0EB"/>
<path d="M574.192 119.637C585.568 119.637 594.79 109.67 594.79 97.3751C594.79 85.0802 585.568 75.1132 574.192 75.1132C562.816 75.1132 553.593 85.0802 553.593 97.3751C553.593 109.67 562.816 119.637 574.192 119.637Z" fill="#FFB8B8"/>
<path d="M566.64 94.0594C561.346 97.9754 554.394 102.001 548.987 97.8306C545.437 95.0923 544.318 90.0216 545.758 85.5718C548.347 77.5696 555.461 74.0467 562.263 71.3463C571.106 67.8358 580.735 65.043 589.864 67.5571C598.993 70.0711 607.061 79.6238 605.413 89.6486C604.088 97.7102 597.052 104.418 598.051 112.535C599.056 120.703 607.556 125.003 615.06 126.463C622.564 127.923 630.961 128.392 636.354 134.217C643.233 141.648 641.515 154.931 635.042 162.777C628.569 170.623 618.8 174.18 609.334 176.598C596.792 179.801 583.228 181.484 571.316 176.168C559.405 170.852 550.135 156.541 553.586 143.121C555.043 137.453 558.477 132.662 561.795 127.998C565.113 123.335 568.473 118.458 569.739 112.736C570.794 107.968 570.013 102.431 567.087 98.8545C566.555 98.2285 566.22 97.4363 566.131 96.5917C566.041 95.7471 566.202 94.8935 566.589 94.1536L566.64 94.0594Z" fill="#2F2E41"/>
</svg>
