<svg width="749" height="528" viewBox="0 0 749 528" fill="none" xmlns="http://www.w3.org/2000/svg">
<g clip-path="url(#clip0)">
<path d="M165.972 52.8903H118.207C113.614 52.8945 109.212 54.7212 105.964 57.9696C102.717 61.218 100.891 65.6226 100.887 70.2165V122.022C100.276 121.985 99.6657 121.93 99.0639 121.857C87.748 120.666 76.9896 116.337 68.0018 109.356C59.014 102.376 52.1542 93.0225 48.1959 82.3507C44.2375 71.6788 43.338 60.113 45.5988 48.9571C47.8596 37.8012 53.1908 27.499 60.9912 19.212C68.7917 10.925 78.7512 4.98271 89.7469 2.05519C100.743 -0.872326 112.337 -0.668686 123.223 2.64316C134.11 5.95501 143.854 12.2434 151.359 20.7992C158.864 29.355 163.83 39.8381 165.698 51.0665C165.799 51.6683 165.89 52.2794 165.972 52.8903Z" fill="#F5F9E9"/>
<path d="M729.857 51.0665H118.207C113.131 51.0721 108.266 53.0914 104.677 56.6816C101.088 60.2717 99.0695 65.1393 99.064 70.2165V393.03C99.0695 398.107 101.088 402.975 104.677 406.565C108.266 410.155 113.131 412.174 118.207 412.18H729.857C734.933 412.174 739.798 410.155 743.387 406.565C746.976 402.975 748.994 398.107 749 393.03V70.2165C748.994 65.1393 746.976 60.2717 743.387 56.6816C739.798 53.0914 734.933 51.0721 729.857 51.0665ZM747.177 393.03C747.173 397.624 745.347 402.028 742.1 405.277C738.852 408.525 734.45 410.352 729.857 410.356H118.207C113.614 410.352 109.212 408.525 105.964 405.277C102.717 402.028 100.891 397.624 100.887 393.03V70.2165C100.891 65.6226 102.717 61.218 105.964 57.9696C109.212 54.7213 113.614 52.8945 118.207 52.8903H729.857C734.45 52.8945 738.852 54.7213 742.1 57.9696C745.347 61.218 747.173 65.6226 747.177 70.2165V393.03Z" fill="#3F3D56"/>
<path d="M699.776 103.382H148.288C148.046 103.382 147.814 103.286 147.643 103.115C147.472 102.944 147.376 102.712 147.376 102.47C147.376 102.228 147.472 101.996 147.643 101.825C147.814 101.654 148.046 101.558 148.288 101.558H699.776C700.018 101.558 700.25 101.654 700.421 101.825C700.592 101.996 700.688 102.228 700.688 102.47C700.688 102.712 700.592 102.944 700.421 103.115C700.25 103.286 700.018 103.382 699.776 103.382Z" fill="#3F3D56"/>
<path d="M304.163 372.968C303.921 372.968 303.689 372.872 303.518 372.701C303.348 372.53 303.251 372.298 303.251 372.056V72.0403C303.251 71.7985 303.348 71.5665 303.518 71.3955C303.689 71.2245 303.921 71.1284 304.163 71.1284C304.405 71.1284 304.637 71.2245 304.808 71.3955C304.979 71.5665 305.075 71.7985 305.075 72.0403V372.056C305.075 372.298 304.979 372.53 304.808 372.701C304.637 372.872 304.405 372.968 304.163 372.968Z" fill="#3F3D56"/>
<path d="M441.807 372.968C441.565 372.968 441.334 372.872 441.163 372.701C440.992 372.53 440.896 372.298 440.896 372.056V72.0403C440.896 71.7985 440.992 71.5665 441.163 71.3955C441.334 71.2245 441.565 71.1284 441.807 71.1284C442.049 71.1284 442.281 71.2245 442.452 71.3955C442.623 71.5665 442.719 71.7985 442.719 72.0403V372.056C442.719 372.298 442.623 372.53 442.452 372.701C442.281 372.872 442.049 372.968 441.807 372.968Z" fill="#3F3D56"/>
<path d="M579.451 372.968C579.21 372.968 578.978 372.872 578.807 372.701C578.636 372.53 578.54 372.298 578.54 372.056V72.0403C578.54 71.7985 578.636 71.5665 578.807 71.3955C578.978 71.2245 579.21 71.1284 579.451 71.1284C579.693 71.1284 579.925 71.2245 580.096 71.3955C580.267 71.5665 580.363 71.7985 580.363 72.0403V372.056C580.363 372.298 580.267 372.53 580.096 372.701C579.925 372.872 579.693 372.968 579.451 372.968Z" fill="#3F3D56"/>
<path d="M215.666 197.506H182.358C181.27 197.505 180.227 197.073 179.458 196.303C178.689 195.534 178.257 194.491 178.256 193.403V154.082C178.257 152.994 178.689 151.951 179.458 151.182C180.227 150.412 181.27 149.98 182.358 149.979H215.666C216.753 149.98 217.796 150.412 218.565 151.182C219.334 151.951 219.766 152.994 219.768 154.082V193.403C219.766 194.491 219.334 195.534 218.565 196.303C217.796 197.073 216.753 197.505 215.666 197.506Z" fill="#5BC0EB"/>
<path d="M263.066 309.67H229.758C228.671 309.669 227.628 309.236 226.859 308.467C226.09 307.698 225.657 306.655 225.656 305.567V266.246C225.657 265.158 226.09 264.115 226.859 263.346C227.628 262.576 228.671 262.144 229.758 262.142H263.066C264.154 262.144 265.197 262.576 265.966 263.346C266.735 264.115 267.167 265.158 267.168 266.246V305.567C267.167 306.655 266.735 307.698 265.966 308.467C265.197 309.236 264.154 309.669 263.066 309.67Z" fill="#5BC0EB"/>
<path d="M370.629 221.216H337.321C336.234 221.215 335.191 220.782 334.422 220.013C333.653 219.243 333.221 218.2 333.219 217.112V177.792C333.221 176.704 333.653 175.661 334.422 174.891C335.191 174.122 336.234 173.689 337.321 173.688H370.629C371.717 173.689 372.76 174.122 373.529 174.891C374.298 175.661 374.73 176.704 374.731 177.792V217.112C374.73 218.2 374.298 219.243 373.529 220.013C372.76 220.782 371.717 221.215 370.629 221.216Z" fill="#5BC0EB"/>
<path d="M510.097 178.357H476.789C475.701 178.355 474.659 177.923 473.89 177.153C473.121 176.384 472.688 175.341 472.687 174.253V134.932C472.688 133.844 473.121 132.801 473.89 132.032C474.659 131.263 475.701 130.83 476.789 130.829H510.097C511.184 130.83 512.227 131.263 512.996 132.032C513.765 132.801 514.198 133.844 514.199 134.932V174.253C514.198 175.341 513.765 176.384 512.996 177.153C512.227 177.923 511.184 178.355 510.097 178.357Z" fill="#5BC0EB"/>
<path d="M638.626 178.357H605.317C604.23 178.355 603.187 177.923 602.418 177.153C601.649 176.384 601.217 175.341 601.216 174.253V134.932C601.217 133.844 601.649 132.801 602.418 132.032C603.187 131.263 604.23 130.83 605.317 130.829H638.626C639.713 130.83 640.756 131.263 641.525 132.032C642.294 132.801 642.726 133.844 642.728 134.932V174.253C642.726 175.341 642.294 176.384 641.525 177.153C640.756 177.923 639.713 178.355 638.626 178.357Z" fill="#5BC0EB"/>
<path d="M697.876 189.299H664.568C663.481 189.298 662.438 188.865 661.669 188.096C660.9 187.327 660.468 186.284 660.466 185.196V145.875C660.468 144.787 660.9 143.744 661.669 142.975C662.438 142.205 663.481 141.773 664.568 141.771H697.876C698.964 141.773 700.007 142.205 700.776 142.975C701.545 143.744 701.977 144.787 701.978 145.875V185.196C701.977 186.284 701.545 187.327 700.776 188.096C700.007 188.865 698.964 189.298 697.876 189.299Z" fill="#F5F9E9"/>
<path d="M671.441 259.516H638.133C637.046 259.515 636.003 259.082 635.234 258.312C634.465 257.543 634.033 256.5 634.031 255.412V216.091C634.033 215.003 634.465 213.96 635.234 213.191C636.003 212.422 637.046 211.989 638.133 211.988H671.441C672.529 211.989 673.572 212.422 674.341 213.191C675.11 213.96 675.542 215.003 675.543 216.091V255.412C675.542 256.5 675.11 257.543 674.341 258.313C673.572 259.082 672.529 259.515 671.441 259.516Z" fill="#F5F9E9"/>
<path d="M558.409 244.925H525.101C524.013 244.924 522.971 244.491 522.202 243.722C521.433 242.953 521 241.91 520.999 240.822V201.501C521 200.413 521.433 199.37 522.202 198.601C522.971 197.831 524.013 197.399 525.101 197.397H558.409C559.497 197.399 560.539 197.831 561.308 198.601C562.077 199.37 562.51 200.413 562.511 201.501V240.822C562.51 241.91 562.077 242.953 561.308 243.722C560.539 244.491 559.497 244.924 558.409 244.925Z" fill="#FF6584"/>
<path d="M493.689 259.516H460.381C459.293 259.515 458.251 259.082 457.482 258.312C456.713 257.543 456.28 256.5 456.279 255.412V216.091C456.28 215.003 456.713 213.96 457.482 213.191C458.251 212.422 459.293 211.989 460.381 211.988H493.689C494.776 211.989 495.819 212.422 496.588 213.191C497.357 213.96 497.79 215.003 497.791 216.091V255.412C497.79 256.5 497.357 257.543 496.588 258.313C495.819 259.082 494.776 259.515 493.689 259.516Z" fill="#F5F9E9"/>
<path d="M354.222 321.525H320.914C319.826 321.524 318.783 321.091 318.014 320.322C317.245 319.553 316.813 318.51 316.812 317.422V278.101C316.813 277.013 317.245 275.97 318.014 275.2C318.783 274.431 319.826 273.998 320.914 273.997H354.222C355.309 273.998 356.352 274.431 357.121 275.2C357.89 275.97 358.322 277.013 358.324 278.101V317.422C358.322 318.51 357.89 319.553 357.121 320.322C356.352 321.091 355.309 321.524 354.222 321.525Z" fill="#F5F9E9"/>
<path d="M185.584 269.547H152.276C151.189 269.546 150.146 269.113 149.377 268.344C148.608 267.574 148.176 266.531 148.174 265.443V226.122C148.176 225.034 148.608 223.991 149.377 223.222C150.146 222.453 151.189 222.02 152.276 222.019H185.584C186.672 222.02 187.715 222.453 188.484 223.222C189.253 223.991 189.685 225.034 189.686 226.122V265.443C189.685 266.531 189.253 267.574 188.484 268.344C187.715 269.113 186.672 269.546 185.584 269.547Z" fill="#FF6584"/>
<path d="M279.474 197.506H246.166C245.079 197.505 244.036 197.073 243.267 196.303C242.498 195.534 242.065 194.491 242.064 193.403V154.082C242.065 152.994 242.498 151.951 243.267 151.182C244.036 150.412 245.079 149.98 246.166 149.979H279.474C280.562 149.98 281.604 150.412 282.373 151.182C283.142 151.951 283.575 152.994 283.576 154.082V193.403C283.575 194.491 283.142 195.534 282.373 196.303C281.604 197.073 280.562 197.505 279.474 197.506Z" fill="#F5F9E9"/>
<path d="M252.205 88.4545H200.246C199.279 88.4545 198.352 88.0702 197.668 87.3862C196.984 86.7021 196.6 85.7743 196.6 84.8069C196.6 83.8395 196.984 82.9117 197.668 82.2277C198.352 81.5436 199.279 81.1593 200.246 81.1593H252.205C253.172 81.1593 254.099 81.5436 254.783 82.2277C255.467 82.9117 255.851 83.8395 255.851 84.8069C255.851 85.7743 255.467 86.7021 254.783 87.3862C254.099 88.0702 253.172 88.4545 252.205 88.4545Z" fill="#CCCCCC"/>
<path d="M398.964 88.4545H347.006C346.039 88.4545 345.111 88.0702 344.428 87.3862C343.744 86.7021 343.36 85.7743 343.36 84.8069C343.36 83.8395 343.744 82.9117 344.428 82.2277C345.111 81.5436 346.039 81.1593 347.006 81.1593H398.964C399.931 81.1593 400.859 81.5436 401.543 82.2277C402.226 82.9117 402.611 83.8395 402.611 84.8069C402.611 85.7743 402.226 86.7021 401.543 87.3862C400.859 88.0702 399.931 88.4545 398.964 88.4545Z" fill="#CCCCCC"/>
<path d="M536.609 88.4545H484.65C483.683 88.4545 482.756 88.0702 482.072 87.3862C481.388 86.7021 481.004 85.7743 481.004 84.8069C481.004 83.8395 481.388 82.9117 482.072 82.2277C482.756 81.5436 483.683 81.1593 484.65 81.1593H536.609C537.576 81.1593 538.503 81.5436 539.187 82.2277C539.871 82.9117 540.255 83.8395 540.255 84.8069C540.255 85.7743 539.871 86.7021 539.187 87.3862C538.503 88.0702 537.576 88.4545 536.609 88.4545Z" fill="#CCCCCC"/>
<path d="M665.137 88.4545H613.179C612.212 88.4545 611.284 88.0702 610.601 87.3862C609.917 86.7021 609.533 85.7743 609.533 84.8069C609.533 83.8395 609.917 82.9117 610.601 82.2277C611.284 81.5436 612.212 81.1593 613.179 81.1593H665.137C666.104 81.1593 667.032 81.5436 667.715 82.2277C668.399 82.9117 668.783 83.8395 668.783 84.8069C668.783 85.7743 668.399 86.7021 667.715 87.3862C667.032 88.0702 666.104 88.4545 665.137 88.4545Z" fill="#CCCCCC"/>
<path d="M135.83 355.543C134.496 355.412 133.207 354.99 132.054 354.308C130.901 353.625 129.911 352.697 129.155 351.59C128.399 350.484 127.895 349.224 127.678 347.902C127.461 346.579 127.536 345.224 127.899 343.934L104.533 322.175L116.887 319.04L139.864 337.682C141.99 338.436 143.767 339.943 144.857 341.92C145.947 343.896 146.274 346.203 145.777 348.405C145.279 350.607 143.992 352.549 142.159 353.865C140.325 355.18 138.074 355.777 135.83 355.543Z" fill="#FFB8B8"/>
<path d="M168.094 516.367H179.269L184.585 473.245H168.092L168.094 516.367Z" fill="#FFB8B8"/>
<path d="M200.822 526.747L165.699 526.749L165.699 513.173L187.251 513.172C190.85 513.172 194.302 514.602 196.847 517.148C199.392 519.694 200.822 523.147 200.822 526.747L200.822 526.747Z" fill="#2F2E41"/>
<path d="M91.4696 508.295L102.27 511.171L118.496 470.869L102.558 466.625L91.4696 508.295Z" fill="#FFB8B8"/>
<path d="M120.428 526.75L86.4869 517.713L89.9774 504.594L110.805 510.14C114.283 511.066 117.25 513.336 119.055 516.452C120.86 519.567 121.353 523.271 120.428 526.75Z" fill="#2F2E41"/>
<path d="M182.275 508.203H165.222C164.145 508.207 163.105 507.807 162.308 507.082C161.511 506.358 161.013 505.361 160.914 504.288L150.562 396.746C150.486 395.957 150.139 395.219 149.579 394.658C149.019 394.098 148.282 393.749 147.493 393.672C146.705 393.595 145.914 393.794 145.257 394.236C144.599 394.678 144.115 395.335 143.888 396.094L113.832 496.585C113.514 497.653 112.796 498.557 111.828 499.109C110.86 499.66 109.716 499.816 108.636 499.545L92.7719 495.577C92.2182 495.438 91.6974 495.192 91.2393 494.851C90.7813 494.511 90.3951 494.083 90.1031 493.592C89.811 493.102 89.6188 492.558 89.5375 491.993C89.4562 491.428 89.4875 490.853 89.6295 490.3C89.8886 489.287 115.527 389.053 115.751 388.022C121.56 345.192 128.51 333.715 132.244 327.55C132.553 327.04 132.837 326.57 133.093 326.127C133.413 325.572 135.383 320.068 136.633 316.493C136.795 315.912 137.076 315.37 137.458 314.903C137.84 314.436 138.315 314.053 138.852 313.778C154.541 305.752 172.896 311.308 178.149 313.202C179.019 313.509 179.767 314.089 180.28 314.857C196.036 338.632 188.304 476.712 186.594 504.151C186.522 505.249 186.036 506.278 185.234 507.03C184.432 507.783 183.374 508.202 182.275 508.203Z" fill="#2F2E41"/>
<path d="M138.268 235.804C150.633 235.804 160.656 225.777 160.656 213.407C160.656 201.037 150.633 191.01 138.268 191.01C125.903 191.01 115.879 201.037 115.879 213.407C115.879 225.777 125.903 235.804 138.268 235.804Z" fill="#FFB8B8"/>
<path d="M135.896 320.842L135.735 320.686C135.433 320.394 105.603 291.159 109.463 264.126C111.114 252.563 120.466 245.175 136.507 242.759C142.4 241.884 148.411 243.165 153.435 246.369C158.459 249.572 162.159 254.482 163.853 260.196L179.714 314.44L135.896 320.842Z" fill="#CCCCCC"/>
<path d="M120.628 341.636L99.3722 320.506C97.9188 319.053 96.8636 317.25 96.3081 315.271C95.7526 313.292 95.7155 311.204 96.2003 309.206L106.49 267.333C106.799 266.078 107.361 264.9 108.143 263.871C108.924 262.843 109.909 261.985 111.035 261.353C112.161 260.72 113.405 260.326 114.69 260.193C115.975 260.061 117.273 260.194 118.505 260.584C120.852 261.341 122.812 262.982 123.971 265.16C125.129 267.337 125.395 269.881 124.711 272.251L113.878 309.089L131.396 327.907L120.628 341.636Z" fill="#CCCCCC"/>
<path d="M234.637 269.524C234.075 270.741 233.253 271.82 232.229 272.685C231.205 273.549 230.004 274.179 228.711 274.529C227.417 274.88 226.063 274.942 224.743 274.712C223.423 274.482 222.169 273.965 221.07 273.198L192.694 287.911L193.948 275.412L219.104 259.838C220.515 258.077 222.522 256.894 224.746 256.515C226.971 256.135 229.256 256.585 231.171 257.779C233.086 258.973 234.496 260.828 235.135 262.993C235.774 265.157 235.597 267.481 234.637 269.524H234.637Z" fill="#FFB8B8"/>
<path d="M217.971 278.827L190.309 290.786C188.468 291.575 186.455 291.878 184.463 291.664C182.471 291.45 180.567 290.727 178.936 289.565L143.76 264.352C142.71 263.599 141.826 262.639 141.162 261.531C140.498 260.423 140.068 259.19 139.899 257.909C139.731 256.628 139.827 255.326 140.181 254.084C140.536 252.841 141.142 251.685 141.961 250.686C143.535 248.787 145.787 247.576 148.238 247.309C150.69 247.042 153.149 247.741 155.095 249.256L185.257 273.004L209.231 263.725L217.971 278.827Z" fill="#CCCCCC"/>
<path d="M141.979 220.584C144.741 217.122 149.902 216.936 153.696 214.652C158.665 211.661 160.72 204.976 159.118 199.4C157.517 193.823 152.794 189.478 147.379 187.399C141.964 185.321 135.939 185.295 130.227 186.3C121.722 187.796 113.349 191.767 108.162 198.673C102.975 205.58 101.655 215.695 106.356 222.941C108.516 226.272 111.851 229.021 112.714 232.896C113.846 237.984 110.279 242.892 106.457 246.435C102.103 250.471 97.1072 253.851 93.2924 258.401C89.4776 262.951 86.9338 269.167 88.6745 274.845C90.133 279.602 94.3771 283.106 99.031 284.861C103.685 286.616 108.754 286.87 113.726 286.967C118.555 287.062 123.684 286.944 127.751 284.34C132.106 281.551 134.431 276.262 134.603 271.092C134.775 265.923 133.048 260.859 130.734 256.233C129.354 253.477 127.751 250.805 126.834 247.862C125.917 244.919 125.759 241.579 127.226 238.868C128.769 236.019 131.891 234.3 135.07 233.676C135.235 233.643 135.409 233.614 135.592 233.588C136.497 233.471 137.368 233.171 138.153 232.708C138.938 232.244 139.622 231.625 140.161 230.89C140.701 230.155 141.086 229.317 141.293 228.429C141.5 227.54 141.524 226.619 141.365 225.721C141.003 223.701 141.034 221.769 141.979 220.584Z" fill="#2F2E41"/>
<path d="M440.488 517.322H429.312L423.996 474.2L440.49 474.201L440.488 517.322Z" fill="#A0616A"/>
<path d="M421.33 514.127H442.883V527.703H407.76C407.76 525.92 408.111 524.155 408.793 522.508C409.475 520.861 410.474 519.364 411.734 518.104C412.994 516.843 414.49 515.843 416.137 515.161C417.783 514.479 419.548 514.127 421.33 514.127Z" fill="#2F2E41"/>
<path d="M521.575 504.658L511.41 509.303L488.663 472.29L503.667 465.434L521.575 504.658Z" fill="#A0616A"/>
<path d="M502.822 509.715L522.427 500.757L528.065 513.106L496.117 527.703C495.376 526.082 494.963 524.33 494.899 522.549C494.835 520.767 495.123 518.99 495.745 517.32C496.368 515.65 497.314 514.118 498.528 512.813C499.742 511.509 501.201 510.456 502.822 509.715Z" fill="#2F2E41"/>
<path d="M489.03 371.926C490.101 371.12 490.982 370.088 491.611 368.905C492.241 367.721 492.603 366.414 492.672 365.075C492.742 363.736 492.517 362.399 492.014 361.156C491.511 359.914 490.742 358.797 489.761 357.884L502.898 328.065L486.208 330.894L476.292 358.777C474.868 360.528 474.136 362.74 474.234 364.995C474.332 367.25 475.253 369.391 476.823 371.012C478.393 372.632 480.503 373.62 482.753 373.789C485.003 373.957 487.236 373.294 489.03 371.926Z" fill="#A0616A"/>
<path d="M439.776 505.952H429.1C428.064 505.948 427.068 505.555 426.31 504.849C425.552 504.144 425.087 503.179 425.008 502.146L419.186 346.613C419.143 346.017 419.23 345.419 419.442 344.86C419.654 344.301 419.985 343.796 420.413 343.378C420.841 342.961 421.354 342.642 421.918 342.444C422.481 342.246 423.081 342.174 423.676 342.232L485.42 348.791C486.42 348.889 487.35 349.351 488.033 350.09C488.716 350.828 489.103 351.792 489.123 352.798L490.417 421.405C490.423 421.777 490.496 422.146 490.63 422.493L515.957 488.198C516.153 488.706 516.246 489.247 516.23 489.791C516.215 490.335 516.092 490.87 515.867 491.366C515.643 491.862 515.323 492.308 514.924 492.678C514.526 493.049 514.058 493.337 513.548 493.524L502.729 497.512C501.79 497.858 500.756 497.849 499.823 497.485C498.89 497.122 498.122 496.429 497.664 495.539L466.55 435.017C466.38 434.688 466.256 434.337 466.181 433.975L460.866 408.356C460.712 407.613 460.299 406.95 459.7 406.484C459.101 406.019 458.356 405.782 457.598 405.816C456.841 405.851 456.12 406.154 455.566 406.671C455.011 407.189 454.659 407.887 454.573 408.641L443.851 502.315C443.737 503.316 443.258 504.24 442.507 504.911C441.755 505.581 440.783 505.952 439.776 505.952Z" fill="#2F2E41"/>
<path d="M445.092 225.002C457.457 225.002 467.48 214.974 467.48 202.604C467.48 190.235 457.457 180.207 445.092 180.207C432.727 180.207 422.703 190.235 422.703 202.604C422.703 214.974 432.727 225.002 445.092 225.002Z" fill="#A0616A"/>
<path d="M460.446 360.834C445.263 360.667 430.442 356.176 417.719 347.887L417.501 347.737L417.523 347.472L426.087 247.696C426.382 244.311 427.893 241.147 430.339 238.79C432.786 236.433 436.002 235.041 439.395 234.873C450.494 234.363 465.402 235.006 473.383 240.952C485.443 249.939 491.256 263.471 489.331 278.078C485.338 308.37 489.861 349.233 490.39 353.793L490.428 354.121L490.128 354.259C480.83 358.586 470.7 360.83 460.446 360.834Z" fill="#5BC0EB"/>
<path d="M490.287 353.962C489.656 353.961 489.032 353.829 488.454 353.574C487.877 353.319 487.358 352.948 486.932 352.483L482.034 347.138C481.505 346.557 481.134 345.849 480.957 345.084C480.78 344.318 480.803 343.52 481.023 342.765L492.19 304.954L475.199 269.259C474.406 267.588 474.211 265.695 474.649 263.898C475.034 262.32 475.889 260.896 477.1 259.814C478.311 258.732 479.821 258.043 481.431 257.837C483.042 257.631 484.677 257.919 486.121 258.661C487.565 259.404 488.75 260.567 489.519 261.997L512.577 299.424C513.513 300.942 514.063 302.667 514.177 304.448C514.292 306.228 513.968 308.009 513.233 309.635L494.446 351.277C494.137 351.966 493.661 352.566 493.061 353.025C492.462 353.483 491.758 353.785 491.013 353.903C490.773 353.942 490.53 353.962 490.287 353.962Z" fill="#5BC0EB"/>
<path d="M332.477 281.734C333.552 282.534 334.79 283.089 336.103 283.359C337.415 283.629 338.771 283.607 340.075 283.296C341.378 282.985 342.598 282.392 343.647 281.559C344.697 280.725 345.551 279.671 346.149 278.472L378.453 282.663L371.029 267.445L341.491 265.798C339.41 264.926 337.082 264.848 334.947 265.578C332.812 266.308 331.02 267.797 329.908 269.761C328.797 271.725 328.445 274.029 328.919 276.236C329.392 278.443 330.658 280.399 332.477 281.734V281.734Z" fill="#A0616A"/>
<path d="M403.68 290.046C403.117 290.046 402.555 290.007 401.998 289.93L351.178 282.878C350.348 282.764 349.559 282.445 348.882 281.95C348.206 281.455 347.663 280.799 347.304 280.041C347.187 279.797 347.091 279.544 347.014 279.285H347.014C346.817 278.612 346.762 277.905 346.852 277.21C346.943 276.514 347.176 275.845 347.538 275.244L351.743 268.269C352.196 267.523 352.832 266.907 353.591 266.478C354.35 266.049 355.207 265.822 356.079 265.82H356.085L400.383 265.87L433.467 236.218C435.006 234.842 436.972 234.037 439.034 233.939C440.844 233.855 442.638 234.322 444.178 235.278C445.718 236.235 446.932 237.636 447.659 239.296C448.387 240.957 448.595 242.799 448.255 244.58C447.914 246.361 447.043 247.997 445.754 249.273L412.742 286.002C411.6 287.275 410.203 288.292 408.641 288.989C407.08 289.686 405.389 290.046 403.68 290.046Z" fill="#5BC0EB"/>
<path d="M447.637 222.53C449.683 217.793 451.414 211.484 447.49 208.135C445.214 206.192 441.935 206.188 438.953 205.947C430.551 205.266 421.902 201.398 417.795 194.034C413.688 186.67 415.982 175.719 423.729 172.396C428.952 170.157 434.939 171.683 440.406 173.233L456.819 177.889C461.696 179.273 466.816 180.799 470.327 184.456C475.927 190.29 475.508 200.152 471.061 206.906C466.613 213.66 459.916 220.703 452.248 223.268L447.637 222.53Z" fill="#2F2E41"/>
<path d="M674.078 528H1.0854C0.942607 528 0.801136 527.973 0.669089 527.918C0.537043 527.864 0.417028 527.784 0.315908 527.683C0.214788 527.582 0.134556 527.462 0.0798137 527.33C0.0250716 527.198 -0.00311279 527.057 -0.00311279 526.914C-0.00311279 526.771 0.0250716 526.63 0.0798137 526.498C0.134556 526.366 0.214788 526.246 0.315908 526.145C0.417028 526.044 0.537043 525.965 0.669089 525.91C0.801136 525.856 0.942607 525.828 1.0854 525.828H674.078C674.221 525.828 674.362 525.856 674.495 525.91C674.627 525.965 674.747 526.044 674.848 526.145C674.949 526.246 675.029 526.366 675.084 526.498C675.139 526.63 675.167 526.771 675.167 526.914C675.167 527.057 675.139 527.198 675.084 527.33C675.029 527.462 674.949 527.582 674.848 527.683C674.747 527.784 674.627 527.864 674.495 527.918C674.362 527.973 674.221 528 674.078 528Z" fill="#3F3D56"/>
</g>
<defs>
<clipPath id="clip0">
<rect width="749" height="528" fill="white"/>
</clipPath>
</defs>
</svg>
