<svg width="752" height="437" viewBox="0 0 752 437" fill="none" xmlns="http://www.w3.org/2000/svg">
<g clip-path="url(#clip0)">
<path d="M291.968 391.542C287.922 392.922 283.577 393.267 279.353 392.545C275.129 391.824 271.168 390.059 267.851 387.422C259.404 380.546 256.756 369.219 254.601 358.73L248.227 327.706L261.571 336.617C271.168 343.025 280.98 349.639 287.625 358.92C294.269 368.202 297.169 380.873 291.831 390.916" fill="#F5F9E9"/>
<path d="M290.827 429.103C292.178 419.562 293.567 409.899 292.619 400.256C291.778 391.692 289.084 383.327 283.599 376.469C280.688 372.835 277.145 369.722 273.13 367.269C272.084 366.628 271.12 368.237 272.162 368.875C279.109 373.132 284.481 379.419 287.506 386.829C290.846 395.069 291.383 404.051 290.807 412.804C290.459 418.098 289.721 423.356 288.978 428.608C288.919 428.846 288.956 429.096 289.08 429.308C289.204 429.521 289.407 429.679 289.648 429.752C289.893 429.816 290.154 429.784 290.375 429.663C290.596 429.541 290.758 429.34 290.827 429.103Z" fill="#F5F9E9"/>
<path d="M277.819 412.22C276.083 414.778 273.698 416.86 270.892 418.264C268.087 419.668 264.955 420.348 261.8 420.238C253.691 419.865 246.931 414.376 240.845 409.166L222.846 393.753L234.759 393.2C243.326 392.803 252.113 392.432 260.273 394.994C268.433 397.556 275.958 403.722 277.45 411.913" fill="#F5F9E9"/>
<path d="M294.644 434.588C288.144 423.432 280.603 411.035 267.13 407.072C263.384 405.974 259.456 405.581 255.558 405.913C254.329 406.016 254.636 407.853 255.862 407.75C262.397 407.224 268.919 408.898 274.33 412.489C279.538 415.926 283.592 420.705 287.024 425.773C289.126 428.877 291.009 432.113 292.892 435.345C293.494 436.378 295.253 435.632 294.644 434.587V434.588Z" fill="#F5F9E9"/>
<path d="M468.881 211.12L327.156 325.036C325.372 326.466 323.077 327.152 320.773 326.943C318.469 326.733 316.345 325.647 314.867 323.92L255.123 254.013C253.648 252.283 252.941 250.057 253.157 247.823C253.372 245.589 254.493 243.529 256.273 242.095L397.999 128.179C399.782 126.749 402.077 126.063 404.381 126.273C406.685 126.482 408.809 127.569 410.288 129.295L470.032 199.202C471.506 200.932 472.213 203.158 471.998 205.392C471.782 207.626 470.661 209.686 468.881 211.12Z" fill="#CCCCCC"/>
<path d="M463.202 207.69L324.734 318.987C323.816 319.724 322.633 320.077 321.446 319.969C320.259 319.862 319.165 319.302 318.403 318.412L261.36 251.664C260.6 250.774 260.236 249.627 260.347 248.476C260.458 247.325 261.035 246.264 261.952 245.525L400.42 134.228C401.339 133.491 402.521 133.138 403.708 133.246C404.895 133.354 405.989 133.913 406.751 134.803L463.794 201.551C464.554 202.442 464.918 203.588 464.807 204.739C464.696 205.89 464.119 206.952 463.202 207.69Z" fill="#F5F9E9"/>
<path d="M469.585 230.988L441.106 228.403L461.489 212.845L472.47 225.693C472.898 226.184 473.163 226.788 473.231 227.427C473.299 228.066 473.167 228.71 472.851 229.275C472.644 229.659 472.361 229.999 472.018 230.276C471.681 230.545 471.293 230.746 470.875 230.869C470.458 230.991 470.019 231.031 469.585 230.988Z" fill="#CCCCCC"/>
<path d="M412.394 181.517L342.345 237.82C341.917 238.164 341.424 238.423 340.893 238.582C340.362 238.741 339.804 238.797 339.251 238.746C338.697 238.696 338.16 238.541 337.668 238.289C337.177 238.037 336.741 237.694 336.387 237.279C336.032 236.864 335.765 236.386 335.602 235.871C335.438 235.356 335.38 234.814 335.432 234.278C335.484 233.741 335.644 233.22 335.903 232.743C336.163 232.267 336.517 231.845 336.945 231.501L406.993 175.198C407.421 174.854 407.914 174.595 408.445 174.436C408.976 174.277 409.534 174.221 410.088 174.271C410.641 174.322 411.179 174.477 411.67 174.729C412.161 174.98 412.597 175.324 412.951 175.738C413.306 176.153 413.573 176.632 413.737 177.147C413.901 177.662 413.958 178.203 413.906 178.74C413.855 179.276 413.694 179.798 413.435 180.274C413.175 180.751 412.821 181.173 412.394 181.517Z" fill="#CCCCCC"/>
<path d="M378.111 186.42L330.869 224.392C330.005 225.086 328.892 225.419 327.774 225.318C326.657 225.216 325.627 224.689 324.911 223.851C324.194 223.013 323.851 221.933 323.956 220.849C324.06 219.766 324.604 218.767 325.468 218.072L372.71 180.1C373.574 179.406 374.688 179.073 375.805 179.174C376.922 179.276 377.952 179.803 378.669 180.641C379.385 181.479 379.728 182.559 379.624 183.643C379.519 184.726 378.975 185.725 378.111 186.42Z" fill="#CCCCCC"/>
<path d="M304.91 264.078C312.213 264.078 318.134 258.336 318.134 251.253C318.134 244.17 312.213 238.429 304.91 238.429C297.607 238.429 291.686 244.17 291.686 251.253C291.686 258.336 297.607 264.078 304.91 264.078Z" fill="#5BC0EB"/>
<path d="M410.099 225.547C412.437 225.547 414.331 223.709 414.331 221.443C414.331 219.176 412.437 217.339 410.099 217.339C407.762 217.339 405.868 219.176 405.868 221.443C405.868 223.709 407.762 225.547 410.099 225.547Z" fill="#F5F9E9"/>
<path d="M421.503 216.381C423.84 216.381 425.734 214.544 425.734 212.277C425.734 210.011 423.84 208.173 421.503 208.173C419.166 208.173 417.271 210.011 417.271 212.277C417.271 214.544 419.166 216.381 421.503 216.381Z" fill="#F5F9E9"/>
<path d="M432.906 207.215C435.243 207.215 437.137 205.378 437.137 203.112C437.137 200.845 435.243 199.008 432.906 199.008C430.569 199.008 428.674 200.845 428.674 203.112C428.674 205.378 430.569 207.215 432.906 207.215Z" fill="#F5F9E9"/>
<path d="M365.459 427.441L375.174 427.44L379.796 391.1L365.458 391.101L365.459 427.441Z" fill="#FFB8B8"/>
<path d="M362.982 424.365L382.113 424.364H382.114C383.715 424.364 385.301 424.67 386.78 425.264C388.259 425.858 389.603 426.729 390.736 427.827C391.868 428.925 392.766 430.229 393.379 431.663C393.991 433.098 394.307 434.636 394.307 436.188V436.573L362.982 436.574L362.982 424.365Z" fill="#2F2E41"/>
<path d="M330.593 427.441L340.308 427.44L344.93 391.1L330.592 391.101L330.593 427.441Z" fill="#FFB8B8"/>
<path d="M328.115 424.365L347.247 424.364H347.248C348.849 424.364 350.435 424.67 351.914 425.264C353.393 425.858 354.737 426.729 355.869 427.827C357.002 428.925 357.9 430.229 358.512 431.663C359.125 433.098 359.441 434.636 359.44 436.188V436.573L328.116 436.574L328.115 424.365Z" fill="#2F2E41"/>
<path d="M340.342 416.322H340.34L332.079 416.32C331.155 416.323 330.266 415.976 329.601 415.354C328.936 414.731 328.547 413.882 328.517 412.986L328.257 405.977C326.169 349.923 324.009 291.961 337.384 265.909L337.488 265.704L381.769 264.15L390.658 343.236C391.038 346.609 390.899 350.018 390.246 353.352L378.494 413.408C378.335 414.222 377.88 414.954 377.212 415.47C376.543 415.986 375.705 416.252 374.852 416.219L365.572 415.927C365.086 415.908 364.609 415.794 364.171 415.59C363.732 415.386 363.341 415.097 363.022 414.741C362.703 414.386 362.462 413.97 362.314 413.521C362.167 413.071 362.115 412.598 362.163 412.128L369.453 356.583C369.701 354.185 369.477 351.764 368.791 349.448L359.726 318.713C359.651 318.459 359.488 318.238 359.265 318.086C359.042 317.934 358.771 317.862 358.499 317.88C358.228 317.899 357.97 318.007 357.771 318.188C357.572 318.368 357.443 318.61 357.405 318.872L343.874 413.339C343.752 414.165 343.329 414.921 342.68 415.468C342.032 416.016 341.202 416.319 340.342 416.322Z" fill="#2F2E41"/>
<path d="M345.637 185.083C356.386 185.083 365.1 176.632 365.1 166.208C365.1 155.784 356.386 147.333 345.637 147.333C334.889 147.333 326.175 155.784 326.175 166.208C326.175 176.632 334.889 185.083 345.637 185.083Z" fill="#FFB8B8"/>
<path d="M379.693 269.988H339.42C338.908 269.988 338.402 269.881 337.937 269.675C337.472 269.468 337.057 269.167 336.723 268.792C336.388 268.416 336.14 267.975 335.997 267.499C335.853 267.022 335.818 266.521 335.891 266.03L337.881 252.815L326.198 221.65C324.992 218.433 324.543 214.995 324.886 211.588C325.229 208.18 326.353 204.891 328.178 201.96C330.002 199.029 332.48 196.532 335.43 194.651C338.379 192.77 341.725 191.554 345.223 191.09C350.206 190.416 355.28 191.307 359.704 193.633C364.127 195.958 367.666 199.596 369.804 204.013L372.37 209.308L383.199 265.9C383.295 266.399 383.276 266.912 383.143 267.403C383.011 267.894 382.769 268.351 382.435 268.741C382.1 269.132 381.681 269.446 381.207 269.661C380.733 269.877 380.216 269.988 379.693 269.988H379.693Z" fill="#5BC0EB"/>
<path d="M294.678 303.138C295.89 302.865 297.026 302.337 298.005 301.592C298.984 300.848 299.783 299.904 300.346 298.827C300.908 297.75 301.22 296.567 301.26 295.361C301.3 294.155 301.067 292.955 300.577 291.845L331.958 223.087L314.007 218.702L288.804 287.668C286.937 288.59 285.484 290.144 284.719 292.036C283.954 293.928 283.932 296.026 284.656 297.933C285.38 299.839 286.8 301.423 288.647 302.382C290.494 303.341 292.64 303.61 294.678 303.138H294.678Z" fill="#FFB8B8"/>
<path d="M327.71 235.384L310.251 227.458C309.754 227.233 309.313 226.906 308.958 226.501C308.603 226.095 308.343 225.62 308.194 225.108C308.046 224.596 308.013 224.059 308.098 223.533C308.183 223.008 308.383 222.506 308.686 222.062L319.297 206.522C320.502 204.065 322.662 202.172 325.304 201.257C327.946 200.342 330.854 200.479 333.391 201.64C335.929 202.801 337.888 204.889 338.84 207.448C339.793 210.007 339.66 212.828 338.472 215.293L332.985 233.093C332.828 233.603 332.559 234.073 332.197 234.473C331.836 234.873 331.389 235.192 330.889 235.41C330.388 235.627 329.845 235.738 329.296 235.733C328.748 235.729 328.207 235.61 327.71 235.384H327.71Z" fill="#5BC0EB"/>
<path d="M425.585 126.203C425.964 127.353 426.079 128.569 425.921 129.766C425.763 130.963 425.336 132.112 424.67 133.132C424.005 134.152 423.117 135.018 422.069 135.669C421.021 136.32 419.839 136.74 418.605 136.9L373.779 198.252L360.702 185.544L408.877 129.233C408.737 127.206 409.369 125.199 410.653 123.593C411.937 121.987 413.784 120.894 415.843 120.521C417.903 120.147 420.032 120.52 421.828 121.567C423.623 122.614 424.96 124.264 425.585 126.203Z" fill="#FFB8B8"/>
<path d="M384.145 191.05C384.209 191.579 384.155 192.114 383.986 192.62C383.817 193.126 383.538 193.591 383.167 193.983L370.211 207.669C368.638 209.923 366.207 211.479 363.452 211.998C360.697 212.516 357.842 211.954 355.514 210.434C353.186 208.914 351.574 206.561 351.033 203.891C350.491 201.22 351.063 198.45 352.623 196.188L360.954 179.391C361.191 178.912 361.533 178.488 361.955 178.148C362.377 177.808 362.869 177.561 363.399 177.422C363.928 177.283 364.483 177.257 365.024 177.345C365.565 177.433 366.08 177.633 366.534 177.931L382.495 188.416C382.949 188.714 383.332 189.104 383.616 189.558C383.901 190.013 384.082 190.522 384.145 191.05Z" fill="#5BC0EB"/>
<path d="M371.21 158.308C371.197 156.599 370.953 154.9 370.482 153.254C367.346 142.017 355.77 135.273 344.154 136.965C341.895 136.337 339.556 136.019 337.206 136.021C331.227 136.022 325.445 138.095 320.904 141.867C316.364 145.639 313.364 150.862 312.446 156.591L303.062 215.175H353.777L361.965 164.052C362.269 162.152 362.341 160.224 362.179 158.308H371.21Z" fill="#2F2E41"/>
<path d="M434.242 437H267.043C266.833 437 266.632 436.919 266.483 436.775C266.334 436.631 266.251 436.435 266.251 436.232C266.251 436.028 266.334 435.832 266.483 435.688C266.632 435.544 266.833 435.463 267.043 435.463H434.242C434.453 435.463 434.654 435.544 434.803 435.688C434.951 435.832 435.035 436.028 435.035 436.232C435.035 436.435 434.951 436.631 434.803 436.775C434.654 436.919 434.453 437 434.242 437Z" fill="#CCCCCC"/>
<path d="M602.686 59.6862C603.845 59.578 605.015 59.7176 606.113 60.0953C607.211 60.4731 608.21 61.0796 609.04 61.8723C609.87 62.665 610.511 63.6246 610.917 64.6834C611.323 65.7422 611.485 66.8745 611.392 68.0006L637.309 79.0629L624.946 86.8022L602.23 75.1107C600.29 74.8325 598.522 73.8737 597.262 72.4161C596.002 70.9585 595.337 69.1033 595.393 67.202C595.45 65.3007 596.223 63.4855 597.567 62.1003C598.911 60.7151 600.732 59.8561 602.686 59.6862V59.6862Z" fill="#A0616A"/>
<path d="M707.23 45.8867C717.979 45.8867 726.693 37.4362 726.693 27.0119C726.693 16.5877 717.979 8.13721 707.23 8.13721C696.481 8.13721 687.768 16.5877 687.768 27.0119C687.768 37.4362 696.481 45.8867 707.23 45.8867Z" fill="#A0616A"/>
<path d="M672.006 296.146L662.291 296.145L657.67 259.805L672.008 259.806L672.006 296.146Z" fill="#A0616A"/>
<path d="M674.483 305.278L643.159 305.277V304.893C643.159 303.34 643.474 301.802 644.087 300.368C644.7 298.933 645.598 297.63 646.73 296.532C647.862 295.434 649.206 294.563 650.685 293.969C652.165 293.374 653.75 293.069 655.351 293.069H655.352L674.484 293.069L674.483 305.278Z" fill="#2F2E41"/>
<path d="M712.419 296.146L702.704 296.145L698.083 259.805L712.421 259.806L712.419 296.146Z" fill="#A0616A"/>
<path d="M714.896 305.278L683.572 305.277V304.893C683.572 303.34 683.887 301.802 684.5 300.368C685.113 298.933 686.011 297.63 687.143 296.532C688.275 295.434 689.619 294.563 691.098 293.969C692.578 293.374 694.163 293.069 695.764 293.069H695.765L714.897 293.069L714.896 305.278Z" fill="#2F2E41"/>
<path d="M711.958 288.406C711.813 288.405 711.668 288.397 711.523 288.379L697.303 286.682C696.47 286.583 695.7 286.203 695.128 285.607C694.556 285.012 694.219 284.24 694.177 283.427L690.034 192.928C690.019 192.671 689.917 192.426 689.743 192.232C689.569 192.038 689.333 191.906 689.073 191.857C688.812 191.808 688.543 191.845 688.307 191.962C688.07 192.079 687.881 192.269 687.769 192.502L677.124 226.918L674.931 282.2C674.913 282.677 674.792 283.144 674.578 283.574C674.364 284.003 674.06 284.385 673.686 284.695C673.312 285.005 672.876 285.236 672.406 285.375C671.935 285.514 671.44 285.556 670.951 285.5L658.637 284.095C657.756 283.997 656.945 283.584 656.363 282.936C655.781 282.288 655.469 281.452 655.489 280.593L656.534 228.556L664.877 146.873L665.25 146.886L715.982 148.783L715.525 284.959C715.521 285.874 715.144 286.75 714.476 287.397C713.807 288.043 712.902 288.405 711.958 288.406H711.958Z" fill="#2F2E41"/>
<path d="M714.059 156.247C714.028 156.247 713.997 156.247 713.966 156.246L662.872 154.948C662.371 154.935 661.879 154.82 661.427 154.611C660.975 154.401 660.574 154.101 660.249 153.731C659.925 153.361 659.684 152.929 659.543 152.463C659.403 151.996 659.365 151.506 659.432 151.025L669.25 80.946C669.864 76.2141 671.499 71.6608 674.049 67.5834C676.6 63.506 680.009 59.9961 684.053 57.2828C687.61 54.9079 691.651 53.2987 695.902 52.5635C700.154 51.8282 704.519 51.9839 708.703 53.0201C726.538 57.4029 737.236 75.9748 732.553 94.4199L717.522 153.616C717.328 154.365 716.883 155.03 716.256 155.507C715.629 155.983 714.856 156.243 714.059 156.247Z" fill="#3F3D56"/>
<path d="M647.029 100.598C643.662 100.602 640.367 99.6524 637.548 97.8661L607.752 78.9077C607.316 78.6302 606.948 78.2634 606.674 77.8329C606.4 77.4025 606.226 76.919 606.166 76.4166C606.105 75.9141 606.16 75.4049 606.324 74.9249C606.489 74.4449 606.76 74.0058 607.119 73.6386L611.608 69.0427C612.097 68.5389 612.732 68.1898 613.429 68.0408C614.126 67.8918 614.853 67.9499 615.515 68.2074L648.798 81.0608L679.63 59.7076C681.072 58.7092 682.711 58.0119 684.445 57.6598C686.179 57.3077 687.97 57.3084 689.703 57.662C691.437 58.0155 693.076 58.7142 694.517 59.7138C695.958 60.7134 697.169 61.9921 698.074 63.4691C698.979 64.946 699.558 66.5891 699.774 68.2942C699.99 69.9994 699.84 71.7296 699.331 73.3753C698.822 75.021 697.967 76.5464 696.819 77.8549C695.671 79.1635 694.256 80.2268 692.662 80.9775L654.556 98.9272C652.21 100.029 649.636 100.601 647.029 100.598Z" fill="#3F3D56"/>
<path d="M713.974 45.0621C717.294 45.8225 721.3 46.4059 723.673 44.0286C724.093 43.5799 724.469 43.0935 724.795 42.5761L727.897 37.9826C730.274 34.4638 732.692 30.8531 733.698 26.7613C734.276 24.4101 734.367 21.971 733.965 19.5856C733.562 17.2002 732.675 14.9161 731.355 12.8659C730.035 10.8158 728.308 9.04047 726.274 7.64313C724.241 6.24579 721.941 5.25426 719.509 4.72617C714.877 3.72036 710.344 1.98977 705.608 2.30545C700.872 2.62113 695.319 2.51749 691.345 0C691.593 1.12234 692.931 6.08132 692.931 6.08132C692.931 6.08132 686.956 11.3982 685.757 12.724C687.326 12.0495 689.033 11.7328 690.748 11.7982C692.463 11.8637 694.139 12.3095 695.648 13.1015C697.158 13.8934 698.46 15.0104 699.454 16.3666C700.449 17.7228 701.11 19.2821 701.386 20.9246C701.725 22.9425 701.526 25.1805 702.762 26.8367C703.938 28.4119 706.047 28.9638 707.819 29.8734C710.374 31.285 712.325 33.5355 713.32 36.2191C714.314 38.9027 714.288 41.8427 713.244 44.5089L713.974 45.0621Z" fill="#2F2E41"/>
<path d="M690.606 163.007H529.279C527.251 163.004 525.307 162.222 523.873 160.831C522.439 159.441 521.632 157.555 521.63 155.588V76.0122C521.632 74.0454 522.439 72.1599 523.873 70.7692C525.307 69.3785 527.251 68.5962 529.279 68.594H690.606C692.634 68.5962 694.579 69.3785 696.012 70.7692C697.446 72.1599 698.253 74.0454 698.255 76.0122V155.588C698.253 157.555 697.446 159.441 696.012 160.831C694.579 162.222 692.634 163.004 690.606 163.007Z" fill="#CCCCCC"/>
<path d="M688.752 157.612H531.134C530.089 157.61 529.087 157.207 528.349 156.491C527.61 155.775 527.194 154.803 527.193 153.79V77.8105C527.194 76.7973 527.61 75.826 528.349 75.1095C529.087 74.3931 530.089 73.9901 531.134 73.989H688.752C689.797 73.9901 690.798 74.3931 691.537 75.1095C692.276 75.826 692.691 76.7973 692.692 77.8105V153.79C692.691 154.803 692.276 155.775 691.537 156.491C690.798 157.207 689.797 157.61 688.752 157.612Z" fill="#F5F9E9"/>
<path d="M679.624 176.795L661.897 159.604L684.624 160.161V174.786C684.63 175.349 684.46 175.901 684.138 176.369C683.815 176.838 683.354 177.2 682.816 177.41C682.455 177.557 682.067 177.633 681.676 177.634C681.294 177.633 680.916 177.558 680.563 177.414C680.211 177.27 679.892 177.059 679.624 176.795Z" fill="#CCCCCC"/>
<path d="M669.561 112.393H589.825C588.841 112.393 587.898 112.014 587.202 111.34C586.507 110.665 586.116 109.75 586.116 108.796C586.116 107.842 586.507 106.928 587.202 106.253C587.898 105.579 588.841 105.2 589.825 105.2H669.561C670.545 105.2 671.488 105.579 672.183 106.253C672.879 106.928 673.27 107.842 673.27 108.796C673.27 109.75 672.879 110.665 672.183 111.34C671.488 112.014 670.545 112.393 669.561 112.393Z" fill="#CCCCCC"/>
<path d="M643.6 97.1074H589.825C589.337 97.1081 588.854 97.0156 588.404 96.8351C587.953 96.6547 587.544 96.3899 587.199 96.0558C586.854 95.7218 586.58 95.325 586.393 94.8883C586.207 94.4516 586.111 93.9835 586.111 93.5107C586.111 93.038 586.207 92.5698 586.393 92.1331C586.58 91.6964 586.854 91.2997 587.199 90.9656C587.544 90.6316 587.953 90.3668 588.404 90.1863C588.854 90.0059 589.337 89.9134 589.825 89.9141H643.6C644.584 89.9141 645.527 90.293 646.223 90.9675C646.918 91.642 647.309 92.5568 647.309 93.5107C647.309 94.4646 646.918 95.3794 646.223 96.054C645.527 96.7285 644.584 97.1074 643.6 97.1074Z" fill="#CCCCCC"/>
<path d="M556.817 112.393C563.218 112.393 568.407 107.361 568.407 101.154C568.407 94.9462 563.218 89.9141 556.817 89.9141C550.417 89.9141 545.228 94.9462 545.228 101.154C545.228 107.361 550.417 112.393 556.817 112.393Z" fill="#5BC0EB"/>
<path d="M644.989 141.687C647.037 141.687 648.697 140.076 648.697 138.09C648.697 136.104 647.037 134.493 644.989 134.493C642.94 134.493 641.28 136.104 641.28 138.09C641.28 140.076 642.94 141.687 644.989 141.687Z" fill="#F5F9E9"/>
<path d="M657.969 141.687C660.017 141.687 661.678 140.076 661.678 138.09C661.678 136.104 660.017 134.493 657.969 134.493C655.921 134.493 654.26 136.104 654.26 138.09C654.26 140.076 655.921 141.687 657.969 141.687Z" fill="#F5F9E9"/>
<path d="M670.949 141.687C672.997 141.687 674.658 140.076 674.658 138.09C674.658 136.104 672.997 134.493 670.949 134.493C668.901 134.493 667.241 136.104 667.241 138.09C667.241 140.076 668.901 141.687 670.949 141.687Z" fill="#F5F9E9"/>
<path d="M688.108 153.543C688.236 152.42 688.617 151.338 689.223 150.373C689.828 149.408 690.645 148.584 691.615 147.958C692.585 147.333 693.685 146.921 694.836 146.752C695.988 146.583 697.164 146.661 698.282 146.98L714.751 124.641L720.032 137.961L703.583 157.133C702.905 158.917 701.576 160.399 699.847 161.297C698.118 162.195 696.109 162.446 694.202 162.004C692.294 161.561 690.62 160.456 689.497 158.896C688.374 157.337 687.88 155.432 688.108 153.543H688.108Z" fill="#A0616A"/>
<path d="M706.973 152.338C706.714 152.359 706.454 152.352 706.196 152.319C705.679 152.252 705.183 152.075 704.744 151.802C704.305 151.528 703.934 151.164 703.656 150.736L700.176 145.381C699.793 144.796 699.601 144.113 699.625 143.421C699.649 142.729 699.887 142.06 700.309 141.501L721.389 113.411L707.688 79.1547C706.464 76.1407 706.51 72.781 707.816 69.7997C709.123 66.8184 711.585 64.4543 714.671 63.2168C716.416 62.5074 718.3 62.1816 720.19 62.2629C722.079 62.3443 723.927 62.8307 725.599 63.6872C727.272 64.5437 728.728 65.749 729.863 67.2165C730.998 68.6839 731.783 70.377 732.163 72.174L740.663 112.422C741.255 115.26 741.08 118.199 740.157 120.953C739.234 123.707 737.593 126.183 735.393 128.141L709.077 151.446C708.497 151.96 707.757 152.274 706.973 152.338Z" fill="#3F3D56"/>
<path d="M751.208 307.126H584.008C583.798 307.126 583.597 307.045 583.448 306.901C583.3 306.757 583.216 306.562 583.216 306.358C583.216 306.154 583.3 305.959 583.448 305.814C583.597 305.67 583.798 305.589 584.008 305.589H751.208C751.418 305.589 751.619 305.67 751.768 305.814C751.917 305.959 752 306.154 752 306.358C752 306.562 751.917 306.757 751.768 306.901C751.619 307.045 751.418 307.126 751.208 307.126Z" fill="#CCCCCC"/>
<path d="M203.347 115.869H42.0202C39.9922 115.867 38.0479 115.084 36.6139 113.694C35.1799 112.303 34.3733 110.417 34.371 108.451V28.8745C34.3733 26.9077 35.1799 25.0222 36.6139 23.6315C38.0479 22.2408 39.9922 21.4585 42.0202 21.4563H203.347C205.375 21.4585 207.319 22.2408 208.753 23.6315C210.187 25.0222 210.994 26.9077 210.996 28.8745V108.451C210.994 110.417 210.187 112.303 208.753 113.694C207.319 115.084 205.375 115.867 203.347 115.869Z" fill="#CCCCCC"/>
<path d="M201.493 110.474H43.8745C42.8298 110.473 41.8282 110.07 41.0894 109.354C40.3507 108.637 39.9352 107.666 39.934 106.653V30.673C39.9352 29.6599 40.3507 28.6885 41.0894 27.9721C41.8282 27.2557 42.8298 26.8527 43.8745 26.8516H201.493C202.537 26.8527 203.539 27.2557 204.278 27.9721C205.017 28.6885 205.432 29.6599 205.433 30.673V106.653C205.432 107.666 205.017 108.637 204.278 109.354C203.539 110.07 202.537 110.473 201.493 110.474Z" fill="#F5F9E9"/>
<path d="M192.365 129.657L174.638 112.466L197.364 113.023V127.649C197.371 128.212 197.201 128.764 196.879 129.232C196.556 129.7 196.095 130.063 195.556 130.273C195.196 130.419 194.808 130.495 194.417 130.496C194.035 130.495 193.656 130.42 193.304 130.276C192.952 130.132 192.632 129.922 192.365 129.657Z" fill="#CCCCCC"/>
<path d="M182.302 65.2556H102.565C101.582 65.2556 100.639 64.8767 99.9431 64.2022C99.2476 63.5277 98.8568 62.6128 98.8568 61.6589C98.8568 60.705 99.2476 59.7902 99.9431 59.1157C100.639 58.4412 101.582 58.0623 102.565 58.0623H182.302C183.285 58.0623 184.229 58.4412 184.924 59.1157C185.62 59.7902 186.01 60.705 186.01 61.6589C186.01 62.6128 185.62 63.5277 184.924 64.2022C184.229 64.8767 183.285 65.2556 182.302 65.2556Z" fill="#CCCCCC"/>
<path d="M156.341 49.9697H102.565C101.582 49.9697 100.639 49.5908 99.9431 48.9163C99.2476 48.2418 98.8568 47.3269 98.8568 46.373C98.8568 45.4191 99.2476 44.5043 99.9431 43.8298C100.639 43.1553 101.582 42.7764 102.565 42.7764H156.341C157.325 42.7764 158.268 43.1553 158.964 43.8298C159.659 44.5043 160.05 45.4191 160.05 46.373C160.05 47.3269 159.659 48.2418 158.964 48.9163C158.268 49.5908 157.325 49.9697 156.341 49.9697Z" fill="#CCCCCC"/>
<path d="M69.5581 65.2555C75.9589 65.2555 81.1477 60.2234 81.1477 54.016C81.1477 47.8085 75.9589 42.7764 69.5581 42.7764C63.1574 42.7764 57.9686 47.8085 57.9686 54.016C57.9686 60.2234 63.1574 65.2555 69.5581 65.2555Z" fill="#5BC0EB"/>
<path d="M157.729 94.549C159.778 94.549 161.438 92.9388 161.438 90.9524C161.438 88.966 159.778 87.3557 157.729 87.3557C155.681 87.3557 154.021 88.966 154.021 90.9524C154.021 92.9388 155.681 94.549 157.729 94.549Z" fill="#F5F9E9"/>
<path d="M170.71 94.549C172.758 94.549 174.418 92.9388 174.418 90.9524C174.418 88.966 172.758 87.3557 170.71 87.3557C168.661 87.3557 167.001 88.966 167.001 90.9524C167.001 92.9388 168.661 94.549 170.71 94.549Z" fill="#F5F9E9"/>
<path d="M183.69 94.549C185.738 94.549 187.399 92.9388 187.399 90.9524C187.399 88.966 185.738 87.3557 183.69 87.3557C181.642 87.3557 179.981 88.966 179.981 90.9524C179.981 92.9388 181.642 94.549 183.69 94.549Z" fill="#F5F9E9"/>
<path d="M196.657 13.8107C195.561 14.1933 194.564 14.8044 193.738 15.6008C192.912 16.3973 192.276 17.3597 191.875 18.4203C191.474 19.481 191.317 20.614 191.416 21.7397C191.515 22.8653 191.868 23.9561 192.449 24.9354L173.89 45.6768L188.478 47.551L203.865 27.5672C205.496 26.5117 206.672 24.9124 207.169 23.0724C207.666 21.2325 207.45 19.2796 206.561 17.584C205.673 15.8883 204.174 14.5676 202.348 13.8722C200.523 13.1768 198.498 13.1549 196.657 13.8107Z" fill="#FFB8B8"/>
<path d="M72.742 22.1145C73.1379 23.177 73.2887 24.3108 73.1838 25.436C73.079 26.5611 72.721 27.6503 72.1352 28.6268C71.5493 29.6032 70.7499 30.4433 69.793 31.0877C68.8362 31.7321 67.7454 32.1652 66.5973 32.3566L61.979 59.4505L51.1804 49.7564L57.2215 25.5138C57.018 23.622 57.537 21.7235 58.6803 20.1781C59.8236 18.6326 61.5118 17.5476 63.4249 17.1286C65.338 16.7096 67.3431 16.9857 69.0603 17.9047C70.7775 18.8236 72.0875 20.3215 72.742 22.1145V22.1145Z" fill="#FFB8B8"/>
<path d="M101.745 296.146L111.46 296.145L116.081 259.805L101.743 259.806L101.745 296.146Z" fill="#FFB8B8"/>
<path d="M99.2669 293.069L118.399 293.069H118.4C120.001 293.069 121.586 293.374 123.065 293.969C124.545 294.563 125.889 295.434 127.021 296.532C128.153 297.63 129.051 298.933 129.664 300.368C130.277 301.802 130.592 303.34 130.592 304.893V305.277L99.2675 305.278L99.2669 293.069Z" fill="#2F2E41"/>
<path d="M51.823 296.146L61.538 296.145L66.1594 259.805L51.8214 259.806L51.823 296.146Z" fill="#FFB8B8"/>
<path d="M49.3449 293.069L68.4767 293.069H68.4775C70.0787 293.069 71.6641 293.374 73.1434 293.969C74.6226 294.563 75.9667 295.434 77.0989 296.532C78.2311 297.63 79.1292 298.933 79.7419 300.368C80.3546 301.802 80.67 303.34 80.67 304.893V305.277L49.3455 305.278L49.3449 293.069Z" fill="#2F2E41"/>
<path d="M99.717 48.0363C110.466 48.0363 119.18 39.5858 119.18 29.1616C119.18 18.7374 110.466 10.2869 99.717 10.2869C88.9682 10.2869 80.2545 18.7374 80.2545 29.1616C80.2545 39.5858 88.9682 48.0363 99.717 48.0363Z" fill="#FFB8B8"/>
<path d="M97.3841 284.073L95.7749 184.627C95.7708 184.346 95.6609 184.076 95.4658 183.868C95.2708 183.66 95.0041 183.528 94.7159 183.497C94.4277 183.467 94.138 183.539 93.9011 183.701C93.6643 183.864 93.4967 184.104 93.4299 184.378L67.0497 281.649C66.8512 282.428 66.3832 283.116 65.7239 283.6C65.0645 284.084 64.2539 284.334 63.4276 284.307L48.9343 283.706C48.4416 283.686 47.9587 283.566 47.516 283.356C47.0733 283.145 46.6804 282.847 46.3623 282.482C46.0442 282.116 45.8077 281.691 45.6677 281.232C45.5277 280.774 45.4874 280.292 45.5492 279.817L67.9339 154.817L67.9797 154.465L130.328 157.325L130.735 157.343L117.365 284.281C117.295 285.15 116.89 285.962 116.232 286.555C115.573 287.148 114.708 287.479 113.809 287.483H100.95C100.014 287.479 99.1165 287.12 98.45 286.483C97.7836 285.846 97.401 284.981 97.3841 284.073Z" fill="#2F2E41"/>
<path d="M146.628 165.749L56.1525 158.549C55.6064 158.505 55.0779 158.34 54.6082 158.067C54.1384 157.793 53.74 157.418 53.4439 156.971C53.1478 156.524 52.9619 156.017 52.9007 155.489C52.8395 154.961 52.9046 154.426 53.091 153.926L67.3391 115.724L68.159 70.3809C68.1887 68.7349 68.5552 67.111 69.2371 65.6034C69.919 64.0959 70.9028 62.7346 72.1313 61.5986C73.3599 60.4626 74.8089 59.5745 76.3941 58.9858C77.9794 58.3971 79.6694 58.1196 81.3661 58.1692L87.3829 52.8799H109.428L111.347 55.3204L126.686 57.6064C129.418 58.0246 131.939 59.2838 133.877 61.198C135.814 63.1122 137.066 65.5799 137.447 68.2368L150.454 161.842C150.522 162.33 150.481 162.827 150.335 163.299C150.188 163.77 149.94 164.206 149.606 164.578C149.272 164.949 148.859 165.246 148.397 165.45C147.935 165.655 147.433 165.761 146.925 165.761C146.826 165.761 146.727 165.758 146.628 165.749Z" fill="#2F2E41"/>
<path d="M129 62.002L167.578 51.0406L185.037 28.7486C185.517 28.1346 186.196 27.694 186.964 27.4968C187.733 27.2997 188.547 27.3572 189.278 27.6604L200.179 32.179C200.644 32.3716 201.061 32.6579 201.403 33.0187C201.745 33.3796 202.004 33.8069 202.163 34.2722C202.321 34.7375 202.376 35.2303 202.324 35.7178C202.271 36.2053 202.113 36.6764 201.858 37.0998L188.81 58.814C186.686 62.366 183.452 65.171 179.576 66.8238L134.201 86.276L129 62.002Z" fill="#2F2E41"/>
<path d="M54.9878 78.399C52.6824 76.7883 50.8439 74.6286 49.6497 72.1283C48.4555 69.6279 47.9459 66.8713 48.1701 64.1243L49.8631 42.3704C49.9329 41.5015 50.3376 40.69 50.9965 40.0974C51.6555 39.5048 52.5204 39.1746 53.4191 39.1726H53.4506L66.2337 39.2829C66.7573 39.2876 67.2735 39.404 67.7456 39.6239C68.2176 39.8439 68.6339 40.1619 68.9649 40.5555C69.2959 40.9491 69.5335 41.4085 69.6608 41.9011C69.788 42.3938 69.8019 42.9076 69.7013 43.406L67.3294 55.1419L84.2555 62.0778L70.0023 88.9694L54.9878 78.399Z" fill="#2F2E41"/>
<path d="M111.039 6.52918C111.039 6.52918 90.686 -4.09911 79.5922 8.44454C68.4984 20.9882 83.8188 40.6037 83.8188 40.6037L105.648 43.2737C105.648 43.2737 106.441 28.8827 111.638 29.1621C116.836 29.4415 132.977 11.2822 111.039 6.52918Z" fill="#2F2E41"/>
<path d="M167.992 306.358H0.792413C0.582252 306.358 0.380698 306.277 0.232092 306.133C0.0834855 305.989 0 305.793 0 305.589C0 305.385 0.0834855 305.19 0.232092 305.046C0.380698 304.902 0.582252 304.821 0.792413 304.821H167.992C168.202 304.821 168.403 304.902 168.552 305.046C168.7 305.19 168.784 305.385 168.784 305.589C168.784 305.793 168.7 305.989 168.552 306.133C168.403 306.277 168.202 306.358 167.992 306.358Z" fill="#CCCCCC"/>
</g>
<defs>
<clipPath id="clip0">
<rect width="752" height="437" fill="white"/>
</clipPath>
</defs>
</svg>
