<svg width="748" height="476" viewBox="0 0 748 476" fill="none" xmlns="http://www.w3.org/2000/svg">
<g clip-path="url(#clip0)">
<path d="M599.094 356.401H32.4833V358.41H599.094V356.401Z" fill="#3F3D56"/>
<path d="M649.148 0H0V315.821H649.148V0Z" fill="#3F3D56"/>
<path opacity="0.1" d="M649.148 24.294V15.6175H629.188V0H620.51V15.6175H28.6389V0H19.9605V15.6175H0V24.294H19.9605V291.527H0V300.204H19.9605V315.821H28.6389V300.204H620.51V315.821H629.188V300.204H649.148V291.527H629.188V24.294H649.148ZM620.51 291.527H28.6389V24.294H620.51L620.51 291.527Z" fill="black"/>
<path d="M389.276 41.6468H286.922V138.987H389.276V41.6468Z" fill="#D0CDE1"/>
<path d="M377.645 53.2753H298.553V113.743H377.645V53.2753Z" fill="#5BC0EB"/>
<path d="M343.685 63.2125H315.957V90.9337H343.685V63.2125Z" fill="#F5F9E9"/>
<path d="M326.572 70.1446V103.806H360.241V70.1446H326.572ZM358.781 102.346H328.032V71.6047H358.781V102.346Z" fill="#3F3D56"/>
<path d="M341.495 119.745H298.475V122.009H341.495V119.745Z" fill="#F5F9E9"/>
<path d="M338.099 51.8335C340.6 51.8335 342.628 49.8065 342.628 47.3061C342.628 44.8056 340.6 42.7786 338.099 42.7786C335.598 42.7786 333.571 44.8056 333.571 47.3061C333.571 49.8065 335.598 51.8335 338.099 51.8335Z" fill="#3F3D56"/>
<path d="M427.88 182.04H325.525V279.38H427.88V182.04Z" fill="#D0CDE1"/>
<path d="M416.248 193.669H337.156V254.137H416.248V193.669Z" fill="#5BC0EB"/>
<path d="M380.099 261.271H337.078V263.534H380.099V261.271Z" fill="#F5F9E9"/>
<path d="M380.099 268.062H337.078V270.326H380.099V268.062Z" fill="#F5F9E9"/>
<path d="M351.229 232.974C356.231 232.974 360.286 228.92 360.286 223.919C360.286 218.918 356.231 214.864 351.229 214.864C346.227 214.864 342.172 218.918 342.172 223.919C342.172 228.92 346.227 232.974 351.229 232.974Z" fill="#3F3D56"/>
<path d="M376.702 232.974C381.704 232.974 385.759 228.92 385.759 223.919C385.759 218.918 381.704 214.864 376.702 214.864C371.7 214.864 367.645 218.918 367.645 223.919C367.645 228.92 371.7 232.974 376.702 232.974Z" fill="#F5F9E9"/>
<path d="M402.175 232.974C407.177 232.974 411.232 228.92 411.232 223.919C411.232 218.918 407.177 214.864 402.175 214.864C397.173 214.864 393.118 218.918 393.118 223.919C393.118 228.92 397.173 232.974 402.175 232.974Z" fill="#FF6584"/>
<path d="M376.702 192.227C379.203 192.227 381.231 190.2 381.231 187.7C381.231 185.199 379.203 183.172 376.702 183.172C374.201 183.172 372.174 185.199 372.174 187.7C372.174 190.2 374.201 192.227 376.702 192.227Z" fill="#3F3D56"/>
<path d="M271.232 151.627H168.877V248.967H271.232V151.627Z" fill="#D0CDE1"/>
<path d="M259.6 163.255H180.508V223.723H259.6V163.255Z" fill="#5BC0EB"/>
<path d="M214.788 219.754C225.393 219.754 233.99 211.159 233.99 200.556C233.99 189.953 225.393 181.358 214.788 181.358C204.183 181.358 195.585 189.953 195.585 200.556C195.585 211.159 204.183 219.754 214.788 219.754Z" fill="#F5F9E9"/>
<path d="M220.448 215.364C215.686 215.364 211.031 213.952 207.072 211.307C203.113 208.662 200.027 204.903 198.205 200.505C196.383 196.107 195.906 191.267 196.835 186.598C197.764 181.929 200.057 177.64 203.424 174.274C206.791 170.908 211.081 168.616 215.751 167.687C220.421 166.758 225.262 167.235 229.661 169.057C234.06 170.878 237.82 173.963 240.466 177.922C243.111 181.88 244.523 186.534 244.523 191.294C244.516 197.675 241.977 203.794 237.464 208.306C232.95 212.818 226.831 215.357 220.448 215.364ZM220.448 168.1C215.859 168.1 211.374 169.46 207.558 172.009C203.743 174.557 200.77 178.18 199.014 182.418C197.258 186.656 196.798 191.32 197.694 195.819C198.589 200.318 200.798 204.451 204.043 207.695C207.287 210.939 211.421 213.148 215.922 214.043C220.422 214.938 225.087 214.478 229.326 212.723C233.565 210.967 237.188 207.994 239.738 204.18C242.287 200.366 243.648 195.881 243.648 191.294C243.641 185.145 241.194 179.249 236.845 174.901C232.496 170.552 226.599 168.107 220.448 168.1Z" fill="#3F3D56"/>
<path d="M223.451 236.516H180.43V238.78H223.451V236.516Z" fill="#F5F9E9"/>
<path d="M240.433 229.725H180.43V231.989H240.433V229.725Z" fill="#F5F9E9"/>
<path d="M220.054 161.813C222.555 161.813 224.583 159.786 224.583 157.286C224.583 154.785 222.555 152.758 220.054 152.758C217.553 152.758 215.526 154.785 215.526 157.286C215.526 159.786 217.553 161.813 220.054 161.813Z" fill="#3F3D56"/>
<path d="M158.733 39.9115H56.3783V137.252H158.733V39.9115Z" fill="#D0CDE1"/>
<path d="M147.102 51.54H68.0096V112.008H147.102V51.54Z" fill="#5BC0EB"/>
<path d="M116.063 98.8775H99.0482V103.919H116.063V98.8775Z" fill="#3F3D56"/>
<path d="M136.633 59.6295H78.4779V61.7899H136.633V59.6295Z" fill="#3F3D56"/>
<path d="M136.633 66.4709H78.4779V68.6313H136.633V66.4709Z" fill="#3F3D56"/>
<path d="M136.633 73.3123H78.4779V75.4727H136.633V73.3123Z" fill="#3F3D56"/>
<path d="M136.633 80.1537H78.4779V82.3141H136.633V80.1537Z" fill="#3F3D56"/>
<path d="M136.633 86.9951H78.4779V89.1556H136.633V86.9951Z" fill="#3F3D56"/>
<path d="M110.952 118.01H67.9312V120.274H110.952V118.01Z" fill="#F5F9E9"/>
<path d="M127.934 123.669H67.9312V125.933H127.934V123.669Z" fill="#F5F9E9"/>
<path d="M107.556 50.0982C110.057 50.0982 112.084 48.0712 112.084 45.5708C112.084 43.0703 110.057 41.0433 107.556 41.0433C105.055 41.0433 103.027 43.0703 103.027 45.5708C103.027 48.0712 105.055 50.0982 107.556 50.0982Z" fill="#3F3D56"/>
<path d="M472.354 103.501L546.482 108.946L567.445 110.486L566.143 109.185L570.08 166.118L572.049 194.584C572.128 195.735 572.21 196.885 572.287 198.035C572.352 198.991 572.615 199.913 571.482 200.149C569.229 200.618 566.883 200.813 564.601 201.101C559.961 201.687 555.311 202.179 550.651 202.579C532.005 204.179 513.261 204.297 494.597 202.93C489.933 202.589 485.277 202.154 480.63 201.627C478.901 201.431 476.756 201.357 476.125 199.419C475.474 197.421 475.362 195.15 475.068 193.077C473.757 183.842 472.864 174.559 472.389 165.229C471.42 146.633 472.079 127.989 474.358 109.509C474.638 107.246 474.943 104.986 475.274 102.73C475.513 101.092 473.004 100.384 472.763 102.038C469.964 121.136 468.888 140.446 469.547 159.736C469.883 169.387 470.656 179.009 471.865 188.603C472.171 191.026 472.503 193.446 472.862 195.862C473.147 197.784 473.218 200.052 474.362 201.704C475.466 203.298 477.321 203.809 479.143 204.052C481.462 204.361 483.797 204.582 486.126 204.81C505.458 206.694 524.913 206.982 544.293 205.67C549.171 205.339 554.04 204.908 558.901 204.376C561.296 204.113 563.688 203.826 566.076 203.515C567.246 203.362 568.414 203.205 569.582 203.042C570.672 202.964 571.752 202.776 572.804 202.481C574.998 201.69 574.997 199.575 574.861 197.604L574.354 190.271L573.34 175.607L569.254 116.517L568.747 109.185C568.737 108.842 568.597 108.517 568.355 108.275C568.113 108.033 567.787 107.893 567.445 107.883L493.317 102.438L472.354 100.898C470.683 100.775 470.69 103.379 472.354 103.501V103.501Z" fill="#D0CDE1"/>
<path d="M504.121 134.23C504.495 133.237 503.554 135.377 504.027 134.43C504.152 134.178 504.27 133.924 504.403 133.676C504.668 133.183 504.962 132.706 505.283 132.247C505.603 131.789 506.088 131.613 505.143 132.409C505.339 132.208 505.522 131.996 505.691 131.773C506.132 131.29 506.603 130.834 507.099 130.408C507.456 130.102 508.132 129.842 506.923 130.52C507.162 130.386 507.384 130.185 507.612 130.031C508.081 129.717 508.564 129.425 509.061 129.157C509.31 129.024 509.562 128.896 509.817 128.774C510.25 128.567 510.971 128.496 509.608 128.845C510.193 128.695 510.759 128.418 511.344 128.252C511.841 128.111 512.344 127.992 512.852 127.896C513.306 127.81 514.13 127.875 512.58 127.91C512.857 127.904 513.141 127.851 513.418 127.832C513.978 127.794 514.538 127.785 515.098 127.807C515.378 127.818 515.656 127.845 515.936 127.862C516.864 127.917 514.531 127.604 515.935 127.872C516.486 127.976 517.031 128.114 517.565 128.283C517.824 128.394 518.091 128.487 518.363 128.562L517.642 128.252C517.819 128.329 517.994 128.409 518.168 128.493C518.684 128.743 519.185 129.023 519.668 129.332C519.909 129.486 520.139 129.653 520.375 129.814C521.116 130.318 519.382 128.966 520.433 129.887C520.789 130.199 521.131 130.527 521.459 130.871C521.655 131.077 521.846 131.289 522.032 131.505C522.345 131.869 522.584 132.533 521.932 131.342C522.528 132.432 523.274 133.421 523.836 134.545C524.315 135.504 523.399 133.354 523.763 134.363C523.861 134.636 523.967 134.904 524.059 135.178C524.244 135.727 524.404 136.283 524.539 136.847C524.673 137.412 524.739 137.988 524.863 138.554C524.522 136.998 524.771 137.898 524.805 138.32C524.836 138.705 524.854 139.09 524.86 139.476C524.868 139.958 524.856 140.439 524.825 140.92C524.807 141.202 524.744 141.501 524.748 141.783C524.728 140.322 524.853 141.05 524.762 141.54C524.657 142.108 524.523 142.67 524.358 143.224C524.276 143.501 524.186 143.776 524.088 144.048C524.002 144.29 523.91 144.53 523.814 144.768C524.094 144.116 524.117 144.054 523.881 144.582C522.443 147.457 520.652 150.138 519.238 153.023C515.729 160.217 514.549 168.324 515.862 176.219C516.223 177.528 517.082 178.645 518.255 179.33C519.471 180.027 520.913 180.216 522.267 179.855C525.202 178.905 526.356 176.344 525.904 173.451C525.745 172.432 525.987 174.36 525.883 173.334C525.839 172.894 525.794 172.455 525.763 172.013C525.701 171.132 525.675 170.248 525.687 169.363C525.697 168.606 525.733 167.849 525.796 167.093C525.798 166.65 525.844 166.208 525.933 165.774C525.932 165.777 525.765 166.821 525.879 166.22C525.925 165.972 525.959 165.721 526.003 165.472C526.302 163.793 526.735 162.14 527.296 160.529C527.421 160.171 527.558 159.818 527.69 159.463C528.037 158.525 527.328 160.216 527.748 159.308C528.123 158.498 528.511 157.699 528.938 156.915C530.73 153.623 532.758 150.538 534.064 146.997C535.06 144.219 535.454 141.262 535.219 138.32C534.736 132.249 532.161 126.088 527.362 122.157C524.882 120.093 521.95 118.644 518.804 117.928C515.658 117.211 512.387 117.247 509.257 118.033C505.823 118.863 502.645 120.521 499.999 122.862C497.353 125.203 495.321 128.156 494.079 131.463C493.117 134.016 495.146 137.281 497.716 137.866C500.678 138.541 503.091 136.964 504.121 134.23V134.23Z" fill="#D0CDE1"/>
<path d="M522.313 196.254C523.169 196.254 524.006 196 524.718 195.524C525.43 195.049 525.984 194.373 526.312 193.582C526.64 192.792 526.725 191.922 526.558 191.082C526.391 190.243 525.979 189.472 525.374 188.866C524.768 188.261 523.997 187.849 523.158 187.682C522.318 187.515 521.448 187.601 520.657 187.928C519.866 188.256 519.19 188.811 518.714 189.522C518.239 190.234 517.985 191.07 517.985 191.926C517.998 193.07 518.458 194.163 519.267 194.972C520.076 195.781 521.169 196.241 522.313 196.254Z" fill="#D0CDE1"/>
<path d="M53.0031 347.617H28.7034V371.911H53.0031V347.617Z" fill="#5BC0EB"/>
<path d="M67.7565 358.029H38.2497V328.529H67.7565V358.029ZM39.5326 356.746H66.4736V329.811H39.5326V356.746Z" fill="#3F3D56"/>
<path d="M594.04 216.476L590.569 226.888C590.569 226.888 568.873 252.05 584.494 255.52C600.115 258.991 601.851 228.623 601.851 228.623L606.19 219.947L594.04 216.476Z" fill="#FFB8B8"/>
<path d="M618.34 90.6685C618.34 90.6685 613.133 89.8009 611.397 110.624C609.661 131.448 608.794 167.889 608.794 167.889L588.833 219.079L614.001 226.888L626.151 168.756L618.34 90.6685Z" fill="#575A89"/>
<path d="M607.058 400.416L604.455 416.902H627.887L627.019 400.416H607.058Z" fill="#FFB8B8"/>
<path d="M682.561 418.637L680.825 441.196L696.446 442.931V416.902L682.561 418.637Z" fill="#FFB8B8"/>
<path d="M616.604 185.241L596.644 299.77L601.851 403.887H628.754V309.314L654.789 260.726L675.618 321.461L680.825 422.975L710.332 417.769L703.389 318.858C703.389 318.858 698.182 186.977 692.975 185.241C687.768 183.506 616.604 185.241 616.604 185.241Z" fill="#2F2E41"/>
<path d="M609.661 411.696C609.661 411.696 609.661 403.019 602.719 408.225C595.776 413.431 587.097 422.975 587.097 422.975C587.097 422.975 554.119 441.196 577.551 443.798C600.983 446.401 615.736 431.651 615.736 431.651L618.34 434.254C618.34 434.254 632.225 431.651 632.225 428.181C632.125 425.273 631.835 422.375 631.358 419.505C631.358 419.505 629.532 404.787 627.408 407.808C625.283 410.828 613.133 416.902 609.661 411.696Z" fill="#2F2E41"/>
<path d="M697.314 435.99C697.314 435.99 681.693 428.181 678.221 435.122C674.75 442.063 672.146 455.946 672.146 455.946C672.146 455.946 660.864 477.636 680.825 475.901C700.785 474.166 699.917 462.887 699.917 460.284C699.917 457.681 699.05 451.607 699.917 449.004C700.785 446.401 697.314 435.99 697.314 435.99Z" fill="#2F2E41"/>
<path d="M663.034 56.3967C676.454 56.3967 687.334 45.5199 687.334 32.1027C687.334 18.6855 676.454 7.80878 663.034 7.80878C649.614 7.80878 638.734 18.6855 638.734 32.1027C638.734 45.5199 649.614 56.3967 663.034 56.3967Z" fill="#FFB8B8"/>
<path d="M646.979 43.8158L646.111 75.0508L677.353 72.4479V43.8158H646.979Z" fill="#FFB8B8"/>
<path d="M679.089 56.8305C679.089 56.8305 664.336 66.3746 659.997 68.1098C655.657 69.8451 646.111 61.1687 646.111 61.1687C646.111 61.1687 643.508 62.904 643.508 64.6393C643.508 66.3746 641.772 73.3157 641.772 73.3157L620.944 141.859L622.679 190.447C622.679 190.447 686.032 196.521 692.975 188.712C699.917 180.903 689.503 68.9775 689.503 68.9775L679.089 56.8305Z" fill="#D0CDE1"/>
<path opacity="0.1" d="M674.75 75.051C674.75 75.051 651.318 83.7274 643.508 75.9186C643.507 75.9186 654.789 78.5215 674.75 75.051Z" fill="black"/>
<path d="M736.367 263.329C726.821 269.402 695.578 277.211 695.578 277.211C695.578 277.211 692.167 203.766 679.957 192.182C667.816 180.652 647.994 97.5228 665.82 83.0679C665.899 82.9934 665.983 82.9239 666.071 82.8597L677.353 56.8304C677.353 56.8304 679.089 54.2275 682.561 57.698C685.369 60.7064 687.978 63.8946 690.371 67.2421L690.866 67.4416L714.671 76.7862L705.124 119.301C705.124 119.301 745.913 257.256 736.367 263.329Z" fill="#575A89"/>
<path opacity="0.1" d="M690.866 67.4417L684.296 91.5361L665.82 83.0679C665.899 82.9934 665.983 82.9239 666.071 82.8597L677.353 56.8304C677.353 56.8304 679.089 54.2275 682.561 57.698C685.369 60.7064 687.978 63.8946 690.371 67.2421L690.866 67.4417Z" fill="black"/>
<path d="M645.677 60.7349L643.074 90.2347L642.935 91.5795L623.113 280.248C623.113 280.248 605.756 274.175 599.681 267.233C593.606 260.292 613.567 183.072 613.567 183.072L615.302 85.8964C615.302 85.8964 630.698 75.0596 636.99 69.1076C638.465 67.7194 639.437 66.6001 639.602 65.9407C640.47 62.4701 645.677 60.7349 645.677 60.7349Z" fill="#575A89"/>
<path opacity="0.1" d="M645.677 60.7349L643.074 90.2347L642.935 91.5795L630.49 89.8008L636.99 69.1076C638.465 67.7194 639.437 66.6001 639.602 65.9407C640.47 62.4701 645.677 60.7349 645.677 60.7349Z" fill="black"/>
<path d="M692.107 206.932L682.56 215.609C682.56 215.609 686.9 233.829 692.107 234.697C692.107 234.697 695.578 229.491 696.446 225.153C697.314 220.815 705.124 216.476 705.124 216.476L692.107 206.932Z" fill="#FFB8B8"/>
<path d="M703.389 75.051L714.671 76.7862C714.671 76.7862 751.988 140.124 747.649 162.683C743.31 185.241 708.596 224.285 708.596 224.285L686.9 206.932L719.01 163.55L702.521 111.492L703.389 75.051Z" fill="#575A89"/>
<path d="M638.679 34.8314C638.679 34.8314 638.679 13.4067 643.887 8.53748H650.136C650.136 8.53748 657.427 -2.17489 666.801 1.72052C676.174 5.61592 691.797 12.4329 690.755 23.1452C689.714 33.8576 686.466 40.7792 686.466 40.7792C686.466 40.7792 684.73 40.7792 680.861 34.9556C675.692 27.1738 687.631 29.5994 672.008 26.6779C656.386 23.7563 647.012 19.8609 644.929 23.7563C642.846 27.6517 638.679 34.8314 638.679 34.8314Z" fill="#2F2E41"/>
<path d="M650.033 9.99141C650.033 9.99141 650.866 3.72993 654.292 2.38171L650.033 9.99141Z" fill="#2F2E41"/>
<path d="M650.018 11.2794C650.018 11.2794 648.28 5.20669 650.882 2.6026L650.018 11.2794Z" fill="#2F2E41"/>
</g>
<defs>
<clipPath id="clip0">
<rect width="748" height="476" fill="white"/>
</clipPath>
</defs>
</svg>
