<svg width="752" height="519" viewBox="0 0 752 519" fill="none" xmlns="http://www.w3.org/2000/svg">
<g clip-path="url(#clip0)">
<path opacity="0.1" d="M425.353 70.659C377.151 70.7235 330.754 57.0634 286.376 41.8883C241.998 26.7133 197.961 9.72038 150.655 2.51966C120.231 -2.10892 85.6355 -1.68345 61.8536 15.1225C38.9615 31.2903 32.3325 58.0497 29.1341 82.7719C26.7288 101.37 25.6197 120.89 34.6282 137.902C40.8832 149.712 51.5876 159.446 59.1323 170.702C85.4678 209.858 69.6304 259.876 44.0365 299.941C32.0359 318.739 17.9782 336.757 8.90526 356.631C-0.167718 376.506 -3.88848 399.043 5.36506 418.659C14.5348 438.102 35.2472 452.213 57.4751 461.851C102.614 481.461 155.169 485.664 206.312 487.282C319.521 490.873 432.949 483.55 546.075 476.227C587.938 473.519 629.989 470.792 670.988 462.947C693.751 458.595 717.191 452.136 733.332 437.98C753.818 420.007 758.01 390.662 743.101 369.57C718.1 334.191 652.178 327.519 634.251 289.24C624.366 268.166 632.89 243.998 645.446 223.686C672.374 180.101 718.726 141.061 719.506 92.3127C720.041 58.8361 695.937 26.1783 659.935 11.6285C622.199 -3.61095 570.747 0.308515 544.308 28.7117C517.121 57.9723 467.913 70.6139 425.353 70.659Z" fill="#5BC0EB"/>
<path d="M640.029 416.03C640.029 416.03 632.104 410.802 624.25 414.522C624.25 414.522 626.668 419.176 636.611 418.738L640.029 416.03Z" fill="#5BC0EB"/>
<path d="M641.035 416.307C641.035 416.307 643.447 425.487 637.398 431.734C637.398 431.734 633.761 427.95 637.398 418.68L641.035 416.307Z" fill="#5BC0EB"/>
<path d="M650.888 407.495C650.888 407.495 650.301 399.688 632.665 402.28C632.665 402.28 632.581 407.315 638.771 409.7C644.962 412.085 647.799 410.074 650.888 407.495Z" fill="#5BC0EB"/>
<path d="M651.997 407.444C651.997 407.444 659.451 409.835 652.803 426.37C652.803 426.37 647.883 425.275 647 418.693C646.116 412.111 648.734 409.842 651.997 407.444Z" fill="#5BC0EB"/>
<path d="M661.954 396.369C661.954 396.369 662.966 383.521 644.943 384.836C644.943 384.836 643.653 396.439 658.775 399.456L661.954 396.369Z" fill="#5BC0EB"/>
<path d="M673.864 381.864C673.864 381.864 671.394 367.301 653.377 371.64C653.377 371.64 653.313 384.23 670.924 385.332L673.864 381.864Z" fill="#5BC0EB"/>
<path d="M682.569 366.869C682.569 366.869 678.43 352.687 660.58 356.929C660.58 356.929 664.83 369.686 681.383 369.487L682.569 366.869Z" fill="#5BC0EB"/>
<path d="M690.836 352.223C690.836 352.223 686.793 337.506 669.557 341.909C669.557 341.909 675.309 355.891 689.695 354.711L690.836 352.223Z" fill="#5BC0EB"/>
<path d="M696.163 338.312C696.163 338.312 693.055 320.313 676.985 324.297C676.985 324.297 681.654 340.671 694.983 340.935L696.163 338.312Z" fill="#5BC0EB"/>
<path d="M701.16 321.506C701.16 321.506 697.426 303.365 681.17 308.613C681.17 308.613 687.541 325.76 700.006 323.987L701.16 321.506Z" fill="#5BC0EB"/>
<path d="M704.229 305.866C704.229 305.866 698.303 287.719 685.735 288.209C685.735 288.209 691.79 307.375 703.178 309.483L704.229 305.866Z" fill="#5BC0EB"/>
<path d="M706.216 290.601C706.216 290.601 699.767 268.76 689.54 270.443C689.54 270.443 694.002 287.139 705.855 294.005L706.216 290.601Z" fill="#5BC0EB"/>
<path d="M707.338 272.39C707.338 272.39 701.289 254.191 691.217 253.463C691.217 253.463 695.331 271.371 707.138 277.121L707.338 272.39Z" fill="#5BC0EB"/>
<path d="M708.557 255.397C708.557 255.397 701.018 237.179 694.37 236.766C694.37 236.766 697.646 254.707 707.912 258.388L708.557 255.397Z" fill="#5BC0EB"/>
<path d="M709.389 239.59C709.389 239.59 704.752 219.806 698.091 218.162C698.091 218.162 699 234.349 708.718 241.073L709.389 239.59Z" fill="#5BC0EB"/>
<path d="M711.903 218.884C711.903 218.884 707.028 203.109 701.631 200.705C701.631 200.705 702.695 219.303 710.659 222.739L711.903 218.884Z" fill="#5BC0EB"/>
<path d="M713.986 205.346L714.967 177.536C714.967 177.536 704.875 198.5 713.258 210.226L713.986 205.346Z" fill="#5BC0EB"/>
<path d="M721.776 177.684C721.776 177.684 729.043 157.378 730.804 156.243C730.804 156.243 716.553 169.42 717.945 186.368L721.776 177.684Z" fill="#5BC0EB"/>
<path d="M662.444 396.272C662.444 396.272 675.225 394.602 674.845 412.659C674.845 412.659 663.295 414.541 659.523 399.605L662.444 396.272Z" fill="#5BC0EB"/>
<path d="M674.47 381.374C674.47 381.374 689.237 381.329 688.011 399.811C688.011 399.811 675.611 402.029 671.523 384.868L674.47 381.374Z" fill="#5BC0EB"/>
<path d="M682.711 368.062C682.711 368.062 696.118 361.777 704.694 378.003C704.694 378.003 692.313 383.237 681.525 370.686L682.711 368.062Z" fill="#5BC0EB"/>
<path d="M691.133 352.358C691.133 352.358 704.862 345.673 712.922 361.519C712.922 361.519 698.62 366.444 689.998 354.866L691.133 352.358Z" fill="#5BC0EB"/>
<path d="M695.988 338.705C695.988 338.705 709.201 326.089 719.745 338.847C719.745 338.847 706.248 349.232 695.382 341.515L695.988 338.705Z" fill="#5BC0EB"/>
<path d="M700.412 321.074C700.412 321.074 713.703 308.181 724.162 321.667C724.162 321.667 709.247 332.258 699.935 323.781L700.412 321.074Z" fill="#5BC0EB"/>
<path d="M702.895 305.351C702.895 305.351 713.135 289.234 725.194 292.832C725.194 292.832 714.567 309.895 703.011 309.135L702.895 305.351Z" fill="#5BC0EB"/>
<path d="M705.913 290.498C705.913 290.498 716.23 270.204 725.993 273.737C725.993 273.737 718.552 289.338 705.648 293.921L705.913 290.498Z" fill="#5BC0EB"/>
<path d="M706.628 271.332C706.628 271.332 717.236 255.358 727.173 257.311C727.173 257.311 718.5 273.511 705.597 275.955L706.628 271.332Z" fill="#5BC0EB"/>
<path d="M707.454 255.042C707.454 255.042 715.676 237.115 722.356 236.992C722.356 236.992 718.41 254.791 708.009 258.085L707.454 255.042Z" fill="#5BC0EB"/>
<path d="M709.066 239.203C709.066 239.203 718.204 221.05 725.072 221.011C725.072 221.011 720.396 236.534 709.369 240.796L709.066 239.203Z" fill="#5BC0EB"/>
<path d="M710.439 220.019C710.439 220.019 717.275 204.998 722.937 203.296C722.937 203.296 719.519 221.604 711.194 224.002L710.439 220.019Z" fill="#5BC0EB"/>
<path d="M714.799 204.798L730.075 181.533C730.075 181.533 726.161 204.482 712.567 209.253L714.799 204.798Z" fill="#5BC0EB"/>
<path d="M725.284 179.56C725.284 179.56 743.037 167.312 743.682 165.333C743.682 165.333 734.654 182.487 717.888 185.517L725.284 179.56Z" fill="#5BC0EB"/>
<path d="M726.348 174.049C726.348 174.049 746.732 154.458 751.935 154.477C751.935 154.477 735.124 155.244 725.858 173.004L726.348 174.049Z" fill="#5BC0EB"/>
<path d="M710.64 222.926L711.381 223.023C715.212 193.053 720.796 175.319 727.103 173.146L726.857 172.437C720.17 174.758 714.547 192.221 710.64 222.926Z" fill="#444053"/>
<path d="M705.003 294.598L706.125 294.688C706.364 291.89 706.545 289.028 706.667 286.172C707.738 261.366 709.395 238.584 711.574 221.508L710.93 220.702C708.744 237.817 706.616 261.282 705.545 286.127C705.423 288.964 705.242 291.813 705.003 294.598Z" fill="#444053"/>
<path d="M619.11 430.329C619.304 430.245 639.055 421.426 659.555 400.398C671.565 388.081 681.545 373.938 689.121 358.495C698.6 339.201 704.378 315.491 706.313 292.458L705.145 293.006C700.793 344.706 677.249 380.033 658.529 399.276C638.23 420.117 618.697 428.846 618.504 428.93L619.11 430.329Z" fill="#444053"/>
<path d="M670.253 54.9434H50.6334C49.1694 54.9434 47.7654 55.5248 46.7303 56.5596C45.6951 57.5945 45.1135 58.9981 45.1135 60.4616V76.5391H675.773V60.4616C675.773 58.9981 675.191 57.5945 674.156 56.5596C673.121 55.5248 671.717 54.9434 670.253 54.9434Z" fill="#3F3D56"/>
<path d="M45.1135 76.5391V438.341C45.1135 441.292 46.2862 444.123 48.3734 446.209C50.4607 448.296 53.2917 449.468 56.2436 449.468H664.643C667.595 449.468 670.426 448.296 672.513 446.209C674.6 444.123 675.773 441.292 675.773 438.341V76.5391H45.1135Z" fill="white"/>
<path opacity="0.8" d="M55.1021 68.1587C56.5266 68.1587 57.6815 67.0042 57.6815 65.5801C57.6815 64.156 56.5266 63.0015 55.1021 63.0015C53.6775 63.0015 52.5227 64.156 52.5227 65.5801C52.5227 67.0042 53.6775 68.1587 55.1021 68.1587Z" fill="#FA5959"/>
<path opacity="0.8" d="M62.1954 68.1587C63.6199 68.1587 64.7747 67.0042 64.7747 65.5801C64.7747 64.156 63.6199 63.0015 62.1954 63.0015C60.7708 63.0015 59.616 64.156 59.616 65.5801C59.616 67.0042 60.7708 68.1587 62.1954 68.1587Z" fill="#FED253"/>
<path opacity="0.8" d="M69.2886 68.1587C70.7132 68.1587 71.868 67.0042 71.868 65.5801C71.868 64.156 70.7132 63.0015 69.2886 63.0015C67.8641 63.0015 66.7092 64.156 66.7092 65.5801C66.7092 67.0042 67.8641 68.1587 69.2886 68.1587Z" fill="#8CCF4D"/>
<path opacity="0.05" d="M610.585 136.865H103.736V359.669H610.585V136.865Z" fill="black"/>
<path d="M606.716 138.554H107.605V356.445H606.716V138.554Z" fill="#3F3D56"/>
<path d="M243.668 194.632C233.847 194.632 224.247 197.543 216.082 202.998C207.917 208.452 201.552 216.204 197.794 225.275C194.036 234.345 193.053 244.325 194.969 253.954C196.885 263.583 201.614 272.428 208.558 279.37C215.502 286.312 224.349 291.039 233.981 292.954C243.613 294.87 253.596 293.887 262.669 290.13C271.742 286.373 279.497 280.01 284.953 271.848C290.409 263.685 293.321 254.088 293.321 244.27C293.321 237.752 292.037 231.297 289.541 225.275C287.046 219.252 283.389 213.78 278.778 209.171C274.167 204.562 268.693 200.905 262.669 198.411C256.645 195.916 250.188 194.632 243.668 194.632ZM252.573 245.463V268.967H235.02V245.463C232.591 243.625 230.801 241.07 229.903 238.16C229.004 235.25 229.042 232.132 230.012 229.245C230.982 226.358 232.834 223.848 235.307 222.07C237.781 220.292 240.75 219.335 243.797 219.335C246.843 219.335 249.813 220.292 252.286 222.07C254.759 223.848 256.612 226.358 257.582 229.245C258.551 232.132 258.59 235.25 257.691 238.16C256.792 241.07 255.002 243.625 252.573 245.463Z" fill="#5BC0EB"/>
<path opacity="0.05" d="M243.668 194.632C233.847 194.632 224.247 197.543 216.082 202.998C207.917 208.452 201.552 216.204 197.794 225.275C194.036 234.345 193.053 244.325 194.969 253.954C196.885 263.583 201.614 272.428 208.558 279.37C215.502 286.312 224.349 291.039 233.981 292.954C243.613 294.87 253.596 293.887 262.669 290.13C271.742 286.373 279.497 280.01 284.953 271.848C290.409 263.685 293.321 254.088 293.321 244.27C293.321 237.752 292.037 231.297 289.541 225.275C287.046 219.252 283.389 213.78 278.778 209.171C274.167 204.562 268.693 200.905 262.669 198.411C256.645 195.916 250.188 194.632 243.668 194.632ZM252.573 245.463V268.967H235.02V245.463C232.591 243.625 230.801 241.07 229.903 238.16C229.004 235.25 229.042 232.132 230.012 229.245C230.982 226.358 232.834 223.848 235.307 222.07C237.781 220.292 240.75 219.335 243.797 219.335C246.843 219.335 249.813 220.292 252.286 222.07C254.759 223.848 256.612 226.358 257.582 229.245C258.551 232.132 258.59 235.25 257.691 238.16C256.792 241.07 255.002 243.625 252.573 245.463Z" fill="black"/>
<path d="M243.668 180.45C231.042 180.45 218.699 184.193 208.2 191.206C197.702 198.218 189.52 208.186 184.688 219.847C179.856 231.509 178.592 244.341 181.055 256.721C183.518 269.101 189.598 280.472 198.526 289.398C207.455 298.323 218.83 304.402 231.213 306.864C243.597 309.327 256.433 308.063 268.098 303.232C279.764 298.402 289.734 290.222 296.749 279.727C303.764 269.232 307.508 256.893 307.508 244.27C307.508 227.344 300.782 211.111 288.809 199.142C276.837 187.174 260.599 180.45 243.668 180.45ZM255.114 245.804V276.019H232.544V245.804C229.42 243.441 227.117 240.156 225.961 236.414C224.805 232.671 224.854 228.66 226.101 224.947C227.348 221.234 229.73 218.006 232.911 215.719C236.092 213.433 239.911 212.202 243.829 212.202C247.747 212.202 251.566 213.433 254.747 215.719C257.928 218.006 260.31 221.234 261.557 224.947C262.804 228.66 262.853 232.671 261.697 236.414C260.541 240.156 258.238 243.441 255.114 245.804Z" fill="#5BC0EB"/>
<path d="M540.297 235.896H333.946V257.814H540.297V235.896Z" fill="white"/>
<path d="M540.297 275.864H495.802V297.782H540.297V275.864Z" fill="#5BC0EB"/>
<path d="M354.259 246.526H350.525L353.846 243.213C353.906 243.152 353.939 243.07 353.939 242.984C353.939 242.899 353.906 242.817 353.846 242.755C353.816 242.725 353.781 242.701 353.741 242.685C353.702 242.668 353.66 242.66 353.617 242.66C353.575 242.66 353.533 242.668 353.493 242.685C353.454 242.701 353.418 242.725 353.388 242.755L350.067 246.075V242.336C350.067 242.251 350.033 242.169 349.973 242.108C349.913 242.048 349.831 242.014 349.745 242.014C349.66 242.016 349.579 242.05 349.519 242.11C349.459 242.17 349.424 242.251 349.423 242.336V246.075L346.108 242.736C346.078 242.706 346.042 242.682 346.003 242.665C345.964 242.649 345.922 242.641 345.879 242.641C345.837 242.641 345.794 242.649 345.755 242.665C345.716 242.682 345.68 242.706 345.65 242.736C345.591 242.797 345.557 242.879 345.557 242.965C345.557 243.05 345.591 243.132 345.65 243.194L348.971 246.507H345.231C345.146 246.509 345.065 246.543 345.005 246.603C344.945 246.663 344.91 246.744 344.909 246.829C344.909 246.915 344.943 246.997 345.003 247.057C345.064 247.118 345.146 247.152 345.231 247.152H348.971L345.65 250.472C345.591 250.533 345.557 250.615 345.557 250.701C345.557 250.786 345.591 250.868 345.65 250.929C345.712 250.987 345.794 251.02 345.879 251.02C345.964 251.02 346.046 250.987 346.108 250.929L349.423 247.609V251.342C349.423 251.427 349.457 251.509 349.517 251.57C349.577 251.63 349.66 251.664 349.745 251.664C349.831 251.664 349.913 251.63 349.973 251.57C350.033 251.509 350.067 251.427 350.067 251.342V247.609L353.388 250.929C353.45 250.987 353.532 251.02 353.617 251.02C353.702 251.02 353.784 250.987 353.846 250.929C353.906 250.868 353.939 250.786 353.939 250.701C353.939 250.615 353.906 250.533 353.846 250.472L350.525 247.152H354.259C354.344 247.152 354.426 247.118 354.487 247.057C354.547 246.997 354.581 246.915 354.581 246.829C354.576 246.747 354.54 246.67 354.48 246.614C354.42 246.558 354.341 246.526 354.259 246.526Z" fill="#5BC0EB"/>
<path d="M367.801 246.526H364.067L367.388 243.213C367.448 243.152 367.481 243.07 367.481 242.984C367.481 242.899 367.448 242.817 367.388 242.755C367.358 242.725 367.323 242.701 367.283 242.685C367.244 242.668 367.202 242.66 367.159 242.66C367.117 242.66 367.075 242.668 367.035 242.685C366.996 242.701 366.96 242.725 366.93 242.755L363.609 246.075V242.336C363.609 242.251 363.575 242.169 363.515 242.108C363.454 242.048 363.373 242.014 363.287 242.014C363.202 242.016 363.121 242.05 363.061 242.11C363.001 242.17 362.966 242.251 362.965 242.336V246.075L359.65 242.736C359.62 242.706 359.584 242.682 359.545 242.665C359.506 242.649 359.464 242.641 359.421 242.641C359.379 242.641 359.336 242.649 359.297 242.665C359.258 242.682 359.222 242.706 359.192 242.736C359.133 242.797 359.099 242.879 359.099 242.965C359.099 243.05 359.133 243.132 359.192 243.194L362.513 246.507H358.773C358.688 246.509 358.607 246.543 358.547 246.603C358.487 246.663 358.452 246.744 358.451 246.829C358.451 246.915 358.485 246.997 358.545 247.057C358.606 247.118 358.688 247.152 358.773 247.152H362.513L359.192 250.472C359.133 250.533 359.099 250.615 359.099 250.701C359.099 250.786 359.133 250.868 359.192 250.929C359.254 250.987 359.336 251.02 359.421 251.02C359.506 251.02 359.588 250.987 359.65 250.929L362.965 247.609V251.342C362.965 251.427 362.999 251.509 363.059 251.57C363.119 251.63 363.201 251.664 363.287 251.664C363.373 251.664 363.454 251.63 363.515 251.57C363.575 251.509 363.609 251.427 363.609 251.342V247.609L366.93 250.929C366.992 250.987 367.074 251.02 367.159 251.02C367.244 251.02 367.326 250.987 367.388 250.929C367.448 250.868 367.481 250.786 367.481 250.701C367.481 250.615 367.448 250.533 367.388 250.472L364.067 247.152H367.801C367.886 247.152 367.968 247.118 368.029 247.057C368.089 246.997 368.123 246.915 368.123 246.829C368.118 246.747 368.082 246.67 368.022 246.614C367.962 246.558 367.883 246.526 367.801 246.526Z" fill="#5BC0EB"/>
<path d="M381.342 246.526H377.609L380.93 243.213C380.989 243.152 381.022 243.07 381.022 242.984C381.022 242.899 380.989 242.817 380.93 242.755C380.9 242.725 380.864 242.701 380.825 242.685C380.786 242.668 380.743 242.66 380.701 242.66C380.658 242.66 380.616 242.668 380.577 242.685C380.538 242.701 380.502 242.725 380.472 242.755L377.151 246.075V242.336C377.151 242.251 377.117 242.169 377.056 242.108C376.996 242.048 376.914 242.014 376.829 242.014C376.744 242.016 376.662 242.05 376.602 242.11C376.542 242.17 376.508 242.251 376.506 242.336V246.075L373.192 242.736C373.162 242.706 373.126 242.682 373.087 242.665C373.047 242.649 373.005 242.641 372.963 242.641C372.92 242.641 372.878 242.649 372.839 242.665C372.799 242.682 372.764 242.706 372.734 242.736C372.674 242.797 372.641 242.879 372.641 242.965C372.641 243.05 372.674 243.132 372.734 243.194L376.055 246.507H372.315C372.23 246.509 372.149 246.543 372.088 246.603C372.028 246.663 371.994 246.744 371.992 246.829C371.992 246.915 372.026 246.997 372.087 247.057C372.147 247.118 372.229 247.152 372.315 247.152H376.055L372.734 250.472C372.674 250.533 372.641 250.615 372.641 250.701C372.641 250.786 372.674 250.868 372.734 250.929C372.796 250.987 372.878 251.02 372.963 251.02C373.048 251.02 373.129 250.987 373.192 250.929L376.506 247.609V251.342C376.506 251.427 376.54 251.509 376.601 251.57C376.661 251.63 376.743 251.664 376.829 251.664C376.914 251.664 376.996 251.63 377.056 251.57C377.117 251.509 377.151 251.427 377.151 251.342V247.609L380.472 250.929C380.534 250.987 380.616 251.02 380.701 251.02C380.786 251.02 380.868 250.987 380.93 250.929C380.989 250.868 381.022 250.786 381.022 250.701C381.022 250.615 380.989 250.533 380.93 250.472L377.609 247.152H381.342C381.428 247.152 381.51 247.118 381.57 247.057C381.631 246.997 381.665 246.915 381.665 246.829C381.66 246.747 381.624 246.67 381.564 246.614C381.504 246.558 381.425 246.526 381.342 246.526Z" fill="#5BC0EB"/>
<path d="M394.884 246.526H391.151L394.472 243.213C394.531 243.152 394.564 243.07 394.564 242.984C394.564 242.899 394.531 242.817 394.472 242.755C394.442 242.725 394.406 242.701 394.367 242.685C394.327 242.668 394.285 242.66 394.243 242.66C394.2 242.66 394.158 242.668 394.119 242.685C394.08 242.701 394.044 242.725 394.014 242.755L390.693 246.075V242.336C390.693 242.251 390.659 242.169 390.598 242.108C390.538 242.048 390.456 242.014 390.371 242.014C390.286 242.016 390.204 242.05 390.144 242.11C390.084 242.17 390.05 242.251 390.048 242.336V246.075L386.734 242.736C386.704 242.706 386.668 242.682 386.629 242.665C386.589 242.649 386.547 242.641 386.505 242.641C386.462 242.641 386.42 242.649 386.381 242.665C386.341 242.682 386.306 242.706 386.276 242.736C386.216 242.797 386.183 242.879 386.183 242.965C386.183 243.05 386.216 243.132 386.276 243.194L389.597 246.507H385.857C385.772 246.509 385.691 246.543 385.63 246.603C385.57 246.663 385.536 246.744 385.534 246.829C385.534 246.915 385.568 246.997 385.629 247.057C385.689 247.118 385.771 247.152 385.857 247.152H389.597L386.276 250.472C386.216 250.533 386.183 250.615 386.183 250.701C386.183 250.786 386.216 250.868 386.276 250.929C386.338 250.987 386.42 251.02 386.505 251.02C386.59 251.02 386.671 250.987 386.734 250.929L390.048 247.609V251.342C390.048 251.427 390.082 251.509 390.143 251.57C390.203 251.63 390.285 251.664 390.371 251.664C390.456 251.664 390.538 251.63 390.598 251.57C390.659 251.509 390.693 251.427 390.693 251.342V247.609L394.014 250.929C394.076 250.987 394.158 251.02 394.243 251.02C394.328 251.02 394.41 250.987 394.472 250.929C394.531 250.868 394.564 250.786 394.564 250.701C394.564 250.615 394.531 250.533 394.472 250.472L391.151 247.152H394.884C394.97 247.152 395.052 247.118 395.112 247.057C395.173 246.997 395.207 246.915 395.207 246.829C395.202 246.747 395.166 246.67 395.106 246.614C395.046 246.558 394.967 246.526 394.884 246.526Z" fill="#5BC0EB"/>
<path d="M408.426 246.526H404.692L408.013 243.213C408.073 243.152 408.106 243.07 408.106 242.984C408.106 242.899 408.073 242.817 408.013 242.755C407.983 242.725 407.948 242.701 407.908 242.685C407.869 242.668 407.827 242.66 407.784 242.66C407.742 242.66 407.7 242.668 407.66 242.685C407.621 242.701 407.585 242.725 407.555 242.755L404.234 246.075V242.336C404.234 242.251 404.2 242.169 404.14 242.108C404.08 242.048 403.998 242.014 403.912 242.014C403.827 242.016 403.746 242.05 403.686 242.11C403.626 242.17 403.591 242.251 403.59 242.336V246.075L400.275 242.736C400.245 242.706 400.209 242.682 400.17 242.665C400.131 242.649 400.089 242.641 400.046 242.641C400.004 242.641 399.961 242.649 399.922 242.665C399.883 242.682 399.847 242.706 399.817 242.736C399.758 242.797 399.724 242.879 399.724 242.965C399.724 243.05 399.758 243.132 399.817 243.194L403.138 246.507H399.398C399.313 246.509 399.232 246.543 399.172 246.603C399.112 246.663 399.077 246.744 399.076 246.829C399.076 246.915 399.11 246.997 399.17 247.057C399.231 247.118 399.313 247.152 399.398 247.152H403.138L399.817 250.472C399.758 250.533 399.724 250.615 399.724 250.701C399.724 250.786 399.758 250.868 399.817 250.929C399.879 250.987 399.961 251.02 400.046 251.02C400.131 251.02 400.213 250.987 400.275 250.929L403.59 247.609V251.342C403.59 251.427 403.624 251.509 403.684 251.57C403.745 251.63 403.827 251.664 403.912 251.664C403.998 251.664 404.08 251.63 404.14 251.57C404.2 251.509 404.234 251.427 404.234 251.342V247.609L407.555 250.929C407.618 250.987 407.699 251.02 407.784 251.02C407.869 251.02 407.951 250.987 408.013 250.929C408.073 250.868 408.106 250.786 408.106 250.701C408.106 250.615 408.073 250.533 408.013 250.472L404.692 247.152H408.426C408.512 247.152 408.594 247.118 408.654 247.057C408.714 246.997 408.748 246.915 408.748 246.829C408.744 246.747 408.707 246.67 408.647 246.614C408.587 246.558 408.508 246.526 408.426 246.526Z" fill="#5BC0EB"/>
<path d="M421.968 246.526H418.234L421.555 243.213C421.614 243.152 421.648 243.07 421.648 242.984C421.648 242.899 421.614 242.817 421.555 242.755C421.525 242.725 421.489 242.701 421.45 242.685C421.411 242.668 421.369 242.66 421.326 242.66C421.283 242.66 421.241 242.668 421.202 242.685C421.163 242.701 421.127 242.725 421.097 242.755L417.776 246.075V242.336C417.776 242.251 417.742 242.169 417.682 242.108C417.621 242.048 417.539 242.014 417.454 242.014C417.369 242.016 417.288 242.05 417.228 242.11C417.167 242.17 417.133 242.251 417.131 242.336V246.075L413.817 242.736C413.787 242.706 413.751 242.682 413.712 242.665C413.673 242.649 413.63 242.641 413.588 242.641C413.545 242.641 413.503 242.649 413.464 242.665C413.425 242.682 413.389 242.706 413.359 242.736C413.299 242.797 413.266 242.879 413.266 242.965C413.266 243.05 413.299 243.132 413.359 243.194L416.68 246.507H412.94C412.855 246.509 412.774 246.543 412.714 246.603C412.654 246.663 412.619 246.744 412.617 246.829C412.617 246.915 412.651 246.997 412.712 247.057C412.772 247.118 412.854 247.152 412.94 247.152H416.68L413.359 250.472C413.299 250.533 413.266 250.615 413.266 250.701C413.266 250.786 413.299 250.868 413.359 250.929C413.421 250.987 413.503 251.02 413.588 251.02C413.673 251.02 413.755 250.987 413.817 250.929L417.131 247.609V251.342C417.131 251.427 417.165 251.509 417.226 251.57C417.286 251.63 417.368 251.664 417.454 251.664C417.539 251.664 417.621 251.63 417.682 251.57C417.742 251.509 417.776 251.427 417.776 251.342V247.609L421.097 250.929C421.159 250.987 421.241 251.02 421.326 251.02C421.411 251.02 421.493 250.987 421.555 250.929C421.614 250.868 421.648 250.786 421.648 250.701C421.648 250.615 421.614 250.533 421.555 250.472L418.234 247.152H421.968C422.053 247.152 422.135 247.118 422.196 247.057C422.256 246.997 422.29 246.915 422.29 246.829C422.285 246.747 422.249 246.67 422.189 246.614C422.129 246.558 422.05 246.526 421.968 246.526Z" fill="#5BC0EB"/>
<path d="M435.51 246.526H431.776L435.097 243.213C435.157 243.152 435.19 243.07 435.19 242.984C435.19 242.899 435.157 242.817 435.097 242.755C435.067 242.725 435.031 242.701 434.992 242.685C434.953 242.668 434.911 242.66 434.868 242.66C434.826 242.66 434.783 242.668 434.744 242.685C434.705 242.701 434.669 242.725 434.639 242.755L431.318 246.075V242.336C431.318 242.251 431.284 242.169 431.224 242.108C431.163 242.048 431.081 242.014 430.996 242.014C430.911 242.016 430.83 242.05 430.77 242.11C430.71 242.17 430.675 242.251 430.673 242.336V246.075L427.359 242.736C427.329 242.706 427.293 242.682 427.254 242.665C427.215 242.649 427.172 242.641 427.13 242.641C427.087 242.641 427.045 242.649 427.006 242.665C426.967 242.682 426.931 242.706 426.901 242.736C426.841 242.797 426.808 242.879 426.808 242.965C426.808 243.05 426.841 243.132 426.901 243.194L430.222 246.507H426.482C426.397 246.509 426.316 246.543 426.256 246.603C426.196 246.663 426.161 246.744 426.159 246.829C426.159 246.915 426.193 246.997 426.254 247.057C426.314 247.118 426.396 247.152 426.482 247.152H430.222L426.901 250.472C426.841 250.533 426.808 250.615 426.808 250.701C426.808 250.786 426.841 250.868 426.901 250.929C426.963 250.987 427.045 251.02 427.13 251.02C427.215 251.02 427.297 250.987 427.359 250.929L430.673 247.609V251.342C430.673 251.427 430.707 251.509 430.768 251.57C430.828 251.63 430.91 251.664 430.996 251.664C431.081 251.664 431.163 251.63 431.224 251.57C431.284 251.509 431.318 251.427 431.318 251.342V247.609L434.639 250.929C434.701 250.987 434.783 251.02 434.868 251.02C434.953 251.02 435.035 250.987 435.097 250.929C435.157 250.868 435.19 250.786 435.19 250.701C435.19 250.615 435.157 250.533 435.097 250.472L431.776 247.152H435.51C435.595 247.152 435.677 247.118 435.738 247.057C435.798 246.997 435.832 246.915 435.832 246.829C435.827 246.747 435.791 246.67 435.731 246.614C435.671 246.558 435.592 246.526 435.51 246.526Z" fill="#5BC0EB"/>
<path d="M449.051 246.526H445.318L448.639 243.213C448.698 243.152 448.731 243.07 448.731 242.984C448.731 242.899 448.698 242.817 448.639 242.755C448.609 242.725 448.573 242.701 448.534 242.685C448.494 242.668 448.452 242.66 448.41 242.66C448.367 242.66 448.325 242.668 448.286 242.685C448.246 242.701 448.211 242.725 448.181 242.755L444.86 246.075V242.336C444.86 242.251 444.826 242.169 444.765 242.108C444.705 242.048 444.623 242.014 444.538 242.014C444.453 242.016 444.371 242.05 444.311 242.11C444.251 242.17 444.217 242.251 444.215 242.336V246.075L440.901 242.736C440.871 242.706 440.835 242.682 440.796 242.665C440.756 242.649 440.714 242.641 440.672 242.641C440.629 242.641 440.587 242.649 440.548 242.665C440.508 242.682 440.473 242.706 440.443 242.736C440.383 242.797 440.35 242.879 440.35 242.965C440.35 243.05 440.383 243.132 440.443 243.194L443.764 246.507H440.024C439.939 246.509 439.858 246.543 439.797 246.603C439.737 246.663 439.703 246.744 439.701 246.829C439.701 246.915 439.735 246.997 439.796 247.057C439.856 247.118 439.938 247.152 440.024 247.152H443.764L440.443 250.472C440.383 250.533 440.35 250.615 440.35 250.701C440.35 250.786 440.383 250.868 440.443 250.929C440.505 250.987 440.587 251.02 440.672 251.02C440.757 251.02 440.838 250.987 440.901 250.929L444.215 247.609V251.342C444.215 251.427 444.249 251.509 444.31 251.57C444.37 251.63 444.452 251.664 444.538 251.664C444.623 251.664 444.705 251.63 444.765 251.57C444.826 251.509 444.86 251.427 444.86 251.342V247.609L448.181 250.929C448.243 250.987 448.325 251.02 448.41 251.02C448.495 251.02 448.577 250.987 448.639 250.929C448.698 250.868 448.731 250.786 448.731 250.701C448.731 250.615 448.698 250.533 448.639 250.472L445.318 247.152H449.051C449.137 247.152 449.219 247.118 449.279 247.057C449.34 246.997 449.374 246.915 449.374 246.829C449.369 246.747 449.333 246.67 449.273 246.614C449.213 246.558 449.134 246.526 449.051 246.526Z" fill="#5BC0EB"/>
<path d="M462.593 246.526H458.859L462.18 243.213C462.24 243.152 462.273 243.07 462.273 242.984C462.273 242.899 462.24 242.817 462.18 242.755C462.15 242.725 462.115 242.701 462.076 242.685C462.036 242.668 461.994 242.66 461.952 242.66C461.909 242.66 461.867 242.668 461.828 242.685C461.788 242.701 461.753 242.725 461.723 242.755L458.402 246.075V242.336C458.402 242.251 458.368 242.169 458.307 242.108C458.247 242.048 458.165 242.014 458.079 242.014C457.994 242.016 457.913 242.05 457.853 242.11C457.793 242.17 457.758 242.251 457.757 242.336V246.075L454.442 242.736C454.412 242.706 454.377 242.682 454.337 242.665C454.298 242.649 454.256 242.641 454.213 242.641C454.171 242.641 454.129 242.649 454.089 242.665C454.05 242.682 454.014 242.706 453.984 242.736C453.925 242.797 453.892 242.879 453.892 242.965C453.892 243.05 453.925 243.132 453.984 243.194L457.305 246.507H453.565C453.48 246.509 453.399 246.543 453.339 246.603C453.279 246.663 453.245 246.744 453.243 246.829C453.243 246.915 453.277 246.997 453.337 247.057C453.398 247.118 453.48 247.152 453.565 247.152H457.305L453.984 250.472C453.925 250.533 453.892 250.615 453.892 250.701C453.892 250.786 453.925 250.868 453.984 250.929C454.047 250.987 454.128 251.02 454.213 251.02C454.298 251.02 454.38 250.987 454.442 250.929L457.757 247.609V251.342C457.757 251.427 457.791 251.509 457.851 251.57C457.912 251.63 457.994 251.664 458.079 251.664C458.165 251.664 458.247 251.63 458.307 251.57C458.368 251.509 458.402 251.427 458.402 251.342V247.609L461.723 250.929C461.785 250.987 461.867 251.02 461.952 251.02C462.037 251.02 462.118 250.987 462.18 250.929C462.24 250.868 462.273 250.786 462.273 250.701C462.273 250.615 462.24 250.533 462.18 250.472L458.859 247.152H462.593C462.679 247.152 462.761 247.118 462.821 247.057C462.882 246.997 462.916 246.915 462.916 246.829C462.911 246.747 462.874 246.67 462.815 246.614C462.755 246.558 462.675 246.526 462.593 246.526Z" fill="#5BC0EB"/>
<path d="M476.135 246.526H472.401L475.722 243.213C475.782 243.152 475.815 243.07 475.815 242.984C475.815 242.899 475.782 242.817 475.722 242.755C475.692 242.725 475.657 242.701 475.617 242.685C475.578 242.668 475.536 242.66 475.493 242.66C475.451 242.66 475.409 242.668 475.369 242.685C475.33 242.701 475.294 242.725 475.264 242.755L471.943 246.075V242.336C471.943 242.251 471.909 242.169 471.849 242.108C471.789 242.048 471.707 242.014 471.621 242.014C471.536 242.016 471.455 242.05 471.395 242.11C471.335 242.17 471.3 242.251 471.299 242.336V246.075L467.984 242.736C467.954 242.706 467.918 242.682 467.879 242.665C467.84 242.649 467.798 242.641 467.755 242.641C467.713 242.641 467.67 242.649 467.631 242.665C467.592 242.682 467.556 242.706 467.526 242.736C467.467 242.797 467.433 242.879 467.433 242.965C467.433 243.05 467.467 243.132 467.526 243.194L470.847 246.507H467.107C467.022 246.509 466.941 246.543 466.881 246.603C466.821 246.663 466.786 246.744 466.785 246.829C466.785 246.915 466.819 246.997 466.879 247.057C466.94 247.118 467.022 247.152 467.107 247.152H470.847L467.526 250.472C467.467 250.533 467.433 250.615 467.433 250.701C467.433 250.786 467.467 250.868 467.526 250.929C467.588 250.987 467.67 251.02 467.755 251.02C467.84 251.02 467.922 250.987 467.984 250.929L471.299 247.609V251.342C471.299 251.427 471.333 251.509 471.393 251.57C471.453 251.63 471.536 251.664 471.621 251.664C471.707 251.664 471.789 251.63 471.849 251.57C471.909 251.509 471.943 251.427 471.943 251.342V247.609L475.264 250.929C475.327 250.987 475.408 251.02 475.493 251.02C475.578 251.02 475.66 250.987 475.722 250.929C475.782 250.868 475.815 250.786 475.815 250.701C475.815 250.615 475.782 250.533 475.722 250.472L472.401 247.152H476.135C476.22 247.152 476.302 247.118 476.363 247.057C476.423 246.997 476.457 246.915 476.457 246.829C476.452 246.747 476.416 246.67 476.356 246.614C476.296 246.558 476.217 246.526 476.135 246.526Z" fill="#5BC0EB"/>
<path d="M489.677 246.526H485.943L489.264 243.213C489.323 243.152 489.357 243.07 489.357 242.984C489.357 242.899 489.323 242.817 489.264 242.755C489.234 242.725 489.198 242.701 489.159 242.685C489.12 242.668 489.078 242.66 489.035 242.66C488.992 242.66 488.95 242.668 488.911 242.685C488.872 242.701 488.836 242.725 488.806 242.755L485.485 246.075V242.336C485.485 242.251 485.451 242.169 485.391 242.108C485.33 242.048 485.248 242.014 485.163 242.014C485.078 242.016 484.997 242.05 484.937 242.11C484.876 242.17 484.842 242.251 484.84 242.336V246.075L481.526 242.736C481.496 242.706 481.46 242.682 481.421 242.665C481.382 242.649 481.339 242.641 481.297 242.641C481.254 242.641 481.212 242.649 481.173 242.665C481.134 242.682 481.098 242.706 481.068 242.736C481.008 242.797 480.975 242.879 480.975 242.965C480.975 243.05 481.008 243.132 481.068 243.194L484.389 246.507H480.649C480.564 246.509 480.483 246.543 480.423 246.603C480.363 246.663 480.328 246.744 480.326 246.829C480.326 246.915 480.36 246.997 480.421 247.057C480.481 247.118 480.563 247.152 480.649 247.152H484.389L481.068 250.472C481.008 250.533 480.975 250.615 480.975 250.701C480.975 250.786 481.008 250.868 481.068 250.929C481.13 250.987 481.212 251.02 481.297 251.02C481.382 251.02 481.464 250.987 481.526 250.929L484.84 247.609V251.342C484.84 251.427 484.874 251.509 484.935 251.57C484.995 251.63 485.077 251.664 485.163 251.664C485.248 251.664 485.33 251.63 485.391 251.57C485.451 251.509 485.485 251.427 485.485 251.342V247.609L488.806 250.929C488.868 250.987 488.95 251.02 489.035 251.02C489.12 251.02 489.202 250.987 489.264 250.929C489.323 250.868 489.357 250.786 489.357 250.701C489.357 250.615 489.323 250.533 489.264 250.472L485.943 247.152H489.677C489.762 247.152 489.844 247.118 489.905 247.057C489.965 246.997 489.999 246.915 489.999 246.829C489.994 246.747 489.958 246.67 489.898 246.614C489.838 246.558 489.759 246.526 489.677 246.526Z" fill="#5BC0EB"/>
<path d="M593.491 324.948C593.472 324.169 593.375 323.393 593.2 322.634C592.62 320.455 591.311 317.818 589.157 317.161C586.933 316.48 584.786 315.573 582.747 314.453C582.36 307.542 583.947 300.471 582.219 293.773C581.574 291.323 580.51 288.977 580.226 286.469C579.871 283.349 580.723 280.022 579.478 277.147C578.498 274.878 576.344 273.279 574.029 272.441C571.714 271.603 569.219 271.378 566.762 271.152C563.666 270.901 553.645 269.714 550.15 272.48C549.909 272.667 549.693 272.884 549.506 273.125C549.428 273.231 549.359 273.343 549.299 273.46L549.267 273.511C549.197 273.646 549.139 273.786 549.093 273.93C549.044 274.089 549.007 274.25 548.983 274.414C548.983 274.465 548.983 274.517 548.983 274.569C548.983 274.62 548.983 274.794 548.983 274.91V275.084C548.983 275.2 548.983 275.316 548.983 275.439C548.983 275.561 548.983 275.529 548.983 275.574C549.028 276.154 549.112 276.735 549.112 277.308C549.119 277.594 549.093 277.88 549.035 278.159C548.82 278.92 548.456 279.63 547.964 280.248L547.848 280.416C547.777 280.519 547.706 280.615 547.642 280.719C547.577 280.822 547.526 280.899 547.474 280.989C547.423 281.08 547.371 281.138 547.326 281.221C547.264 281.328 547.208 281.437 547.158 281.55C547.158 281.615 547.087 281.673 547.062 281.737C546.981 281.911 546.916 282.093 546.868 282.279C546.717 282.839 546.704 283.427 546.829 283.993C547.003 284.717 547.302 285.404 547.713 286.024C547.874 286.288 548.048 286.546 548.229 286.804L548.68 287.416C548.596 288.015 548.551 288.618 548.545 289.221C548.545 291.24 549.004 293.232 549.886 295.048C550.769 296.864 552.052 298.456 553.639 299.703C553.895 302.426 553.866 305.167 553.555 307.884C553.497 308.451 553.426 309.025 553.349 309.592C553.271 310.16 553.213 310.534 553.136 311.004C552.192 311.139 551.231 311.067 550.318 310.791C549.897 310.604 549.467 310.438 549.028 310.295C547.152 309.824 545.237 311.694 543.38 311.127C543.38 311.217 543.328 311.301 543.296 311.384C542.908 311.144 542.462 311.012 542.006 311.004C540.903 310.953 540.007 310.153 539.207 309.399L536.751 307.085C536.59 306.943 536.447 306.783 536.325 306.608C536.193 306.357 536.093 306.091 536.028 305.815C535.616 304.48 534.616 303.417 533.649 302.405C533.465 302.174 533.222 301.998 532.946 301.895C532.839 301.879 532.73 301.879 532.624 301.895C532.558 301.805 532.487 301.719 532.411 301.637C532.244 301.446 532.065 301.265 531.875 301.096C530.702 300.013 530.586 299.085 529.567 297.873C528.678 296.717 527.872 295.5 527.155 294.23C527.071 293.554 526.955 292.857 526.813 292.155C526.488 290.546 526.016 288.971 525.401 287.449L524.112 284.593L523.963 284.741C523.028 283.349 522.029 282.588 521.132 282.769C519.63 283.078 518.888 285.992 519.127 289.802L519.643 293.67C519.643 293.766 519.688 293.863 519.714 293.96C519.621 294.418 519.573 294.884 519.572 295.352C519.572 295.894 520.075 296.293 520.339 296.777C520.762 297.432 520.986 298.195 520.984 298.975C520.952 299.252 520.868 299.517 520.855 299.787C520.89 300.393 521.101 300.975 521.461 301.463L524.685 306.878L525.33 308.013L525.369 308.065C525.573 308.46 525.869 308.801 526.233 309.057C526.359 310.413 526.719 311.737 527.297 312.97C527.407 313.215 527.529 313.447 527.658 313.679C528.525 315.104 529.546 316.429 530.702 317.631L532.237 319.352C533.752 321.041 535.267 322.737 536.912 324.297C537.5 324.923 538.212 325.421 539.001 325.76C539.388 325.915 539.808 325.965 540.221 325.905C540.633 325.845 541.022 325.677 541.348 325.419C541.348 326.218 541.348 327.017 541.348 327.817C541.588 327.831 541.819 327.91 542.018 328.044C542.217 328.177 542.377 328.362 542.48 328.578C542.584 328.794 542.628 329.034 542.609 329.273C542.589 329.512 542.505 329.741 542.367 329.937C541.013 333.412 539.646 336.919 537.595 340.033C539.043 340.889 540.385 341.913 541.593 343.082C542.378 343.951 543.075 344.894 543.676 345.899C543.734 346.376 543.779 346.847 543.805 347.317C544.282 355.001 541.31 362.628 538.646 369.951C537.879 372.027 537.041 374.199 537.105 376.359C536.6 376.67 536.117 377.017 535.661 377.397C536.19 378.776 535.983 380.007 535.925 381.484C535.906 382.369 535.724 383.243 535.39 384.062C535.11 384.63 534.8 385.183 534.461 385.719C532.791 388.665 532.424 392.165 532.088 395.53C531.888 397.561 532.675 400.043 531.753 401.861C530.16 404.981 528.748 408.307 528.529 411.776C528.521 412.556 528.422 413.333 528.232 414.09C528.032 414.735 527.678 415.283 527.497 415.914C527.311 416.761 527.268 417.632 527.368 418.493C527.491 421.583 527.031 424.668 526.014 427.589C525.208 429.89 524.318 432.353 524.95 434.719C523.394 436.352 522.433 438.462 522.222 440.707C522.206 441.282 522.136 441.854 522.016 442.416C521.819 442.99 521.559 443.542 521.242 444.06C519.944 446.423 519.336 449.103 519.488 451.795C517.553 454.419 516.586 457.655 516.012 460.872C515.438 464.089 515.187 467.364 514.452 470.542C513.472 474.745 511.698 478.993 511.35 483.299C509.261 484.634 508.358 487.219 507.958 489.662C507.558 492.105 507.494 494.671 506.469 496.927C505.94 498.1 505.179 499.151 504.676 500.35C504.323 501.305 504.064 502.292 503.902 503.296C503.593 504.869 503.322 506.623 503.702 508.131C503.155 508.71 502.517 509.196 501.813 509.569C501.916 509.169 502 508.769 502.071 508.363C500.407 509.872 497.389 509.343 496.061 511.155C495.662 511.739 495.506 512.455 495.627 513.151C495.747 513.848 496.134 514.471 496.706 514.887C497.121 515.14 497.571 515.334 498.04 515.461C501.265 516.492 504.579 517.53 507.894 516.982C508.286 516.94 508.665 516.819 509.009 516.628C509.44 516.31 509.795 515.901 510.047 515.429C510.544 514.642 511.041 513.856 511.531 513.069C512.718 513.424 513.926 513.706 515.148 513.914C515.271 514.945 515.361 515.977 515.406 517.008C516.051 517.137 516.915 517.176 517.218 516.576C517.31 516.349 517.348 516.104 517.328 515.861C517.328 515.403 517.392 514.797 517.431 514.178H517.56C519.527 514.257 521.485 513.862 523.267 513.024C522.577 507.313 524.853 501.73 526.826 496.328C528.909 490.642 530.695 484.853 532.495 479.064C533.784 474.99 535.209 471.045 536.473 466.964C538.064 461.807 539.661 456.65 541.264 451.492C541.961 449.223 542.664 446.98 543.463 444.724C545.147 440.158 547.144 435.714 549.441 431.424C550.086 430.206 550.731 429.001 551.26 427.737C551.904 426.196 552.362 424.585 552.878 422.992C554.002 419.725 555.356 416.541 556.928 413.465C556.973 413.381 557.005 413.303 557.05 413.226C557.573 415.36 558.095 417.526 558.443 419.673C558.914 422.305 558.951 424.996 558.553 427.64C558.243 429.439 557.656 431.218 557.727 433.043C557.824 435.563 559.172 437.852 559.836 440.282C560.264 442.101 560.506 443.958 560.558 445.826C560.739 448.727 562.312 451.982 561.203 454.671C557.753 463.186 559.423 472.804 557.457 481.746C556.444 486.336 553.342 490.648 553.587 495.341C553.759 498.672 554.052 501.994 554.464 505.308C554.564 506.353 554.836 507.375 555.271 508.331C555.528 508.834 555.823 509.317 556.154 509.775C555.87 509.885 555.632 510.175 555.425 510.787C554.896 512.399 555.425 514.397 556.857 515.3C557.44 515.612 558.069 515.829 558.72 515.944C559.597 516.194 560.504 516.319 561.416 516.318C561.699 516.303 561.982 516.268 562.261 516.215C563.257 516.634 564.275 517 565.311 517.311C565.311 517.575 565.362 517.84 565.395 518.104C565.396 518.242 565.427 518.378 565.485 518.504C565.543 518.629 565.626 518.741 565.73 518.832C565.891 518.907 566.069 518.939 566.246 518.923H569.747C569.747 518.633 569.747 518.336 569.747 518.046C570.148 518.088 570.553 518.045 570.936 517.921C571.319 517.796 571.672 517.593 571.972 517.324C572.282 516.929 572.502 516.472 572.617 515.983C573.571 512.747 574.519 509.509 575.461 506.268C576.59 502.686 577.059 498.93 576.847 495.18C575.603 483.299 578.337 471.38 577.447 459.467C576.911 452.306 577.28 445.107 578.543 438.039C578.833 436.44 579.188 434.815 579.317 433.223C579.601 430.219 579.252 427.183 579.465 424.198C579.536 423.154 579.678 422.116 579.807 421.078C580.69 414.636 581.154 408.144 581.193 401.642C581.174 399.487 581.04 397.336 580.794 395.195C581.466 395.024 582.076 394.667 582.554 394.164C583.128 393.416 582.98 392.365 582.973 391.411C582.973 389.129 583.934 386.976 584.708 384.823C585.701 381.853 586.515 378.826 587.145 375.759C587.811 373.287 588.175 370.744 588.229 368.184C588.229 367.927 588.216 367.669 588.19 367.411C588.433 367.243 588.635 367.022 588.783 366.766C588.951 366.389 589.056 365.986 589.093 365.574C589.325 363.93 589.563 362.279 589.796 360.629C589.967 359.447 590.137 358.268 590.305 357.09L592.356 342.785C592.53 341.541 592.71 340.303 592.884 339.066L593.42 335.365C593.478 334.927 593.542 334.489 593.587 334.076C595.161 331.446 593.658 327.939 593.491 324.948ZM576.383 378.505C575.622 376.7 574.913 374.85 575.093 372.903H575.022C575.192 372.304 575.162 371.666 574.938 371.085C574.738 370.615 574.39 370.215 574.177 369.745C573.949 369.17 573.831 368.558 573.829 367.939C573.669 364.019 573.979 360.093 574.751 356.246C574.835 355.794 574.925 355.337 575.009 354.885C575.28 354.729 575.527 354.536 575.744 354.312C576.084 353.925 576.364 353.491 576.576 353.022C577.305 351.559 577.969 350.07 578.582 348.555C578.782 348.065 579.072 347.498 579.568 347.375C579.465 351.146 579.852 354.995 578.317 358.399C578.026 358.948 577.809 359.533 577.672 360.139C577.531 361.1 577.93 362.073 577.789 363.027C577.718 363.524 577.505 363.981 577.421 364.471C577.357 364.712 577.358 364.965 577.424 365.205C577.49 365.445 577.618 365.663 577.795 365.838C577.88 365.898 577.974 365.946 578.072 365.98C578.034 366.238 578.001 366.502 577.976 366.753C577.924 367.282 577.898 367.778 577.866 368.088C577.718 369.665 577.659 371.249 577.692 372.832C577.692 374.541 577.756 376.249 577.73 377.99C577.754 378.489 577.671 378.988 577.485 379.453C577.358 379.693 577.192 379.91 576.995 380.098C576.808 379.517 576.602 379.008 576.383 378.505Z" fill="url(#paint0_linear)"/>
<path d="M525.48 303.707C527.448 303.303 528.117 298.461 526.976 292.891C525.834 287.321 523.313 283.132 521.346 283.536C519.378 283.939 518.708 288.781 519.85 294.351C520.992 299.921 523.512 304.11 525.48 303.707Z" fill="#FBBEBE"/>
<path d="M555.528 510.91C555 512.508 555.528 514.507 556.96 515.377C557.54 515.686 558.164 515.904 558.811 516.022C559.686 516.269 560.591 516.392 561.5 516.389C562.615 516.338 563.686 515.899 564.801 515.745C564.93 515.712 565.066 515.731 565.182 515.796C565.238 515.856 565.279 515.928 565.304 516.006C565.329 516.084 565.335 516.166 565.324 516.247C565.336 516.881 565.383 517.514 565.466 518.143C565.466 518.281 565.497 518.417 565.555 518.543C565.612 518.669 565.696 518.78 565.801 518.871C565.962 518.946 566.14 518.977 566.317 518.961H569.812C569.891 515.892 569.555 512.826 568.812 509.846C568.764 509.618 568.677 509.4 568.554 509.201C568.258 508.877 567.868 508.652 567.439 508.557C566.584 508.201 565.661 508.041 564.737 508.086C563.608 508.234 562.667 508.963 561.706 509.569C560.745 510.175 559.436 510.71 558.269 510.4C557.102 510.091 556.128 509.118 555.528 510.91Z" fill="#3F3D56"/>
<path d="M504.211 508.08C503.229 509.131 502.024 509.951 500.684 510.478L500.091 510.761C500.009 510.792 499.939 510.849 499.891 510.922C499.88 510.973 499.879 511.025 499.891 511.075C499.902 511.125 499.924 511.172 499.955 511.213C500.449 511.976 501.178 512.557 502.033 512.868C502.887 513.178 503.82 513.202 504.689 512.934C505.073 512.838 505.428 512.652 505.727 512.392C506.218 511.809 506.5 511.078 506.526 510.317C506.722 509.531 506.688 508.705 506.43 507.938C505.533 505.92 505.204 506.835 504.211 508.08Z" fill="#FBBEBE"/>
<path d="M517.612 516.022C517.631 516.265 517.594 516.511 517.502 516.737C517.199 517.33 516.354 517.298 515.696 517.169C515.597 514.982 515.332 512.805 514.903 510.658C513.652 510.6 512.749 511.786 512.079 512.85L510.351 515.59C510.101 516.062 509.748 516.471 509.319 516.789C508.973 516.978 508.594 517.098 508.203 517.143C504.902 517.691 501.568 516.653 498.382 515.622C497.913 515.496 497.464 515.305 497.047 515.055C496.479 514.637 496.094 514.016 495.974 513.322C495.854 512.627 496.007 511.913 496.403 511.329C497.737 509.524 500.736 510.039 502.4 508.544C502.226 509.596 501.941 510.627 501.548 511.619C503.773 511.283 505.269 509.246 507.062 507.886C507.512 507.504 508.055 507.247 508.635 507.138C509.07 507.102 509.507 507.148 509.925 507.274C511.992 507.794 513.926 508.745 515.6 510.065C516.277 510.6 517.334 511.354 517.631 512.18C517.947 513.166 517.612 514.971 517.612 516.022Z" fill="#3F3D56"/>
<path d="M561.97 303.326C569.328 303.326 575.293 297.364 575.293 290.008C575.293 282.652 569.328 276.69 561.97 276.69C554.613 276.69 548.648 282.652 548.648 290.008C548.648 297.364 554.613 303.326 561.97 303.326Z" fill="#FBBEBE"/>
<path d="M588.216 368.642C588.162 371.188 587.8 373.719 587.139 376.178C586.508 379.233 585.694 382.246 584.701 385.203C583.934 387.35 582.973 389.503 582.979 391.779C582.979 392.726 583.134 393.777 582.554 394.525C582.037 395.05 581.386 395.422 580.671 395.601C580.314 395.696 579.985 395.873 579.709 396.118C579.434 396.363 579.22 396.67 579.085 397.013C578.479 396.109 578.026 395.111 577.743 394.061C576.587 390.519 575.512 386.959 574.519 383.379C574.428 383.173 574.389 382.948 574.405 382.723C574.42 382.498 574.491 382.281 574.609 382.09C574.773 381.947 574.964 381.84 575.17 381.774C575.831 381.504 576.437 381.115 576.957 380.626C577.201 380.41 577.402 380.15 577.55 379.859C577.737 379.397 577.823 378.9 577.801 378.402C577.801 376.694 577.801 374.992 577.756 373.284C577.729 371.706 577.79 370.129 577.937 368.558C577.937 368.249 577.995 367.753 578.046 367.224C578.143 366.212 578.337 365.039 578.885 364.645C579.704 364.097 582.154 364.832 583.083 364.961C584.682 365.18 586.307 365.438 587.867 365.741C588.094 366.692 588.211 367.665 588.216 368.642Z" fill="#3F3D56"/>
<path d="M534.423 304.919C533.907 305.95 532.669 306.447 531.714 307.098L528.445 309.341C528.226 309.538 527.97 309.688 527.692 309.784C527.414 309.879 527.12 309.917 526.826 309.895C526.56 309.797 526.316 309.647 526.109 309.453C525.902 309.259 525.736 309.026 525.62 308.767C525.622 308.75 525.622 308.733 525.62 308.716L524.943 307.581L521.719 302.179C521.361 301.695 521.152 301.117 521.119 300.516C521.119 300.239 521.216 299.981 521.242 299.703C521.251 298.925 521.026 298.162 520.597 297.512C520.339 297.028 519.823 296.629 519.836 296.087C519.811 295.375 519.934 294.667 520.197 294.005C520.536 293.393 521.021 292.874 521.609 292.496C521.913 292.277 522.222 292.071 522.544 291.852C522.716 291.735 522.905 291.648 523.105 291.594C523.641 291.484 524.169 291.929 524.711 291.948C527.039 293.508 527.935 296.461 529.767 298.588C530.799 299.8 530.902 300.728 532.069 301.811C532.256 301.979 532.436 302.16 532.611 302.347C532.841 302.598 533.037 302.88 533.191 303.185C533.404 303.739 534.687 304.39 534.423 304.919Z" fill="#3F3D56"/>
<path d="M557.289 303.333C558.25 305.364 558.998 307.594 558.72 309.824C558.664 310.429 558.472 311.012 558.159 311.533C557.231 312.957 555.283 313.215 553.587 313.299C553.23 313.269 552.87 313.311 552.529 313.421C552.188 313.532 551.873 313.71 551.601 313.944C551.375 314.273 551.264 314.668 551.286 315.067C551.308 315.466 551.462 315.846 551.724 316.148C552.269 316.73 552.946 317.172 553.697 317.438C556.38 318.617 559.275 319.591 562.19 319.32C563.544 319.191 564.859 318.798 566.207 318.598C567.676 318.439 569.153 318.357 570.631 318.353C572.385 318.289 574.132 318.115 575.88 317.941L580.51 317.483C580.763 317.487 581.008 317.397 581.2 317.231C581.541 316.832 581.103 316.245 580.677 315.942C578.22 314.124 575.093 312.874 573.694 310.14C573.049 308.851 572.849 307.317 572.372 305.924C571.895 304.532 571.134 303.275 570.837 301.857C570.679 300.612 570.608 299.359 570.624 298.105C570.64 296.84 570.18 295.616 569.335 294.675C568.412 293.818 567.078 293.599 565.827 293.547C562.744 293.412 559.462 294.147 557.276 296.319C556.689 296.906 556.186 297.608 555.58 298.137C554.974 298.666 554.148 298.82 554.548 299.517C554.948 300.213 555.735 300.645 556.16 301.257C556.591 301.918 556.968 302.612 557.289 303.333Z" fill="#FBBEBE"/>
<path d="M583.553 322.086C582.74 327.05 581.418 331.917 579.607 336.61C578.696 338.729 577.921 340.903 577.285 343.121C576.789 345.119 576.886 347.259 576.428 349.264C575.86 351.759 575.293 354.26 574.835 356.774C574.067 360.613 573.759 364.53 573.919 368.442C573.921 369.058 574.039 369.669 574.268 370.241C574.48 370.705 574.822 371.105 575.022 371.582C575.172 372.001 575.233 372.446 575.202 372.89C575.171 373.334 575.048 373.766 574.841 374.16C574.511 374.898 574.062 375.578 573.513 376.172C567.503 377.964 561.074 377.377 554.812 377.758C549.041 378.106 543.205 379.292 537.518 378.305C536.873 375.727 537.95 373.026 538.872 370.512C541.548 363.208 544.508 355.601 544.031 347.949C543.981 347.056 543.879 346.168 543.728 345.287C542.792 339.865 543.811 334.25 545.443 328.996C546.455 325.721 546.41 322.234 546.178 318.824C546.063 317.716 546.048 316.601 546.133 315.491C546.226 314.357 546.647 313.276 547.345 312.377C547.345 312.332 547.403 312.287 547.435 312.242C547.468 312.197 547.719 312.203 547.919 312.242C547.97 312.264 548.025 312.275 548.08 312.275C548.136 312.275 548.19 312.264 548.241 312.242L548.312 312.197C548.34 312.177 548.372 312.167 548.406 312.167C548.439 312.167 548.472 312.177 548.499 312.197C548.648 312.287 548.732 312.596 549.054 312.654C549.53 312.727 550.011 312.772 550.492 312.79C551.071 312.807 551.646 312.889 552.207 313.035H552.285C553.123 313.176 553.984 313.103 554.787 312.822C555.321 312.689 555.836 312.489 556.321 312.229C556.463 312.074 557.353 311.932 557.534 311.823C558.121 311.468 557.992 309.805 558.114 309.122C558.182 308.436 558.345 307.764 558.598 307.123C558.891 306.651 559.297 306.257 559.778 305.977C560.259 305.697 560.801 305.54 561.358 305.518C562.468 305.492 563.578 305.591 564.666 305.815C567.071 306.156 569.534 306.098 571.894 306.653C573.081 306.93 574.377 307.349 575.467 306.808C575.764 306.878 575.809 307.136 575.809 307.452C575.781 307.752 575.72 308.048 575.628 308.335C575.215 310.115 576.615 311.752 577.904 313.041C578.449 313.649 579.092 314.161 579.807 314.556C580.452 314.853 581.096 314.975 581.741 315.298C582.264 315.576 582.707 315.982 583.031 316.477C583.403 317.045 583.653 317.684 583.766 318.353C583.905 319.6 583.833 320.862 583.553 322.086Z" fill="#3F3D56"/>
<path opacity="0.1" d="M583.553 322.086C582.74 327.05 581.418 331.917 579.607 336.61C578.696 338.729 577.921 340.903 577.285 343.121C576.789 345.119 576.886 347.259 576.428 349.264C575.86 351.759 575.293 354.26 574.835 356.774C574.699 356.852 574.558 356.923 574.416 356.987C573.613 357.37 572.763 357.643 571.888 357.799C570.316 357.989 568.724 357.937 567.168 357.645L557.966 356.413C554.29 355.917 550.376 355.317 547.648 352.829C546.133 351.462 545.14 349.657 544.05 347.917C544 347.024 543.899 346.135 543.747 345.254C542.812 339.833 543.831 334.218 545.462 328.964C546.475 325.689 546.429 322.202 546.197 318.791C546.082 317.684 546.067 316.569 546.152 315.459C546.245 314.325 546.667 313.243 547.364 312.345C547.553 312.29 547.744 312.247 547.938 312.216C548.068 312.19 548.2 312.173 548.332 312.165H548.519C548.736 312.165 548.952 312.191 549.164 312.242C549.603 312.382 550.034 312.547 550.453 312.738H550.531C551.083 312.92 551.664 313.003 552.246 312.983C553.097 312.983 553.974 312.848 554.825 312.79C555.877 312.626 556.953 312.819 557.882 313.338C558.481 313.819 559.05 314.338 559.584 314.891C560.23 315.398 560.955 315.792 561.732 316.058C567.282 318.176 573.441 318.047 578.897 315.697C579.422 315.399 580.016 315.248 580.619 315.259C581.064 315.346 581.486 315.526 581.857 315.787C582.244 316.013 582.625 316.232 583.018 316.432C583.39 317 583.64 317.639 583.753 318.308C583.901 319.569 583.833 320.847 583.553 322.086Z" fill="black"/>
<path d="M589.17 317.818C586.602 317.034 584.135 315.952 581.819 314.595C581.447 314.335 581.025 314.155 580.581 314.066C579.976 314.059 579.38 314.21 578.852 314.505C573.398 316.854 567.242 316.983 561.693 314.866C560.918 314.597 560.192 314.203 559.546 313.699C559.01 313.147 558.441 312.629 557.843 312.145C555.722 310.772 552.788 312.384 550.415 311.501C549.994 311.313 549.563 311.147 549.125 311.004C547.248 310.534 545.34 312.403 543.495 311.836C542.809 313.7 542.302 315.626 541.98 317.586C541.718 319.837 541.578 322.101 541.561 324.368C541.561 325.728 541.496 327.088 541.561 328.448C541.788 328.486 542.005 328.569 542.198 328.695C542.392 328.82 542.557 328.984 542.683 329.177C542.768 329.401 542.802 329.642 542.784 329.881C542.767 330.121 542.697 330.353 542.58 330.563C541.232 334.025 539.865 337.525 537.821 340.626C539.261 341.484 540.599 342.505 541.806 343.669C544.063 346.054 545.172 349.399 547.61 351.604C550.357 354.086 554.271 354.692 557.927 355.182L567.129 356.413C568.687 356.705 570.281 356.759 571.856 356.574C572.729 356.415 573.577 356.14 574.377 355.756C574.9 355.537 575.377 355.222 575.783 354.827C576.123 354.441 576.403 354.007 576.615 353.538C577.343 352.081 578.008 350.592 578.62 349.084C578.833 348.548 579.155 347.923 579.736 347.878C583.153 344.797 586.378 341.638 589.795 338.556C591.169 337.419 592.401 336.12 593.465 334.689C595.16 332.181 593.619 328.629 593.465 325.599C593.446 324.824 593.349 324.053 593.174 323.298C592.62 321.099 591.317 318.469 589.17 317.818Z" fill="#5BC0EB"/>
<path opacity="0.1" d="M534.423 304.919C533.907 305.95 532.669 306.447 531.714 307.098L528.445 309.341C528.227 309.538 527.971 309.688 527.692 309.784C527.414 309.879 527.12 309.917 526.826 309.895C526.56 309.797 526.317 309.647 526.11 309.453C525.903 309.259 525.736 309.026 525.621 308.767C525.621 308.619 525.621 308.458 525.621 308.303C525.596 307.781 525.666 307.259 525.827 306.762C526.147 306.033 526.643 305.395 527.271 304.906C528.485 303.757 529.929 302.878 531.508 302.327C531.754 302.232 532.022 302.205 532.282 302.25C532.382 302.276 532.478 302.317 532.566 302.372C532.796 302.624 532.992 302.906 533.146 303.21C533.404 303.739 534.687 304.39 534.423 304.919Z" fill="black"/>
<path d="M542.122 311.713C541.025 311.662 540.129 310.869 539.33 310.115L536.886 307.845C536.722 307.707 536.579 307.547 536.46 307.368C536.328 307.118 536.228 306.851 536.163 306.575C535.645 305.273 534.833 304.108 533.79 303.172C533.609 302.941 533.365 302.766 533.087 302.669C532.825 302.62 532.555 302.647 532.307 302.746C530.728 303.296 529.284 304.175 528.071 305.325C527.443 305.815 526.947 306.453 526.626 307.181C526.464 307.678 526.394 308.2 526.42 308.722C526.435 310.425 526.818 312.105 527.542 313.647C527.651 313.886 527.774 314.124 527.903 314.356C528.763 315.778 529.78 317.099 530.934 318.295L532.468 320.01C533.977 321.699 535.486 323.388 537.124 324.942C537.711 325.568 538.423 326.064 539.213 326.398C539.61 326.56 540.044 326.61 540.467 326.542C540.89 326.473 541.287 326.29 541.612 326.012C541.921 325.654 542.154 325.237 542.296 324.787C543.289 322.208 544.23 319.526 544.288 316.748C544.302 315.635 544.255 314.523 544.147 313.415C544.05 312.242 543.218 311.784 542.122 311.713Z" fill="#5BC0EB"/>
<path d="M581.2 401.964C581.162 408.449 580.701 414.924 579.82 421.349C579.691 422.387 579.549 423.424 579.478 424.462C579.265 427.473 579.613 430.496 579.33 433.487C579.181 435.105 578.846 436.711 578.562 438.29C577.302 445.339 576.934 452.519 577.466 459.66C578.356 471.541 575.628 483.428 576.866 495.277C577.016 497.581 576.889 499.895 576.486 502.168C576.255 503.579 575.921 504.971 575.486 506.333C574.545 509.56 573.599 512.783 572.649 516.002C572.537 516.492 572.317 516.95 572.004 517.343C571.675 517.628 571.289 517.839 570.872 517.962C570.455 518.085 570.017 518.118 569.586 518.059C565.865 517.943 562.364 516.338 558.985 514.771C558.596 514.618 558.236 514.4 557.921 514.126C557.218 513.398 557.276 512.251 556.966 511.29C556.657 510.329 555.819 509.427 555.341 508.441C554.949 507.508 554.712 506.517 554.638 505.508C554.209 502.207 553.916 498.893 553.761 495.567C553.516 490.887 556.612 486.581 557.631 482.029C559.565 473.082 557.927 463.489 561.364 454.999C562.448 452.318 560.874 449.069 560.719 446.181C560.664 444.317 560.422 442.464 559.997 440.649C559.352 438.226 557.992 435.943 557.895 433.429C557.824 431.611 558.411 429.839 558.714 428.047C559.116 425.409 559.079 422.723 558.604 420.098C558.262 417.932 557.74 415.766 557.218 413.652L557.102 413.89C555.531 416.96 554.179 420.137 553.059 423.399C552.543 424.978 552.091 426.59 551.446 428.124C550.918 429.413 550.266 430.593 549.628 431.805C547.338 436.079 545.345 440.505 543.663 445.052C542.864 447.283 542.161 449.565 541.464 451.802L536.686 467.273C535.396 471.341 533.984 475.273 532.72 479.335C530.934 485.137 529.148 490.887 527.071 496.56C525.137 501.943 522.835 507.519 523.525 513.205C521.747 514.04 519.794 514.436 517.831 514.359C514.507 514.065 511.247 513.274 508.158 512.012C506.926 511.554 505.649 511.039 504.818 510.026C503.386 508.279 503.741 505.72 504.173 503.496C504.336 502.494 504.595 501.509 504.947 500.557C505.437 499.37 506.236 498.32 506.739 497.146C507.752 494.897 507.816 492.35 508.216 489.907C508.616 487.464 509.506 484.885 511.595 483.557C511.95 479.264 513.716 475.029 514.69 470.832C515.425 467.654 515.67 464.385 516.251 461.162C516.831 457.939 517.766 454.716 519.714 452.105C519.56 449.413 520.168 446.732 521.468 444.369C521.782 443.85 522.039 443.299 522.235 442.725C522.355 442.165 522.424 441.596 522.441 441.023C522.654 438.783 523.613 436.679 525.163 435.047C524.518 432.694 525.414 430.238 526.22 427.956C527.235 425.044 527.695 421.968 527.574 418.886C527.474 418.026 527.516 417.155 527.697 416.307C527.877 415.663 528.232 415.115 528.438 414.496C528.622 413.738 528.72 412.962 528.729 412.182C528.98 408.694 530.392 405.406 531.953 402.293C532.881 400.475 532.095 398.006 532.288 395.982C532.623 392.617 532.991 389.136 534.661 386.202C534.971 385.648 535.306 385.119 535.583 384.546C535.919 383.726 536.101 382.852 536.118 381.967C536.176 380.491 536.383 379.266 535.854 377.893C539.304 375.024 544.011 374.218 548.5 374.025C552.988 373.832 557.527 374.238 561.919 373.284C563.208 372.994 564.498 372.594 565.859 372.4C568.948 371.949 572.082 372.652 575.132 373.348C574.919 375.282 575.628 377.139 576.421 378.937C579.518 386.223 581.142 394.048 581.2 401.964Z" fill="#33313F"/>
<path opacity="0.1" d="M566.013 403.44L558.604 420.098C558.262 417.932 557.74 415.766 557.218 413.652L557.102 413.89V413.542L561.138 404.665L566.013 403.44Z" fill="black"/>
<path opacity="0.1" d="M588.216 368.642C587.788 368.962 587.278 369.152 586.746 369.19C585.929 369.219 585.113 369.108 584.334 368.861L578.53 367.411C578.348 367.366 578.171 367.303 578.001 367.224C578.098 366.212 578.292 365.039 578.84 364.645C579.659 364.097 582.109 364.832 583.038 364.961C584.637 365.18 586.262 365.438 587.822 365.741C588.064 366.69 588.196 367.663 588.216 368.642Z" fill="black"/>
<path d="M593.123 330.286C593.245 330.821 593.419 331.349 593.523 331.891C593.696 333.219 593.65 334.567 593.387 335.881L592.858 339.569L592.33 343.275L590.285 357.541L589.782 361.074L589.073 366.006C589.04 366.416 588.935 366.817 588.764 367.192C588.552 367.542 588.257 367.835 587.905 368.043C587.553 368.251 587.154 368.368 586.745 368.384C585.929 368.41 585.113 368.299 584.333 368.056L578.53 366.599C578.275 366.553 578.034 366.455 577.821 366.309C577.643 366.135 577.515 365.918 577.449 365.679C577.384 365.44 577.383 365.188 577.447 364.948C577.53 364.458 577.743 364.001 577.814 363.511C577.956 362.557 577.556 361.577 577.698 360.629C577.837 360.026 578.054 359.443 578.343 358.895C580.277 354.621 579.155 349.631 579.813 344.99C580.405 341.337 581.949 337.904 584.288 335.037C585.732 333.227 587.391 331.599 589.228 330.189C589.95 329.628 591.098 328.474 592.007 328.255C593.174 328.01 592.929 329.473 593.123 330.286Z" fill="#5BC0EB"/>
<path d="M549.202 274.756C548.777 276.109 549.441 277.598 549.138 278.978C548.809 280.499 547.378 281.557 546.971 283.084C546.326 285.412 548.3 287.533 549.744 289.466C555.096 296.648 554.393 306.588 552.562 315.349C551.089 322.378 549.051 329.276 546.468 335.978C545.662 338.06 544.772 340.174 543.186 341.735C546.152 340.884 549.306 340.026 552.278 340.851C556.044 341.896 559.294 345.551 563.112 344.719C565.407 344.21 567.02 342.173 569.083 341.045C572.952 338.963 577.614 340.271 581.928 340.942C582.858 341.161 583.831 341.112 584.733 340.8C585.424 340.429 586.009 339.89 586.436 339.233C588.361 336.764 589.514 333.781 589.75 330.659C589.852 329.105 589.623 327.546 589.077 326.087C588.531 324.628 587.681 323.301 586.584 322.195C585.668 321.331 584.572 320.635 583.869 319.617C583.186 318.427 582.819 317.082 582.805 315.71C582.296 308.619 584.024 301.38 582.244 294.52C581.599 292.077 580.548 289.737 580.265 287.236C579.91 284.122 580.755 280.789 579.517 277.94C578.543 275.677 576.396 274.072 574.081 273.247C571.766 272.422 569.289 272.19 566.833 271.958C563.299 271.661 550.679 270.146 549.202 274.756Z" fill="#33313F"/>
<g opacity="0.1">
<path opacity="0.1" d="M552.562 315.349C551.096 322.349 549.069 329.219 546.5 335.894C546.945 335.011 547.319 334.083 547.674 333.161C550.259 326.46 552.297 319.562 553.768 312.532C555.606 303.765 556.309 293.837 550.956 286.649C549.667 284.935 548.009 283.078 548.067 281.067C547.591 281.675 547.22 282.359 546.971 283.091C546.326 285.418 548.3 287.539 549.744 289.473C555.096 296.648 554.393 306.588 552.562 315.349Z" fill="black"/>
<path opacity="0.1" d="M549.215 278.327C549.733 277.684 550.119 276.946 550.35 276.154C550.45 275.197 550.424 274.23 550.273 273.279C549.776 273.653 549.403 274.167 549.202 274.756C548.822 275.897 549.26 277.134 549.215 278.327Z" fill="black"/>
<path opacity="0.1" d="M587.648 336.397C587.221 337.052 586.636 337.589 585.946 337.957C585.044 338.275 584.07 338.325 583.141 338.099C578.827 337.454 574.113 336.126 570.295 338.208C568.225 339.33 566.62 341.367 564.318 341.883C560.507 342.734 557.257 339.079 553.491 338.015C550.821 337.274 548.009 337.886 545.32 338.66C544.786 339.799 544.065 340.84 543.186 341.741C546.152 340.89 549.306 340.033 552.278 340.858C556.044 341.902 559.294 345.557 563.112 344.726C565.407 344.216 567.02 342.179 569.083 341.051C572.952 338.969 577.614 340.278 581.928 340.948C582.858 341.167 583.831 341.118 584.733 340.806C585.424 340.435 586.009 339.897 586.436 339.24C587.604 337.699 588.507 335.973 589.105 334.134C588.675 334.922 588.188 335.678 587.648 336.397Z" fill="black"/>
</g>
</g>
<defs>
<linearGradient id="paint0_linear" x1="495.629" y1="394.796" x2="594.29" y2="394.796" gradientUnits="userSpaceOnUse">
<stop stop-color="#808080" stop-opacity="0.25"/>
<stop offset="0.54" stop-color="#808080" stop-opacity="0.12"/>
<stop offset="1" stop-color="#808080" stop-opacity="0.1"/>
</linearGradient>
<clipPath id="clip0">
<rect width="752" height="519" fill="white"/>
</clipPath>
</defs>
</svg>
